ISO-10303-21;
HEADER;
/* Generated by software containing ST-Developer
 * from STEP Tools, Inc. (www.steptools.com) 
 */

FILE_DESCRIPTION(
/* description */ (''),
/* implementation_level */ '2;1');

FILE_NAME(
/* name */ 'Antenna.step',
/* time_stamp */ '2026-06-18T01:27:50+05:30',
/* author */ (''),
/* organization */ (''),
/* preprocessor_version */ 'ST-DEVELOPER v20.1',
/* originating_system */ 'Autodesk Translation Framework v15.8.0.0',
/* authorisation */ '');

FILE_SCHEMA (('AUTOMOTIVE_DESIGN { 1 0 10303 214 3 1 1 }'));
ENDSEC;

DATA;
#10=MECHANICAL_DESIGN_GEOMETRIC_PRESENTATION_REPRESENTATION('',(#47,#48,
#49,#50,#51),#1845);
#11=CONTEXT_DEPENDENT_OVER_RIDING_STYLED_ITEM('',(#1886),#1862,#51,(#18));
#12=CONTEXT_DEPENDENT_OVER_RIDING_STYLED_ITEM('',(#1886),#1864,#51,(#20));
#13=MAPPED_ITEM('',#14,#1111);
#14=REPRESENTATION_MAP(#1111,#1861);
#15=ITEM_DEFINED_TRANSFORMATION($,$,#1011,#1108);
#16=ITEM_DEFINED_TRANSFORMATION($,$,#1027,#1109);
#17=ITEM_DEFINED_TRANSFORMATION($,$,#1053,#1110);
#18=(
REPRESENTATION_RELATIONSHIP($,$,#1862,#1861)
REPRESENTATION_RELATIONSHIP_WITH_TRANSFORMATION(#15)
SHAPE_REPRESENTATION_RELATIONSHIP()
);
#19=(
REPRESENTATION_RELATIONSHIP($,$,#1863,#1861)
REPRESENTATION_RELATIONSHIP_WITH_TRANSFORMATION(#16)
SHAPE_REPRESENTATION_RELATIONSHIP()
);
#20=(
REPRESENTATION_RELATIONSHIP($,$,#1864,#1861)
REPRESENTATION_RELATIONSHIP_WITH_TRANSFORMATION(#17)
SHAPE_REPRESENTATION_RELATIONSHIP()
);
#21=CONTEXT_DEPENDENT_SHAPE_REPRESENTATION(#18,#1858);
#22=CONTEXT_DEPENDENT_SHAPE_REPRESENTATION(#19,#1859);
#23=CONTEXT_DEPENDENT_SHAPE_REPRESENTATION(#20,#1860);
#24=NEXT_ASSEMBLY_USAGE_OCCURRENCE('Antenna Connector part v1:1',
'Antenna Connector part v1:1','Antenna Connector part v1:1',#1866,#1867,
'Antenna Connector part v1:1');
#25=NEXT_ASSEMBLY_USAGE_OCCURRENCE('Main Antenna Part v1:1',
'Main Antenna Part v1:1','Main Antenna Part v1:1',#1866,#1868,
'Main Antenna Part v1:1');
#26=NEXT_ASSEMBLY_USAGE_OCCURRENCE('Antenna Rollable Part v2:1',
'Antenna Rollable Part v2:1','Antenna Rollable Part v2:1',#1866,#1869,
'Antenna Rollable Part v2:1');
#27=CONICAL_SURFACE('',#1080,6.,0.785398163397448);
#28=(
BOUNDED_SURFACE()
B_SPLINE_SURFACE(2,2,((#1502,#1503,#1504,#1505,#1506,#1507,#1508,#1509,
#1510),(#1511,#1512,#1513,#1514,#1515,#1516,#1517,#1518,#1519),(#1520,#1521,
#1522,#1523,#1524,#1525,#1526,#1527,#1528)),.UNSPECIFIED.,.F.,.T.,.F.)
B_SPLINE_SURFACE_WITH_KNOTS((3,3),(3,2,2,2,3),(0.,1.5707963267949),(-3.14159265358979,
-1.5707963267949,0.,1.5707963267949,3.14159265358979),.UNSPECIFIED.)
GEOMETRIC_REPRESENTATION_ITEM()
RATIONAL_B_SPLINE_SURFACE(((1.,0.707106781186548,1.,0.707106781186548,1.,
0.707106781186548,1.,0.707106781186548,1.),(0.707106781186559,0.500000000000008,
0.707106781186559,0.500000000000008,0.707106781186559,0.500000000000008,
0.707106781186559,0.500000000000008,0.707106781186559),(1.,0.707106781186548,
1.,0.707106781186548,1.,0.707106781186548,1.,0.707106781186548,1.)))
REPRESENTATION_ITEM('')
SURFACE()
);
#29=(
BOUNDED_SURFACE()
B_SPLINE_SURFACE(2,2,((#1537,#1538,#1539,#1540,#1541,#1542,#1543,#1544,
#1545),(#1546,#1547,#1548,#1549,#1550,#1551,#1552,#1553,#1554),(#1555,#1556,
#1557,#1558,#1559,#1560,#1561,#1562,#1563)),.UNSPECIFIED.,.F.,.T.,.F.)
B_SPLINE_SURFACE_WITH_KNOTS((3,3),(3,2,2,2,3),(0.,1.5707963267949),(-3.14159265358979,
-1.5707963267949,0.,1.5707963267949,3.14159265358979),.UNSPECIFIED.)
GEOMETRIC_REPRESENTATION_ITEM()
RATIONAL_B_SPLINE_SURFACE(((1.,0.707106781186548,1.,0.707106781186548,1.,
0.707106781186548,1.,0.707106781186548,1.),(0.707106781186556,0.500000000000006,
0.707106781186556,0.500000000000006,0.707106781186556,0.500000000000006,
0.707106781186556,0.500000000000006,0.707106781186556),(1.,0.707106781186548,
1.,0.707106781186548,1.,0.707106781186548,1.,0.707106781186548,1.)))
REPRESENTATION_ITEM('')
SURFACE()
);
#30=B_SPLINE_CURVE_WITH_KNOTS('',3,(#1448,#1449,#1450,#1451,#1452,#1453,
#1454,#1455,#1456,#1457),.UNSPECIFIED.,.F.,.F.,(4,2,2,2,4),(0.602612571803468,
0.743666967538646,0.899991810207076,1.05188888757242,1.18864962972247),
 .UNSPECIFIED.);
#31=B_SPLINE_CURVE_WITH_KNOTS('',3,(#1465,#1466,#1467,#1468,#1469,#1470,
#1471,#1472,#1473,#1474),.UNSPECIFIED.,.F.,.F.,(4,2,2,2,4),(1.21900414011206,
1.35576488226211,1.50766195962745,1.66398680229588,1.80504119803106),
 .UNSPECIFIED.);
#32=B_SPLINE_CURVE_WITH_KNOTS('',3,(#1572,#1573,#1574,#1575,#1576,#1577,
#1578,#1579,#1580,#1581,#1582,#1583,#1584,#1585),.UNSPECIFIED.,.F.,.F.,
(4,2,2,2,2,2,4),(0.458779982401035,0.512828460561631,0.591792123975204,
0.670755787388777,0.749719450802349,0.828683114215922,0.882731592376518),
 .UNSPECIFIED.);
#33=B_SPLINE_CURVE_WITH_KNOTS('',3,(#1697,#1698,#1699,#1700,#1701,#1702,
#1703,#1704,#1705,#1706),.UNSPECIFIED.,.F.,.F.,(4,2,2,2,4),(-0.150782787819535,
-0.131934913974979,-0.113087040130423,-0.0942392304746087,-0.0753914208187943),
 .UNSPECIFIED.);
#34=B_SPLINE_CURVE_WITH_KNOTS('',3,(#1708,#1709,#1710,#1711,#1712,#1713,
#1714,#1715,#1716,#1717,#1718,#1719,#1720,#1721,#1722,#1723,#1724,#1725),
 .UNSPECIFIED.,.F.,.F.,(4,2,2,2,2,2,2,2,4),(0.,0.0188798981642335,0.037759796328467,
0.0566389768214526,0.0755181573144383,0.0943973375445961,0.113276517774754,
0.132156415908855,0.151036314042957),.UNSPECIFIED.);
#35=B_SPLINE_CURVE_WITH_KNOTS('',3,(#1728,#1729,#1730,#1731,#1732,#1733,
#1734,#1735,#1736,#1737),.UNSPECIFIED.,.F.,.F.,(4,2,2,2,4),(-0.0753913939967114,
-0.0565435775566239,-0.0376957611165363,-0.0188478805582681,0.),
 .UNSPECIFIED.);
#36=B_SPLINE_CURVE_WITH_KNOTS('',3,(#1755,#1756,#1757,#1758,#1759,#1760,
#1761,#1762,#1763,#1764),.UNSPECIFIED.,.F.,.F.,(4,2,2,2,4),(0.0753914208187943,
0.0942392304746087,0.113087040130423,0.131934913974979,0.150782787819535),
 .UNSPECIFIED.);
#37=B_SPLINE_CURVE_WITH_KNOTS('',3,(#1765,#1766,#1767,#1768,#1769,#1770,
#1771,#1772,#1773,#1774),.UNSPECIFIED.,.F.,.F.,(4,2,2,2,4),(0.,0.0188478805582682,
0.0376957611165363,0.0565435775566238,0.0753913939967114),.UNSPECIFIED.);
#38=B_SPLINE_CURVE_WITH_KNOTS('',3,(#1776,#1777,#1778,#1779,#1780,#1781,
#1782,#1783,#1784,#1785),.UNSPECIFIED.,.F.,.F.,(4,2,2,2,4),(-0.0755181573144383,
-0.0566389768214526,-0.037759796328467,-0.0188798981642335,0.),
 .UNSPECIFIED.);
#39=B_SPLINE_CURVE_WITH_KNOTS('',3,(#1786,#1787,#1788,#1789,#1790,#1791,
#1792,#1793,#1794,#1795),.UNSPECIFIED.,.F.,.F.,(4,2,2,2,4),(-0.151036314042957,
-0.132156422614504,-0.113276531186051,-0.0943973576612867,-0.0755181841365225),
 .UNSPECIFIED.);
#40=ELLIPSE('',#1029,9.54594154601839,6.75);
#41=SHAPE_REPRESENTATION_RELATIONSHIP('SRR','None',#1862,#44);
#42=SHAPE_REPRESENTATION_RELATIONSHIP('SRR','None',#1863,#45);
#43=SHAPE_REPRESENTATION_RELATIONSHIP('SRR','None',#1864,#46);
#44=ADVANCED_BREP_SHAPE_REPRESENTATION('',(#52),#1842);
#45=ADVANCED_BREP_SHAPE_REPRESENTATION('',(#53),#1843);
#46=ADVANCED_BREP_SHAPE_REPRESENTATION('',(#54,#55),#1844);
#47=STYLED_ITEM('',(#1886),#52);
#48=STYLED_ITEM('',(#1887),#53);
#49=STYLED_ITEM('',(#1886),#54);
#50=STYLED_ITEM('',(#1886),#55);
#51=STYLED_ITEM('',(#1888),#13);
#52=MANIFOLD_SOLID_BREP('Body1',#972);
#53=MANIFOLD_SOLID_BREP('Body1',#973);
#54=MANIFOLD_SOLID_BREP('Body1',#974);
#55=MANIFOLD_SOLID_BREP('Body2',#975);
#56=FACE_BOUND('',#177,.T.);
#57=FACE_BOUND('',#204,.T.);
#58=FACE_BOUND('',#208,.T.);
#59=FACE_BOUND('',#211,.T.);
#60=CYLINDRICAL_SURFACE('',#1022,6.25);
#61=CYLINDRICAL_SURFACE('',#1024,5.25);
#62=CYLINDRICAL_SURFACE('',#1030,3.85138708337248);
#63=CYLINDRICAL_SURFACE('',#1032,3.85138708337248);
#64=CYLINDRICAL_SURFACE('',#1034,6.75);
#65=CYLINDRICAL_SURFACE('',#1048,4.75);
#66=CYLINDRICAL_SURFACE('',#1054,3.5);
#67=CYLINDRICAL_SURFACE('',#1066,3.5);
#68=CYLINDRICAL_SURFACE('',#1070,3.5);
#69=CYLINDRICAL_SURFACE('',#1073,2.06155281280883);
#70=CYLINDRICAL_SURFACE('',#1085,6.75);
#71=CYLINDRICAL_SURFACE('',#1090,0.4999997206033);
#72=CYLINDRICAL_SURFACE('',#1093,0.4999997206033);
#73=CYLINDRICAL_SURFACE('',#1094,2.75);
#74=CYLINDRICAL_SURFACE('',#1101,5.);
#75=CIRCLE('',#1015,6.25);
#76=CIRCLE('',#1016,5.25);
#77=CIRCLE('',#1018,6.25);
#78=CIRCLE('',#1019,6.25);
#79=CIRCLE('',#1020,5.25);
#80=CIRCLE('',#1021,5.25);
#81=CIRCLE('',#1023,6.25);
#82=CIRCLE('',#1025,5.25);
#83=CIRCLE('',#1031,3.85138708337248);
#84=CIRCLE('',#1033,3.85138708337248);
#85=CIRCLE('',#1035,6.75);
#86=CIRCLE('',#1036,6.75);
#87=CIRCLE('',#1037,6.75);
#88=CIRCLE('',#1039,4.75);
#89=CIRCLE('',#1040,4.75);
#90=CIRCLE('',#1044,4.75);
#91=CIRCLE('',#1045,4.75);
#92=CIRCLE('',#1046,4.5);
#93=CIRCLE('',#1047,0.25);
#94=CIRCLE('',#1050,0.25);
#95=CIRCLE('',#1051,6.5);
#96=CIRCLE('',#1055,3.5);
#97=CIRCLE('',#1056,3.5);
#98=CIRCLE('',#1058,2.06155281280883);
#99=CIRCLE('',#1059,2.06155281280883);
#100=CIRCLE('',#1061,2.06155281280883);
#101=CIRCLE('',#1063,3.5);
#102=CIRCLE('',#1065,3.5);
#103=CIRCLE('',#1067,3.5);
#104=CIRCLE('',#1071,3.5);
#105=CIRCLE('',#1074,2.06155281280883);
#106=CIRCLE('',#1075,2.06155281280883);
#107=CIRCLE('',#1078,2.75);
#108=CIRCLE('',#1081,5.25);
#109=CIRCLE('',#1082,6.75);
#110=CIRCLE('',#1084,5.);
#111=CIRCLE('',#1086,6.75);
#112=CIRCLE('',#1095,2.75);
#113=CIRCLE('',#1096,2.75);
#114=CIRCLE('',#1098,5.);
#115=CIRCLE('',#1100,5.);
#116=FACE_OUTER_BOUND('',#170,.T.);
#117=FACE_OUTER_BOUND('',#171,.T.);
#118=FACE_OUTER_BOUND('',#172,.T.);
#119=FACE_OUTER_BOUND('',#173,.T.);
#120=FACE_OUTER_BOUND('',#174,.T.);
#121=FACE_OUTER_BOUND('',#175,.T.);
#122=FACE_OUTER_BOUND('',#176,.T.);
#123=FACE_OUTER_BOUND('',#178,.T.);
#124=FACE_OUTER_BOUND('',#179,.T.);
#125=FACE_OUTER_BOUND('',#180,.T.);
#126=FACE_OUTER_BOUND('',#181,.T.);
#127=FACE_OUTER_BOUND('',#182,.T.);
#128=FACE_OUTER_BOUND('',#183,.T.);
#129=FACE_OUTER_BOUND('',#184,.T.);
#130=FACE_OUTER_BOUND('',#185,.T.);
#131=FACE_OUTER_BOUND('',#186,.T.);
#132=FACE_OUTER_BOUND('',#187,.T.);
#133=FACE_OUTER_BOUND('',#188,.T.);
#134=FACE_OUTER_BOUND('',#189,.T.);
#135=FACE_OUTER_BOUND('',#190,.T.);
#136=FACE_OUTER_BOUND('',#191,.T.);
#137=FACE_OUTER_BOUND('',#192,.T.);
#138=FACE_OUTER_BOUND('',#193,.T.);
#139=FACE_OUTER_BOUND('',#194,.T.);
#140=FACE_OUTER_BOUND('',#195,.T.);
#141=FACE_OUTER_BOUND('',#196,.T.);
#142=FACE_OUTER_BOUND('',#197,.T.);
#143=FACE_OUTER_BOUND('',#198,.T.);
#144=FACE_OUTER_BOUND('',#199,.T.);
#145=FACE_OUTER_BOUND('',#200,.T.);
#146=FACE_OUTER_BOUND('',#201,.T.);
#147=FACE_OUTER_BOUND('',#202,.T.);
#148=FACE_OUTER_BOUND('',#203,.T.);
#149=FACE_OUTER_BOUND('',#205,.T.);
#150=FACE_OUTER_BOUND('',#206,.T.);
#151=FACE_OUTER_BOUND('',#207,.T.);
#152=FACE_OUTER_BOUND('',#209,.T.);
#153=FACE_OUTER_BOUND('',#210,.T.);
#154=FACE_OUTER_BOUND('',#212,.T.);
#155=FACE_OUTER_BOUND('',#213,.T.);
#156=FACE_OUTER_BOUND('',#214,.T.);
#157=FACE_OUTER_BOUND('',#215,.T.);
#158=FACE_OUTER_BOUND('',#216,.T.);
#159=FACE_OUTER_BOUND('',#217,.T.);
#160=FACE_OUTER_BOUND('',#218,.T.);
#161=FACE_OUTER_BOUND('',#219,.T.);
#162=FACE_OUTER_BOUND('',#220,.T.);
#163=FACE_OUTER_BOUND('',#221,.T.);
#164=FACE_OUTER_BOUND('',#222,.T.);
#165=FACE_OUTER_BOUND('',#223,.T.);
#166=FACE_OUTER_BOUND('',#224,.T.);
#167=FACE_OUTER_BOUND('',#225,.T.);
#168=FACE_OUTER_BOUND('',#226,.T.);
#169=FACE_OUTER_BOUND('',#227,.T.);
#170=EDGE_LOOP('',(#614,#615,#616,#617));
#171=EDGE_LOOP('',(#618,#619,#620,#621));
#172=EDGE_LOOP('',(#622,#623,#624,#625));
#173=EDGE_LOOP('',(#626,#627,#628,#629,#630,#631));
#174=EDGE_LOOP('',(#632,#633,#634,#635,#636,#637,#638,#639));
#175=EDGE_LOOP('',(#640,#641,#642,#643,#644,#645,#646,#647));
#176=EDGE_LOOP('',(#648));
#177=EDGE_LOOP('',(#649));
#178=EDGE_LOOP('',(#650,#651));
#179=EDGE_LOOP('',(#652,#653,#654));
#180=EDGE_LOOP('',(#655,#656,#657));
#181=EDGE_LOOP('',(#658,#659,#660,#661,#662,#663,#664,#665,#666,#667));
#182=EDGE_LOOP('',(#668,#669,#670,#671,#672,#673,#674,#675));
#183=EDGE_LOOP('',(#676,#677,#678,#679,#680));
#184=EDGE_LOOP('',(#681,#682,#683,#684,#685));
#185=EDGE_LOOP('',(#686,#687,#688,#689));
#186=EDGE_LOOP('',(#690,#691,#692,#693));
#187=EDGE_LOOP('',(#694,#695,#696,#697,#698,#699,#700,#701));
#188=EDGE_LOOP('',(#702));
#189=EDGE_LOOP('',(#703,#704,#705,#706));
#190=EDGE_LOOP('',(#707));
#191=EDGE_LOOP('',(#708,#709,#710,#711,#712,#713));
#192=EDGE_LOOP('',(#714,#715,#716,#717,#718,#719));
#193=EDGE_LOOP('',(#720,#721,#722,#723,#724));
#194=EDGE_LOOP('',(#725,#726,#727,#728,#729,#730));
#195=EDGE_LOOP('',(#731,#732,#733,#734,#735,#736));
#196=EDGE_LOOP('',(#737,#738,#739,#740));
#197=EDGE_LOOP('',(#741,#742,#743,#744,#745));
#198=EDGE_LOOP('',(#746,#747,#748,#749,#750,#751,#752,#753));
#199=EDGE_LOOP('',(#754,#755,#756,#757));
#200=EDGE_LOOP('',(#758,#759,#760,#761,#762));
#201=EDGE_LOOP('',(#763,#764,#765,#766,#767,#768,#769,#770,#771,#772));
#202=EDGE_LOOP('',(#773,#774,#775,#776));
#203=EDGE_LOOP('',(#777));
#204=EDGE_LOOP('',(#778));
#205=EDGE_LOOP('',(#779,#780,#781,#782));
#206=EDGE_LOOP('',(#783,#784,#785,#786));
#207=EDGE_LOOP('',(#787));
#208=EDGE_LOOP('',(#788));
#209=EDGE_LOOP('',(#789,#790,#791,#792));
#210=EDGE_LOOP('',(#793));
#211=EDGE_LOOP('',(#794,#795,#796,#797));
#212=EDGE_LOOP('',(#798,#799,#800,#801));
#213=EDGE_LOOP('',(#802,#803,#804,#805));
#214=EDGE_LOOP('',(#806,#807,#808,#809,#810));
#215=EDGE_LOOP('',(#811,#812,#813,#814));
#216=EDGE_LOOP('',(#815,#816,#817,#818));
#217=EDGE_LOOP('',(#819,#820,#821,#822,#823,#824));
#218=EDGE_LOOP('',(#825,#826,#827,#828,#829,#830,#831,#832,#833,#834,#835,
#836));
#219=EDGE_LOOP('',(#837,#838,#839,#840));
#220=EDGE_LOOP('',(#841,#842,#843,#844));
#221=EDGE_LOOP('',(#845,#846,#847,#848,#849,#850,#851,#852,#853,#854,#855,
#856,#857));
#222=EDGE_LOOP('',(#858,#859,#860,#861));
#223=EDGE_LOOP('',(#862,#863,#864,#865));
#224=EDGE_LOOP('',(#866,#867,#868,#869));
#225=EDGE_LOOP('',(#870,#871,#872,#873));
#226=EDGE_LOOP('',(#874,#875,#876,#877));
#227=EDGE_LOOP('',(#878,#879,#880,#881));
#228=LINE('',#1403,#310);
#229=LINE('',#1405,#311);
#230=LINE('',#1407,#312);
#231=LINE('',#1408,#313);
#232=LINE('',#1412,#314);
#233=LINE('',#1414,#315);
#234=LINE('',#1416,#316);
#235=LINE('',#1417,#317);
#236=LINE('',#1431,#318);
#237=LINE('',#1434,#319);
#238=LINE('',#1442,#320);
#239=LINE('',#1458,#321);
#240=LINE('',#1464,#322);
#241=LINE('',#1479,#323);
#242=LINE('',#1481,#324);
#243=LINE('',#1482,#325);
#244=LINE('',#1486,#326);
#245=LINE('',#1491,#327);
#246=LINE('',#1494,#328);
#247=LINE('',#1495,#329);
#248=LINE('',#1498,#330);
#249=LINE('',#1499,#331);
#250=LINE('',#1535,#332);
#251=LINE('',#1587,#333);
#252=LINE('',#1591,#334);
#253=LINE('',#1594,#335);
#254=LINE('',#1601,#336);
#255=LINE('',#1603,#337);
#256=LINE('',#1604,#338);
#257=LINE('',#1607,#339);
#258=LINE('',#1609,#340);
#259=LINE('',#1611,#341);
#260=LINE('',#1615,#342);
#261=LINE('',#1617,#343);
#262=LINE('',#1619,#344);
#263=LINE('',#1625,#345);
#264=LINE('',#1627,#346);
#265=LINE('',#1628,#347);
#266=LINE('',#1631,#348);
#267=LINE('',#1635,#349);
#268=LINE('',#1637,#350);
#269=LINE('',#1638,#351);
#270=LINE('',#1640,#352);
#271=LINE('',#1642,#353);
#272=LINE('',#1644,#354);
#273=LINE('',#1645,#355);
#274=LINE('',#1650,#356);
#275=LINE('',#1651,#357);
#276=LINE('',#1655,#358);
#277=LINE('',#1662,#359);
#278=LINE('',#1667,#360);
#279=LINE('',#1674,#361);
#280=LINE('',#1680,#362);
#281=LINE('',#1682,#363);
#282=LINE('',#1684,#364);
#283=LINE('',#1685,#365);
#284=LINE('',#1689,#366);
#285=LINE('',#1691,#367);
#286=LINE('',#1693,#368);
#287=LINE('',#1694,#369);
#288=LINE('',#1727,#370);
#289=LINE('',#1740,#371);
#290=LINE('',#1742,#372);
#291=LINE('',#1743,#373);
#292=LINE('',#1747,#374);
#293=LINE('',#1749,#375);
#294=LINE('',#1751,#376);
#295=LINE('',#1752,#377);
#296=LINE('',#1797,#378);
#297=LINE('',#1805,#379);
#298=LINE('',#1809,#380);
#299=LINE('',#1811,#381);
#300=LINE('',#1813,#382);
#301=LINE('',#1814,#383);
#302=LINE('',#1817,#384);
#303=LINE('',#1819,#385);
#304=LINE('',#1820,#386);
#305=LINE('',#1823,#387);
#306=LINE('',#1825,#388);
#307=LINE('',#1826,#389);
#308=LINE('',#1828,#390);
#309=LINE('',#1829,#391);
#310=VECTOR('',#1118,10.);
#311=VECTOR('',#1119,10.);
#312=VECTOR('',#1120,10.);
#313=VECTOR('',#1121,10.);
#314=VECTOR('',#1124,10.);
#315=VECTOR('',#1125,10.);
#316=VECTOR('',#1126,10.);
#317=VECTOR('',#1127,10.);
#318=VECTOR('',#1148,6.25);
#319=VECTOR('',#1151,6.25);
#320=VECTOR('',#1162,10.);
#321=VECTOR('',#1167,10.);
#322=VECTOR('',#1172,10.);
#323=VECTOR('',#1177,6.75);
#324=VECTOR('',#1180,10.);
#325=VECTOR('',#1181,10.);
#326=VECTOR('',#1186,10.);
#327=VECTOR('',#1191,10.);
#328=VECTOR('',#1194,10.);
#329=VECTOR('',#1195,10.);
#330=VECTOR('',#1198,10.);
#331=VECTOR('',#1199,10.);
#332=VECTOR('',#1212,6.75);
#333=VECTOR('',#1225,10.);
#334=VECTOR('',#1228,10.);
#335=VECTOR('',#1231,10.);
#336=VECTOR('',#1238,10.);
#337=VECTOR('',#1239,10.);
#338=VECTOR('',#1240,10.);
#339=VECTOR('',#1243,10.);
#340=VECTOR('',#1244,10.);
#341=VECTOR('',#1245,10.);
#342=VECTOR('',#1250,10.);
#343=VECTOR('',#1251,10.);
#344=VECTOR('',#1252,10.);
#345=VECTOR('',#1259,10.);
#346=VECTOR('',#1260,10.);
#347=VECTOR('',#1261,10.);
#348=VECTOR('',#1264,10.);
#349=VECTOR('',#1269,10.);
#350=VECTOR('',#1270,10.);
#351=VECTOR('',#1271,10.);
#352=VECTOR('',#1274,10.);
#353=VECTOR('',#1275,10.);
#354=VECTOR('',#1276,10.);
#355=VECTOR('',#1277,10.);
#356=VECTOR('',#1284,10.);
#357=VECTOR('',#1285,10.);
#358=VECTOR('',#1290,2.06155281280883);
#359=VECTOR('',#1301,10.);
#360=VECTOR('',#1306,6.);
#361=VECTOR('',#1315,6.75);
#362=VECTOR('',#1322,10.);
#363=VECTOR('',#1323,10.);
#364=VECTOR('',#1324,10.);
#365=VECTOR('',#1325,10.);
#366=VECTOR('',#1328,10.);
#367=VECTOR('',#1329,10.);
#368=VECTOR('',#1330,10.);
#369=VECTOR('',#1331,10.);
#370=VECTOR('',#1334,10.);
#371=VECTOR('',#1337,10.);
#372=VECTOR('',#1338,10.);
#373=VECTOR('',#1339,10.);
#374=VECTOR('',#1342,10.);
#375=VECTOR('',#1343,10.);
#376=VECTOR('',#1344,10.);
#377=VECTOR('',#1345,10.);
#378=VECTOR('',#1350,2.75);
#379=VECTOR('',#1365,5.);
#380=VECTOR('',#1368,10.);
#381=VECTOR('',#1369,10.);
#382=VECTOR('',#1370,10.);
#383=VECTOR('',#1371,10.);
#384=VECTOR('',#1374,10.);
#385=VECTOR('',#1375,10.);
#386=VECTOR('',#1376,10.);
#387=VECTOR('',#1379,10.);
#388=VECTOR('',#1380,10.);
#389=VECTOR('',#1381,10.);
#390=VECTOR('',#1384,10.);
#391=VECTOR('',#1385,10.);
#392=VERTEX_POINT('',#1401);
#393=VERTEX_POINT('',#1402);
#394=VERTEX_POINT('',#1404);
#395=VERTEX_POINT('',#1406);
#396=VERTEX_POINT('',#1410);
#397=VERTEX_POINT('',#1411);
#398=VERTEX_POINT('',#1413);
#399=VERTEX_POINT('',#1415);
#400=VERTEX_POINT('',#1422);
#401=VERTEX_POINT('',#1425);
#402=VERTEX_POINT('',#1429);
#403=VERTEX_POINT('',#1433);
#404=VERTEX_POINT('',#1439);
#405=VERTEX_POINT('',#1440);
#406=VERTEX_POINT('',#1444);
#407=VERTEX_POINT('',#1445);
#408=VERTEX_POINT('',#1447);
#409=VERTEX_POINT('',#1460);
#410=VERTEX_POINT('',#1461);
#411=VERTEX_POINT('',#1463);
#412=VERTEX_POINT('',#1476);
#413=VERTEX_POINT('',#1478);
#414=VERTEX_POINT('',#1485);
#415=VERTEX_POINT('',#1487);
#416=VERTEX_POINT('',#1489);
#417=VERTEX_POINT('',#1493);
#418=VERTEX_POINT('',#1497);
#419=VERTEX_POINT('',#1529);
#420=VERTEX_POINT('',#1531);
#421=VERTEX_POINT('',#1564);
#422=VERTEX_POINT('',#1570);
#423=VERTEX_POINT('',#1571);
#424=VERTEX_POINT('',#1586);
#425=VERTEX_POINT('',#1588);
#426=VERTEX_POINT('',#1590);
#427=VERTEX_POINT('',#1592);
#428=VERTEX_POINT('',#1596);
#429=VERTEX_POINT('',#1598);
#430=VERTEX_POINT('',#1600);
#431=VERTEX_POINT('',#1602);
#432=VERTEX_POINT('',#1606);
#433=VERTEX_POINT('',#1608);
#434=VERTEX_POINT('',#1610);
#435=VERTEX_POINT('',#1614);
#436=VERTEX_POINT('',#1616);
#437=VERTEX_POINT('',#1618);
#438=VERTEX_POINT('',#1622);
#439=VERTEX_POINT('',#1624);
#440=VERTEX_POINT('',#1626);
#441=VERTEX_POINT('',#1630);
#442=VERTEX_POINT('',#1634);
#443=VERTEX_POINT('',#1636);
#444=VERTEX_POINT('',#1641);
#445=VERTEX_POINT('',#1643);
#446=VERTEX_POINT('',#1649);
#447=VERTEX_POINT('',#1654);
#448=VERTEX_POINT('',#1659);
#449=VERTEX_POINT('',#1664);
#450=VERTEX_POINT('',#1666);
#451=VERTEX_POINT('',#1670);
#452=VERTEX_POINT('',#1673);
#453=VERTEX_POINT('',#1678);
#454=VERTEX_POINT('',#1679);
#455=VERTEX_POINT('',#1681);
#456=VERTEX_POINT('',#1683);
#457=VERTEX_POINT('',#1687);
#458=VERTEX_POINT('',#1688);
#459=VERTEX_POINT('',#1690);
#460=VERTEX_POINT('',#1692);
#461=VERTEX_POINT('',#1696);
#462=VERTEX_POINT('',#1707);
#463=VERTEX_POINT('',#1726);
#464=VERTEX_POINT('',#1739);
#465=VERTEX_POINT('',#1741);
#466=VERTEX_POINT('',#1745);
#467=VERTEX_POINT('',#1746);
#468=VERTEX_POINT('',#1748);
#469=VERTEX_POINT('',#1750);
#470=VERTEX_POINT('',#1754);
#471=VERTEX_POINT('',#1775);
#472=VERTEX_POINT('',#1807);
#473=VERTEX_POINT('',#1808);
#474=VERTEX_POINT('',#1810);
#475=VERTEX_POINT('',#1812);
#476=VERTEX_POINT('',#1816);
#477=VERTEX_POINT('',#1818);
#478=VERTEX_POINT('',#1822);
#479=VERTEX_POINT('',#1824);
#480=EDGE_CURVE('',#392,#393,#228,.T.);
#481=EDGE_CURVE('',#394,#392,#229,.T.);
#482=EDGE_CURVE('',#394,#395,#230,.T.);
#483=EDGE_CURVE('',#393,#395,#231,.T.);
#484=EDGE_CURVE('',#396,#397,#232,.T.);
#485=EDGE_CURVE('',#398,#396,#233,.T.);
#486=EDGE_CURVE('',#398,#399,#234,.T.);
#487=EDGE_CURVE('',#397,#399,#235,.T.);
#488=EDGE_CURVE('',#395,#398,#75,.T.);
#489=EDGE_CURVE('',#399,#394,#76,.T.);
#490=EDGE_CURVE('',#400,#393,#77,.T.);
#491=EDGE_CURVE('',#396,#400,#78,.T.);
#492=EDGE_CURVE('',#397,#401,#79,.T.);
#493=EDGE_CURVE('',#401,#392,#80,.T.);
#494=EDGE_CURVE('',#402,#402,#81,.T.);
#495=EDGE_CURVE('',#402,#400,#236,.T.);
#496=EDGE_CURVE('',#401,#403,#237,.T.);
#497=EDGE_CURVE('',#403,#403,#82,.T.);
#498=EDGE_CURVE('',#404,#405,#40,.T.);
#499=EDGE_CURVE('',#405,#404,#238,.T.);
#500=EDGE_CURVE('',#406,#407,#83,.T.);
#501=EDGE_CURVE('',#408,#406,#30,.T.);
#502=EDGE_CURVE('',#407,#408,#239,.T.);
#503=EDGE_CURVE('',#409,#410,#84,.T.);
#504=EDGE_CURVE('',#411,#409,#240,.T.);
#505=EDGE_CURVE('',#410,#411,#31,.T.);
#506=EDGE_CURVE('',#412,#412,#85,.T.);
#507=EDGE_CURVE('',#412,#413,#241,.T.);
#508=EDGE_CURVE('',#413,#408,#86,.T.);
#509=EDGE_CURVE('',#406,#404,#242,.T.);
#510=EDGE_CURVE('',#405,#410,#243,.T.);
#511=EDGE_CURVE('',#411,#413,#87,.T.);
#512=EDGE_CURVE('',#409,#414,#244,.T.);
#513=EDGE_CURVE('',#414,#415,#88,.T.);
#514=EDGE_CURVE('',#415,#416,#89,.T.);
#515=EDGE_CURVE('',#416,#407,#245,.T.);
#516=EDGE_CURVE('',#417,#405,#246,.T.);
#517=EDGE_CURVE('',#417,#414,#247,.T.);
#518=EDGE_CURVE('',#418,#416,#248,.T.);
#519=EDGE_CURVE('',#418,#404,#249,.T.);
#520=EDGE_CURVE('',#417,#418,#90,.T.);
#521=EDGE_CURVE('',#419,#419,#91,.T.);
#522=EDGE_CURVE('',#419,#420,#92,.T.);
#523=EDGE_CURVE('',#420,#420,#93,.T.);
#524=EDGE_CURVE('',#415,#419,#250,.T.);
#525=EDGE_CURVE('',#421,#421,#94,.T.);
#526=EDGE_CURVE('',#421,#412,#95,.T.);
#527=EDGE_CURVE('',#422,#423,#32,.T.);
#528=EDGE_CURVE('',#422,#424,#251,.T.);
#529=EDGE_CURVE('',#425,#424,#96,.T.);
#530=EDGE_CURVE('',#426,#425,#252,.T.);
#531=EDGE_CURVE('',#427,#426,#97,.T.);
#532=EDGE_CURVE('',#427,#423,#253,.T.);
#533=EDGE_CURVE('',#422,#428,#98,.T.);
#534=EDGE_CURVE('',#428,#429,#99,.T.);
#535=EDGE_CURVE('',#429,#430,#254,.T.);
#536=EDGE_CURVE('',#431,#430,#255,.T.);
#537=EDGE_CURVE('',#431,#424,#256,.T.);
#538=EDGE_CURVE('',#427,#432,#257,.T.);
#539=EDGE_CURVE('',#433,#432,#258,.T.);
#540=EDGE_CURVE('',#433,#434,#259,.T.);
#541=EDGE_CURVE('',#434,#423,#100,.T.);
#542=EDGE_CURVE('',#435,#426,#260,.T.);
#543=EDGE_CURVE('',#436,#435,#261,.T.);
#544=EDGE_CURVE('',#436,#437,#262,.T.);
#545=EDGE_CURVE('',#432,#437,#101,.T.);
#546=EDGE_CURVE('',#438,#431,#102,.T.);
#547=EDGE_CURVE('',#439,#438,#263,.T.);
#548=EDGE_CURVE('',#440,#439,#264,.T.);
#549=EDGE_CURVE('',#440,#425,#265,.T.);
#550=EDGE_CURVE('',#437,#441,#266,.T.);
#551=EDGE_CURVE('',#441,#433,#103,.T.);
#552=EDGE_CURVE('',#442,#441,#267,.T.);
#553=EDGE_CURVE('',#442,#443,#268,.T.);
#554=EDGE_CURVE('',#443,#434,#269,.T.);
#555=EDGE_CURVE('',#439,#436,#270,.T.);
#556=EDGE_CURVE('',#444,#438,#271,.T.);
#557=EDGE_CURVE('',#444,#445,#272,.T.);
#558=EDGE_CURVE('',#445,#442,#273,.T.);
#559=EDGE_CURVE('',#430,#444,#104,.T.);
#560=EDGE_CURVE('',#429,#446,#274,.T.);
#561=EDGE_CURVE('',#445,#446,#275,.T.);
#562=EDGE_CURVE('',#446,#443,#105,.T.);
#563=EDGE_CURVE('',#428,#447,#276,.T.);
#564=EDGE_CURVE('',#447,#447,#106,.T.);
#565=EDGE_CURVE('',#448,#448,#107,.T.);
#566=EDGE_CURVE('',#435,#440,#277,.T.);
#567=EDGE_CURVE('',#449,#449,#108,.T.);
#568=EDGE_CURVE('',#449,#450,#278,.T.);
#569=EDGE_CURVE('',#450,#450,#109,.T.);
#570=EDGE_CURVE('',#451,#451,#110,.T.);
#571=EDGE_CURVE('',#450,#452,#279,.T.);
#572=EDGE_CURVE('',#452,#452,#111,.T.);
#573=EDGE_CURVE('',#453,#454,#280,.T.);
#574=EDGE_CURVE('',#455,#453,#281,.T.);
#575=EDGE_CURVE('',#456,#455,#282,.T.);
#576=EDGE_CURVE('',#456,#454,#283,.T.);
#577=EDGE_CURVE('',#457,#458,#284,.T.);
#578=EDGE_CURVE('',#457,#459,#285,.T.);
#579=EDGE_CURVE('',#460,#459,#286,.T.);
#580=EDGE_CURVE('',#458,#460,#287,.T.);
#581=EDGE_CURVE('',#454,#461,#33,.T.);
#582=EDGE_CURVE('',#462,#456,#34,.T.);
#583=EDGE_CURVE('',#463,#462,#288,.T.);
#584=EDGE_CURVE('',#461,#463,#35,.T.);
#585=EDGE_CURVE('',#463,#464,#289,.T.);
#586=EDGE_CURVE('',#465,#462,#290,.T.);
#587=EDGE_CURVE('',#464,#465,#291,.T.);
#588=EDGE_CURVE('',#466,#467,#292,.T.);
#589=EDGE_CURVE('',#468,#466,#293,.T.);
#590=EDGE_CURVE('',#469,#468,#294,.T.);
#591=EDGE_CURVE('',#469,#467,#295,.T.);
#592=EDGE_CURVE('',#470,#457,#36,.T.);
#593=EDGE_CURVE('',#467,#470,#37,.T.);
#594=EDGE_CURVE('',#471,#469,#38,.T.);
#595=EDGE_CURVE('',#459,#471,#39,.T.);
#596=EDGE_CURVE('',#471,#448,#296,.T.);
#597=EDGE_CURVE('',#465,#468,#112,.T.);
#598=EDGE_CURVE('',#460,#455,#113,.T.);
#599=EDGE_CURVE('',#466,#464,#114,.T.);
#600=EDGE_CURVE('',#453,#458,#115,.T.);
#601=EDGE_CURVE('',#451,#470,#297,.T.);
#602=EDGE_CURVE('',#472,#473,#298,.T.);
#603=EDGE_CURVE('',#472,#474,#299,.T.);
#604=EDGE_CURVE('',#475,#474,#300,.T.);
#605=EDGE_CURVE('',#473,#475,#301,.T.);
#606=EDGE_CURVE('',#473,#476,#302,.T.);
#607=EDGE_CURVE('',#477,#475,#303,.T.);
#608=EDGE_CURVE('',#476,#477,#304,.T.);
#609=EDGE_CURVE('',#476,#478,#305,.T.);
#610=EDGE_CURVE('',#479,#477,#306,.T.);
#611=EDGE_CURVE('',#478,#479,#307,.T.);
#612=EDGE_CURVE('',#478,#472,#308,.T.);
#613=EDGE_CURVE('',#474,#479,#309,.T.);
#614=ORIENTED_EDGE('',*,*,#480,.F.);
#615=ORIENTED_EDGE('',*,*,#481,.F.);
#616=ORIENTED_EDGE('',*,*,#482,.T.);
#617=ORIENTED_EDGE('',*,*,#483,.F.);
#618=ORIENTED_EDGE('',*,*,#484,.F.);
#619=ORIENTED_EDGE('',*,*,#485,.F.);
#620=ORIENTED_EDGE('',*,*,#486,.T.);
#621=ORIENTED_EDGE('',*,*,#487,.F.);
#622=ORIENTED_EDGE('',*,*,#488,.F.);
#623=ORIENTED_EDGE('',*,*,#482,.F.);
#624=ORIENTED_EDGE('',*,*,#489,.F.);
#625=ORIENTED_EDGE('',*,*,#486,.F.);
#626=ORIENTED_EDGE('',*,*,#480,.T.);
#627=ORIENTED_EDGE('',*,*,#490,.F.);
#628=ORIENTED_EDGE('',*,*,#491,.F.);
#629=ORIENTED_EDGE('',*,*,#484,.T.);
#630=ORIENTED_EDGE('',*,*,#492,.T.);
#631=ORIENTED_EDGE('',*,*,#493,.T.);
#632=ORIENTED_EDGE('',*,*,#494,.F.);
#633=ORIENTED_EDGE('',*,*,#495,.T.);
#634=ORIENTED_EDGE('',*,*,#490,.T.);
#635=ORIENTED_EDGE('',*,*,#483,.T.);
#636=ORIENTED_EDGE('',*,*,#488,.T.);
#637=ORIENTED_EDGE('',*,*,#485,.T.);
#638=ORIENTED_EDGE('',*,*,#491,.T.);
#639=ORIENTED_EDGE('',*,*,#495,.F.);
#640=ORIENTED_EDGE('',*,*,#481,.T.);
#641=ORIENTED_EDGE('',*,*,#493,.F.);
#642=ORIENTED_EDGE('',*,*,#496,.T.);
#643=ORIENTED_EDGE('',*,*,#497,.F.);
#644=ORIENTED_EDGE('',*,*,#496,.F.);
#645=ORIENTED_EDGE('',*,*,#492,.F.);
#646=ORIENTED_EDGE('',*,*,#487,.T.);
#647=ORIENTED_EDGE('',*,*,#489,.T.);
#648=ORIENTED_EDGE('',*,*,#494,.T.);
#649=ORIENTED_EDGE('',*,*,#497,.T.);
#650=ORIENTED_EDGE('',*,*,#498,.F.);
#651=ORIENTED_EDGE('',*,*,#499,.F.);
#652=ORIENTED_EDGE('',*,*,#500,.F.);
#653=ORIENTED_EDGE('',*,*,#501,.F.);
#654=ORIENTED_EDGE('',*,*,#502,.F.);
#655=ORIENTED_EDGE('',*,*,#503,.F.);
#656=ORIENTED_EDGE('',*,*,#504,.F.);
#657=ORIENTED_EDGE('',*,*,#505,.F.);
#658=ORIENTED_EDGE('',*,*,#506,.F.);
#659=ORIENTED_EDGE('',*,*,#507,.T.);
#660=ORIENTED_EDGE('',*,*,#508,.T.);
#661=ORIENTED_EDGE('',*,*,#501,.T.);
#662=ORIENTED_EDGE('',*,*,#509,.T.);
#663=ORIENTED_EDGE('',*,*,#498,.T.);
#664=ORIENTED_EDGE('',*,*,#510,.T.);
#665=ORIENTED_EDGE('',*,*,#505,.T.);
#666=ORIENTED_EDGE('',*,*,#511,.T.);
#667=ORIENTED_EDGE('',*,*,#507,.F.);
#668=ORIENTED_EDGE('',*,*,#502,.T.);
#669=ORIENTED_EDGE('',*,*,#508,.F.);
#670=ORIENTED_EDGE('',*,*,#511,.F.);
#671=ORIENTED_EDGE('',*,*,#504,.T.);
#672=ORIENTED_EDGE('',*,*,#512,.T.);
#673=ORIENTED_EDGE('',*,*,#513,.T.);
#674=ORIENTED_EDGE('',*,*,#514,.T.);
#675=ORIENTED_EDGE('',*,*,#515,.T.);
#676=ORIENTED_EDGE('',*,*,#503,.T.);
#677=ORIENTED_EDGE('',*,*,#510,.F.);
#678=ORIENTED_EDGE('',*,*,#516,.F.);
#679=ORIENTED_EDGE('',*,*,#517,.T.);
#680=ORIENTED_EDGE('',*,*,#512,.F.);
#681=ORIENTED_EDGE('',*,*,#500,.T.);
#682=ORIENTED_EDGE('',*,*,#515,.F.);
#683=ORIENTED_EDGE('',*,*,#518,.F.);
#684=ORIENTED_EDGE('',*,*,#519,.T.);
#685=ORIENTED_EDGE('',*,*,#509,.F.);
#686=ORIENTED_EDGE('',*,*,#499,.T.);
#687=ORIENTED_EDGE('',*,*,#519,.F.);
#688=ORIENTED_EDGE('',*,*,#520,.F.);
#689=ORIENTED_EDGE('',*,*,#516,.T.);
#690=ORIENTED_EDGE('',*,*,#521,.F.);
#691=ORIENTED_EDGE('',*,*,#522,.T.);
#692=ORIENTED_EDGE('',*,*,#523,.F.);
#693=ORIENTED_EDGE('',*,*,#522,.F.);
#694=ORIENTED_EDGE('',*,*,#518,.T.);
#695=ORIENTED_EDGE('',*,*,#514,.F.);
#696=ORIENTED_EDGE('',*,*,#524,.T.);
#697=ORIENTED_EDGE('',*,*,#521,.T.);
#698=ORIENTED_EDGE('',*,*,#524,.F.);
#699=ORIENTED_EDGE('',*,*,#513,.F.);
#700=ORIENTED_EDGE('',*,*,#517,.F.);
#701=ORIENTED_EDGE('',*,*,#520,.T.);
#702=ORIENTED_EDGE('',*,*,#523,.T.);
#703=ORIENTED_EDGE('',*,*,#525,.T.);
#704=ORIENTED_EDGE('',*,*,#526,.T.);
#705=ORIENTED_EDGE('',*,*,#506,.T.);
#706=ORIENTED_EDGE('',*,*,#526,.F.);
#707=ORIENTED_EDGE('',*,*,#525,.F.);
#708=ORIENTED_EDGE('',*,*,#527,.F.);
#709=ORIENTED_EDGE('',*,*,#528,.T.);
#710=ORIENTED_EDGE('',*,*,#529,.F.);
#711=ORIENTED_EDGE('',*,*,#530,.F.);
#712=ORIENTED_EDGE('',*,*,#531,.F.);
#713=ORIENTED_EDGE('',*,*,#532,.T.);
#714=ORIENTED_EDGE('',*,*,#528,.F.);
#715=ORIENTED_EDGE('',*,*,#533,.T.);
#716=ORIENTED_EDGE('',*,*,#534,.T.);
#717=ORIENTED_EDGE('',*,*,#535,.T.);
#718=ORIENTED_EDGE('',*,*,#536,.F.);
#719=ORIENTED_EDGE('',*,*,#537,.T.);
#720=ORIENTED_EDGE('',*,*,#532,.F.);
#721=ORIENTED_EDGE('',*,*,#538,.T.);
#722=ORIENTED_EDGE('',*,*,#539,.F.);
#723=ORIENTED_EDGE('',*,*,#540,.T.);
#724=ORIENTED_EDGE('',*,*,#541,.T.);
#725=ORIENTED_EDGE('',*,*,#531,.T.);
#726=ORIENTED_EDGE('',*,*,#542,.F.);
#727=ORIENTED_EDGE('',*,*,#543,.F.);
#728=ORIENTED_EDGE('',*,*,#544,.T.);
#729=ORIENTED_EDGE('',*,*,#545,.F.);
#730=ORIENTED_EDGE('',*,*,#538,.F.);
#731=ORIENTED_EDGE('',*,*,#529,.T.);
#732=ORIENTED_EDGE('',*,*,#537,.F.);
#733=ORIENTED_EDGE('',*,*,#546,.F.);
#734=ORIENTED_EDGE('',*,*,#547,.F.);
#735=ORIENTED_EDGE('',*,*,#548,.F.);
#736=ORIENTED_EDGE('',*,*,#549,.T.);
#737=ORIENTED_EDGE('',*,*,#545,.T.);
#738=ORIENTED_EDGE('',*,*,#550,.T.);
#739=ORIENTED_EDGE('',*,*,#551,.T.);
#740=ORIENTED_EDGE('',*,*,#539,.T.);
#741=ORIENTED_EDGE('',*,*,#551,.F.);
#742=ORIENTED_EDGE('',*,*,#552,.F.);
#743=ORIENTED_EDGE('',*,*,#553,.T.);
#744=ORIENTED_EDGE('',*,*,#554,.T.);
#745=ORIENTED_EDGE('',*,*,#540,.F.);
#746=ORIENTED_EDGE('',*,*,#550,.F.);
#747=ORIENTED_EDGE('',*,*,#544,.F.);
#748=ORIENTED_EDGE('',*,*,#555,.F.);
#749=ORIENTED_EDGE('',*,*,#547,.T.);
#750=ORIENTED_EDGE('',*,*,#556,.F.);
#751=ORIENTED_EDGE('',*,*,#557,.T.);
#752=ORIENTED_EDGE('',*,*,#558,.T.);
#753=ORIENTED_EDGE('',*,*,#552,.T.);
#754=ORIENTED_EDGE('',*,*,#546,.T.);
#755=ORIENTED_EDGE('',*,*,#536,.T.);
#756=ORIENTED_EDGE('',*,*,#559,.T.);
#757=ORIENTED_EDGE('',*,*,#556,.T.);
#758=ORIENTED_EDGE('',*,*,#559,.F.);
#759=ORIENTED_EDGE('',*,*,#535,.F.);
#760=ORIENTED_EDGE('',*,*,#560,.T.);
#761=ORIENTED_EDGE('',*,*,#561,.F.);
#762=ORIENTED_EDGE('',*,*,#557,.F.);
#763=ORIENTED_EDGE('',*,*,#527,.T.);
#764=ORIENTED_EDGE('',*,*,#541,.F.);
#765=ORIENTED_EDGE('',*,*,#554,.F.);
#766=ORIENTED_EDGE('',*,*,#562,.F.);
#767=ORIENTED_EDGE('',*,*,#560,.F.);
#768=ORIENTED_EDGE('',*,*,#534,.F.);
#769=ORIENTED_EDGE('',*,*,#563,.T.);
#770=ORIENTED_EDGE('',*,*,#564,.F.);
#771=ORIENTED_EDGE('',*,*,#563,.F.);
#772=ORIENTED_EDGE('',*,*,#533,.F.);
#773=ORIENTED_EDGE('',*,*,#562,.T.);
#774=ORIENTED_EDGE('',*,*,#553,.F.);
#775=ORIENTED_EDGE('',*,*,#558,.F.);
#776=ORIENTED_EDGE('',*,*,#561,.T.);
#777=ORIENTED_EDGE('',*,*,#565,.T.);
#778=ORIENTED_EDGE('',*,*,#564,.T.);
#779=ORIENTED_EDGE('',*,*,#530,.T.);
#780=ORIENTED_EDGE('',*,*,#549,.F.);
#781=ORIENTED_EDGE('',*,*,#566,.F.);
#782=ORIENTED_EDGE('',*,*,#542,.T.);
#783=ORIENTED_EDGE('',*,*,#567,.T.);
#784=ORIENTED_EDGE('',*,*,#568,.T.);
#785=ORIENTED_EDGE('',*,*,#569,.T.);
#786=ORIENTED_EDGE('',*,*,#568,.F.);
#787=ORIENTED_EDGE('',*,*,#567,.F.);
#788=ORIENTED_EDGE('',*,*,#570,.T.);
#789=ORIENTED_EDGE('',*,*,#569,.F.);
#790=ORIENTED_EDGE('',*,*,#571,.T.);
#791=ORIENTED_EDGE('',*,*,#572,.F.);
#792=ORIENTED_EDGE('',*,*,#571,.F.);
#793=ORIENTED_EDGE('',*,*,#572,.T.);
#794=ORIENTED_EDGE('',*,*,#566,.T.);
#795=ORIENTED_EDGE('',*,*,#548,.T.);
#796=ORIENTED_EDGE('',*,*,#555,.T.);
#797=ORIENTED_EDGE('',*,*,#543,.T.);
#798=ORIENTED_EDGE('',*,*,#573,.F.);
#799=ORIENTED_EDGE('',*,*,#574,.F.);
#800=ORIENTED_EDGE('',*,*,#575,.F.);
#801=ORIENTED_EDGE('',*,*,#576,.T.);
#802=ORIENTED_EDGE('',*,*,#577,.F.);
#803=ORIENTED_EDGE('',*,*,#578,.T.);
#804=ORIENTED_EDGE('',*,*,#579,.F.);
#805=ORIENTED_EDGE('',*,*,#580,.F.);
#806=ORIENTED_EDGE('',*,*,#581,.F.);
#807=ORIENTED_EDGE('',*,*,#576,.F.);
#808=ORIENTED_EDGE('',*,*,#582,.F.);
#809=ORIENTED_EDGE('',*,*,#583,.F.);
#810=ORIENTED_EDGE('',*,*,#584,.F.);
#811=ORIENTED_EDGE('',*,*,#585,.F.);
#812=ORIENTED_EDGE('',*,*,#583,.T.);
#813=ORIENTED_EDGE('',*,*,#586,.F.);
#814=ORIENTED_EDGE('',*,*,#587,.F.);
#815=ORIENTED_EDGE('',*,*,#588,.F.);
#816=ORIENTED_EDGE('',*,*,#589,.F.);
#817=ORIENTED_EDGE('',*,*,#590,.F.);
#818=ORIENTED_EDGE('',*,*,#591,.T.);
#819=ORIENTED_EDGE('',*,*,#592,.F.);
#820=ORIENTED_EDGE('',*,*,#593,.F.);
#821=ORIENTED_EDGE('',*,*,#591,.F.);
#822=ORIENTED_EDGE('',*,*,#594,.F.);
#823=ORIENTED_EDGE('',*,*,#595,.F.);
#824=ORIENTED_EDGE('',*,*,#578,.F.);
#825=ORIENTED_EDGE('',*,*,#579,.T.);
#826=ORIENTED_EDGE('',*,*,#595,.T.);
#827=ORIENTED_EDGE('',*,*,#596,.T.);
#828=ORIENTED_EDGE('',*,*,#565,.F.);
#829=ORIENTED_EDGE('',*,*,#596,.F.);
#830=ORIENTED_EDGE('',*,*,#594,.T.);
#831=ORIENTED_EDGE('',*,*,#590,.T.);
#832=ORIENTED_EDGE('',*,*,#597,.F.);
#833=ORIENTED_EDGE('',*,*,#586,.T.);
#834=ORIENTED_EDGE('',*,*,#582,.T.);
#835=ORIENTED_EDGE('',*,*,#575,.T.);
#836=ORIENTED_EDGE('',*,*,#598,.F.);
#837=ORIENTED_EDGE('',*,*,#589,.T.);
#838=ORIENTED_EDGE('',*,*,#599,.T.);
#839=ORIENTED_EDGE('',*,*,#587,.T.);
#840=ORIENTED_EDGE('',*,*,#597,.T.);
#841=ORIENTED_EDGE('',*,*,#580,.T.);
#842=ORIENTED_EDGE('',*,*,#598,.T.);
#843=ORIENTED_EDGE('',*,*,#574,.T.);
#844=ORIENTED_EDGE('',*,*,#600,.T.);
#845=ORIENTED_EDGE('',*,*,#570,.F.);
#846=ORIENTED_EDGE('',*,*,#601,.T.);
#847=ORIENTED_EDGE('',*,*,#592,.T.);
#848=ORIENTED_EDGE('',*,*,#577,.T.);
#849=ORIENTED_EDGE('',*,*,#600,.F.);
#850=ORIENTED_EDGE('',*,*,#573,.T.);
#851=ORIENTED_EDGE('',*,*,#581,.T.);
#852=ORIENTED_EDGE('',*,*,#584,.T.);
#853=ORIENTED_EDGE('',*,*,#585,.T.);
#854=ORIENTED_EDGE('',*,*,#599,.F.);
#855=ORIENTED_EDGE('',*,*,#588,.T.);
#856=ORIENTED_EDGE('',*,*,#593,.T.);
#857=ORIENTED_EDGE('',*,*,#601,.F.);
#858=ORIENTED_EDGE('',*,*,#602,.F.);
#859=ORIENTED_EDGE('',*,*,#603,.T.);
#860=ORIENTED_EDGE('',*,*,#604,.F.);
#861=ORIENTED_EDGE('',*,*,#605,.F.);
#862=ORIENTED_EDGE('',*,*,#606,.F.);
#863=ORIENTED_EDGE('',*,*,#605,.T.);
#864=ORIENTED_EDGE('',*,*,#607,.F.);
#865=ORIENTED_EDGE('',*,*,#608,.F.);
#866=ORIENTED_EDGE('',*,*,#609,.F.);
#867=ORIENTED_EDGE('',*,*,#608,.T.);
#868=ORIENTED_EDGE('',*,*,#610,.F.);
#869=ORIENTED_EDGE('',*,*,#611,.F.);
#870=ORIENTED_EDGE('',*,*,#612,.F.);
#871=ORIENTED_EDGE('',*,*,#611,.T.);
#872=ORIENTED_EDGE('',*,*,#613,.F.);
#873=ORIENTED_EDGE('',*,*,#603,.F.);
#874=ORIENTED_EDGE('',*,*,#613,.T.);
#875=ORIENTED_EDGE('',*,*,#610,.T.);
#876=ORIENTED_EDGE('',*,*,#607,.T.);
#877=ORIENTED_EDGE('',*,*,#604,.T.);
#878=ORIENTED_EDGE('',*,*,#612,.T.);
#879=ORIENTED_EDGE('',*,*,#602,.T.);
#880=ORIENTED_EDGE('',*,*,#606,.T.);
#881=ORIENTED_EDGE('',*,*,#609,.T.);
#882=PLANE('',#1012);
#883=PLANE('',#1013);
#884=PLANE('',#1014);
#885=PLANE('',#1017);
#886=PLANE('',#1026);
#887=PLANE('',#1028);
#888=PLANE('',#1038);
#889=PLANE('',#1041);
#890=PLANE('',#1042);
#891=PLANE('',#1043);
#892=PLANE('',#1049);
#893=PLANE('',#1052);
#894=PLANE('',#1057);
#895=PLANE('',#1060);
#896=PLANE('',#1062);
#897=PLANE('',#1064);
#898=PLANE('',#1068);
#899=PLANE('',#1069);
#900=PLANE('',#1072);
#901=PLANE('',#1076);
#902=PLANE('',#1077);
#903=PLANE('',#1079);
#904=PLANE('',#1083);
#905=PLANE('',#1087);
#906=PLANE('',#1088);
#907=PLANE('',#1089);
#908=PLANE('',#1091);
#909=PLANE('',#1092);
#910=PLANE('',#1097);
#911=PLANE('',#1099);
#912=PLANE('',#1102);
#913=PLANE('',#1103);
#914=PLANE('',#1104);
#915=PLANE('',#1105);
#916=PLANE('',#1106);
#917=PLANE('',#1107);
#918=ADVANCED_FACE('',(#116),#882,.F.);
#919=ADVANCED_FACE('',(#117),#883,.F.);
#920=ADVANCED_FACE('',(#118),#884,.T.);
#921=ADVANCED_FACE('',(#119),#885,.F.);
#922=ADVANCED_FACE('',(#120),#60,.T.);
#923=ADVANCED_FACE('',(#121),#61,.F.);
#924=ADVANCED_FACE('',(#122,#56),#886,.T.);
#925=ADVANCED_FACE('',(#123),#887,.F.);
#926=ADVANCED_FACE('',(#124),#62,.T.);
#927=ADVANCED_FACE('',(#125),#63,.T.);
#928=ADVANCED_FACE('',(#126),#64,.T.);
#929=ADVANCED_FACE('',(#127),#888,.F.);
#930=ADVANCED_FACE('',(#128),#889,.F.);
#931=ADVANCED_FACE('',(#129),#890,.F.);
#932=ADVANCED_FACE('',(#130),#891,.F.);
#933=ADVANCED_FACE('',(#131),#28,.T.);
#934=ADVANCED_FACE('',(#132),#65,.F.);
#935=ADVANCED_FACE('',(#133),#892,.F.);
#936=ADVANCED_FACE('',(#134),#29,.F.);
#937=ADVANCED_FACE('',(#135),#893,.T.);
#938=ADVANCED_FACE('',(#136),#66,.T.);
#939=ADVANCED_FACE('',(#137),#894,.T.);
#940=ADVANCED_FACE('',(#138),#895,.T.);
#941=ADVANCED_FACE('',(#139),#896,.T.);
#942=ADVANCED_FACE('',(#140),#897,.T.);
#943=ADVANCED_FACE('',(#141),#67,.T.);
#944=ADVANCED_FACE('',(#142),#898,.F.);
#945=ADVANCED_FACE('',(#143),#899,.T.);
#946=ADVANCED_FACE('',(#144),#68,.T.);
#947=ADVANCED_FACE('',(#145),#900,.F.);
#948=ADVANCED_FACE('',(#146),#69,.F.);
#949=ADVANCED_FACE('',(#147),#901,.F.);
#950=ADVANCED_FACE('',(#148,#57),#902,.F.);
#951=ADVANCED_FACE('',(#149),#903,.T.);
#952=ADVANCED_FACE('',(#150),#27,.T.);
#953=ADVANCED_FACE('',(#151,#58),#904,.F.);
#954=ADVANCED_FACE('',(#152),#70,.T.);
#955=ADVANCED_FACE('',(#153,#59),#905,.T.);
#956=ADVANCED_FACE('',(#154),#906,.F.);
#957=ADVANCED_FACE('',(#155),#907,.F.);
#958=ADVANCED_FACE('',(#156),#71,.F.);
#959=ADVANCED_FACE('',(#157),#908,.F.);
#960=ADVANCED_FACE('',(#158),#909,.F.);
#961=ADVANCED_FACE('',(#159),#72,.F.);
#962=ADVANCED_FACE('',(#160),#73,.F.);
#963=ADVANCED_FACE('',(#161),#910,.T.);
#964=ADVANCED_FACE('',(#162),#911,.T.);
#965=ADVANCED_FACE('',(#163),#74,.T.);
#966=ADVANCED_FACE('',(#164),#912,.T.);
#967=ADVANCED_FACE('',(#165),#913,.T.);
#968=ADVANCED_FACE('',(#166),#914,.T.);
#969=ADVANCED_FACE('',(#167),#915,.T.);
#970=ADVANCED_FACE('',(#168),#916,.T.);
#971=ADVANCED_FACE('',(#169),#917,.F.);
#972=CLOSED_SHELL('',(#918,#919,#920,#921,#922,#923,#924));
#973=CLOSED_SHELL('',(#925,#926,#927,#928,#929,#930,#931,#932,#933,#934,
#935,#936,#937));
#974=CLOSED_SHELL('',(#938,#939,#940,#941,#942,#943,#944,#945,#946,#947,
#948,#949,#950,#951,#952,#953,#954,#955,#956,#957,#958,#959,#960,#961,#962,
#963,#964,#965));
#975=CLOSED_SHELL('',(#966,#967,#968,#969,#970,#971));
#976=DERIVED_UNIT_ELEMENT(#982,1.);
#977=DERIVED_UNIT_ELEMENT(#1847,-3.);
#978=DERIVED_UNIT_ELEMENT(#982,1.);
#979=DERIVED_UNIT_ELEMENT(#1847,-3.);
#980=DERIVED_UNIT_ELEMENT(#982,1.);
#981=DERIVED_UNIT_ELEMENT(#1847,-3.);
#982=(
MASS_UNIT()
NAMED_UNIT(*)
SI_UNIT(.KILO.,.GRAM.)
);
#983=DERIVED_UNIT((#976,#977));
#984=DERIVED_UNIT((#978,#979));
#985=DERIVED_UNIT((#980,#981));
#986=MEASURE_REPRESENTATION_ITEM('density measure',
POSITIVE_RATIO_MEASURE(7850.),#983);
#987=MEASURE_REPRESENTATION_ITEM('density measure',
POSITIVE_RATIO_MEASURE(7850.),#984);
#988=MEASURE_REPRESENTATION_ITEM('density measure',
POSITIVE_RATIO_MEASURE(7850.),#985);
#989=PROPERTY_DEFINITION_REPRESENTATION(#1004,#995);
#990=PROPERTY_DEFINITION_REPRESENTATION(#1005,#996);
#991=PROPERTY_DEFINITION_REPRESENTATION(#1006,#997);
#992=PROPERTY_DEFINITION_REPRESENTATION(#1007,#998);
#993=PROPERTY_DEFINITION_REPRESENTATION(#1008,#999);
#994=PROPERTY_DEFINITION_REPRESENTATION(#1009,#1000);
#995=REPRESENTATION('material name',(#1001),#1842);
#996=REPRESENTATION('density',(#986),#1842);
#997=REPRESENTATION('material name',(#1002),#1843);
#998=REPRESENTATION('density',(#987),#1843);
#999=REPRESENTATION('material name',(#1003),#1844);
#1000=REPRESENTATION('density',(#988),#1844);
#1001=DESCRIPTIVE_REPRESENTATION_ITEM('Steel','Steel');
#1002=DESCRIPTIVE_REPRESENTATION_ITEM('Steel','Steel');
#1003=DESCRIPTIVE_REPRESENTATION_ITEM('Steel','Steel');
#1004=PROPERTY_DEFINITION('material property','material name',#1867);
#1005=PROPERTY_DEFINITION('material property','density of part',#1867);
#1006=PROPERTY_DEFINITION('material property','material name',#1868);
#1007=PROPERTY_DEFINITION('material property','density of part',#1868);
#1008=PROPERTY_DEFINITION('material property','material name',#1869);
#1009=PROPERTY_DEFINITION('material property','density of part',#1869);
#1010=AXIS2_PLACEMENT_3D('',#1398,#1112,#1113);
#1011=AXIS2_PLACEMENT_3D('',#1399,#1114,#1115);
#1012=AXIS2_PLACEMENT_3D('',#1400,#1116,#1117);
#1013=AXIS2_PLACEMENT_3D('',#1409,#1122,#1123);
#1014=AXIS2_PLACEMENT_3D('',#1418,#1128,#1129);
#1015=AXIS2_PLACEMENT_3D('',#1419,#1130,#1131);
#1016=AXIS2_PLACEMENT_3D('',#1420,#1132,#1133);
#1017=AXIS2_PLACEMENT_3D('',#1421,#1134,#1135);
#1018=AXIS2_PLACEMENT_3D('',#1423,#1136,#1137);
#1019=AXIS2_PLACEMENT_3D('',#1424,#1138,#1139);
#1020=AXIS2_PLACEMENT_3D('',#1426,#1140,#1141);
#1021=AXIS2_PLACEMENT_3D('',#1427,#1142,#1143);
#1022=AXIS2_PLACEMENT_3D('',#1428,#1144,#1145);
#1023=AXIS2_PLACEMENT_3D('',#1430,#1146,#1147);
#1024=AXIS2_PLACEMENT_3D('',#1432,#1149,#1150);
#1025=AXIS2_PLACEMENT_3D('',#1435,#1152,#1153);
#1026=AXIS2_PLACEMENT_3D('',#1436,#1154,#1155);
#1027=AXIS2_PLACEMENT_3D('',#1437,#1156,#1157);
#1028=AXIS2_PLACEMENT_3D('',#1438,#1158,#1159);
#1029=AXIS2_PLACEMENT_3D('',#1441,#1160,#1161);
#1030=AXIS2_PLACEMENT_3D('',#1443,#1163,#1164);
#1031=AXIS2_PLACEMENT_3D('',#1446,#1165,#1166);
#1032=AXIS2_PLACEMENT_3D('',#1459,#1168,#1169);
#1033=AXIS2_PLACEMENT_3D('',#1462,#1170,#1171);
#1034=AXIS2_PLACEMENT_3D('',#1475,#1173,#1174);
#1035=AXIS2_PLACEMENT_3D('',#1477,#1175,#1176);
#1036=AXIS2_PLACEMENT_3D('',#1480,#1178,#1179);
#1037=AXIS2_PLACEMENT_3D('',#1483,#1182,#1183);
#1038=AXIS2_PLACEMENT_3D('',#1484,#1184,#1185);
#1039=AXIS2_PLACEMENT_3D('',#1488,#1187,#1188);
#1040=AXIS2_PLACEMENT_3D('',#1490,#1189,#1190);
#1041=AXIS2_PLACEMENT_3D('',#1492,#1192,#1193);
#1042=AXIS2_PLACEMENT_3D('',#1496,#1196,#1197);
#1043=AXIS2_PLACEMENT_3D('',#1500,#1200,#1201);
#1044=AXIS2_PLACEMENT_3D('',#1501,#1202,#1203);
#1045=AXIS2_PLACEMENT_3D('',#1530,#1204,#1205);
#1046=AXIS2_PLACEMENT_3D('',#1532,#1206,#1207);
#1047=AXIS2_PLACEMENT_3D('',#1533,#1208,#1209);
#1048=AXIS2_PLACEMENT_3D('',#1534,#1210,#1211);
#1049=AXIS2_PLACEMENT_3D('',#1536,#1213,#1214);
#1050=AXIS2_PLACEMENT_3D('',#1565,#1215,#1216);
#1051=AXIS2_PLACEMENT_3D('',#1566,#1217,#1218);
#1052=AXIS2_PLACEMENT_3D('',#1567,#1219,#1220);
#1053=AXIS2_PLACEMENT_3D('',#1568,#1221,#1222);
#1054=AXIS2_PLACEMENT_3D('',#1569,#1223,#1224);
#1055=AXIS2_PLACEMENT_3D('',#1589,#1226,#1227);
#1056=AXIS2_PLACEMENT_3D('',#1593,#1229,#1230);
#1057=AXIS2_PLACEMENT_3D('',#1595,#1232,#1233);
#1058=AXIS2_PLACEMENT_3D('',#1597,#1234,#1235);
#1059=AXIS2_PLACEMENT_3D('',#1599,#1236,#1237);
#1060=AXIS2_PLACEMENT_3D('',#1605,#1241,#1242);
#1061=AXIS2_PLACEMENT_3D('',#1612,#1246,#1247);
#1062=AXIS2_PLACEMENT_3D('',#1613,#1248,#1249);
#1063=AXIS2_PLACEMENT_3D('',#1620,#1253,#1254);
#1064=AXIS2_PLACEMENT_3D('',#1621,#1255,#1256);
#1065=AXIS2_PLACEMENT_3D('',#1623,#1257,#1258);
#1066=AXIS2_PLACEMENT_3D('',#1629,#1262,#1263);
#1067=AXIS2_PLACEMENT_3D('',#1632,#1265,#1266);
#1068=AXIS2_PLACEMENT_3D('',#1633,#1267,#1268);
#1069=AXIS2_PLACEMENT_3D('',#1639,#1272,#1273);
#1070=AXIS2_PLACEMENT_3D('',#1646,#1278,#1279);
#1071=AXIS2_PLACEMENT_3D('',#1647,#1280,#1281);
#1072=AXIS2_PLACEMENT_3D('',#1648,#1282,#1283);
#1073=AXIS2_PLACEMENT_3D('',#1652,#1286,#1287);
#1074=AXIS2_PLACEMENT_3D('',#1653,#1288,#1289);
#1075=AXIS2_PLACEMENT_3D('',#1656,#1291,#1292);
#1076=AXIS2_PLACEMENT_3D('',#1657,#1293,#1294);
#1077=AXIS2_PLACEMENT_3D('',#1658,#1295,#1296);
#1078=AXIS2_PLACEMENT_3D('',#1660,#1297,#1298);
#1079=AXIS2_PLACEMENT_3D('',#1661,#1299,#1300);
#1080=AXIS2_PLACEMENT_3D('',#1663,#1302,#1303);
#1081=AXIS2_PLACEMENT_3D('',#1665,#1304,#1305);
#1082=AXIS2_PLACEMENT_3D('',#1668,#1307,#1308);
#1083=AXIS2_PLACEMENT_3D('',#1669,#1309,#1310);
#1084=AXIS2_PLACEMENT_3D('',#1671,#1311,#1312);
#1085=AXIS2_PLACEMENT_3D('',#1672,#1313,#1314);
#1086=AXIS2_PLACEMENT_3D('',#1675,#1316,#1317);
#1087=AXIS2_PLACEMENT_3D('',#1676,#1318,#1319);
#1088=AXIS2_PLACEMENT_3D('',#1677,#1320,#1321);
#1089=AXIS2_PLACEMENT_3D('',#1686,#1326,#1327);
#1090=AXIS2_PLACEMENT_3D('',#1695,#1332,#1333);
#1091=AXIS2_PLACEMENT_3D('',#1738,#1335,#1336);
#1092=AXIS2_PLACEMENT_3D('',#1744,#1340,#1341);
#1093=AXIS2_PLACEMENT_3D('',#1753,#1346,#1347);
#1094=AXIS2_PLACEMENT_3D('',#1796,#1348,#1349);
#1095=AXIS2_PLACEMENT_3D('',#1798,#1351,#1352);
#1096=AXIS2_PLACEMENT_3D('',#1799,#1353,#1354);
#1097=AXIS2_PLACEMENT_3D('',#1800,#1355,#1356);
#1098=AXIS2_PLACEMENT_3D('',#1801,#1357,#1358);
#1099=AXIS2_PLACEMENT_3D('',#1802,#1359,#1360);
#1100=AXIS2_PLACEMENT_3D('',#1803,#1361,#1362);
#1101=AXIS2_PLACEMENT_3D('',#1804,#1363,#1364);
#1102=AXIS2_PLACEMENT_3D('',#1806,#1366,#1367);
#1103=AXIS2_PLACEMENT_3D('',#1815,#1372,#1373);
#1104=AXIS2_PLACEMENT_3D('',#1821,#1377,#1378);
#1105=AXIS2_PLACEMENT_3D('',#1827,#1382,#1383);
#1106=AXIS2_PLACEMENT_3D('',#1830,#1386,#1387);
#1107=AXIS2_PLACEMENT_3D('',#1831,#1388,#1389);
#1108=AXIS2_PLACEMENT_3D('',#1832,#1390,#1391);
#1109=AXIS2_PLACEMENT_3D('',#1833,#1392,#1393);
#1110=AXIS2_PLACEMENT_3D('',#1834,#1394,#1395);
#1111=AXIS2_PLACEMENT_3D('',#1835,#1396,#1397);
#1112=DIRECTION('axis',(0.,0.,1.));
#1113=DIRECTION('refdir',(1.,0.,0.));
#1114=DIRECTION('axis',(0.,0.,1.));
#1115=DIRECTION('refdir',(1.,0.,0.));
#1116=DIRECTION('center_axis',(0.,-1.,-8.34926528234377E-17));
#1117=DIRECTION('ref_axis',(0.,8.34926528234377E-17,-1.));
#1118=DIRECTION('',(0.,8.34926528234377E-17,-1.));
#1119=DIRECTION('',(-1.,0.,0.));
#1120=DIRECTION('',(0.,8.34926528234377E-17,-1.));
#1121=DIRECTION('',(1.,0.,0.));
#1122=DIRECTION('center_axis',(0.,-1.,-5.90478371404489E-16));
#1123=DIRECTION('ref_axis',(0.,5.90478371404489E-16,-1.));
#1124=DIRECTION('',(0.,5.90478371404489E-16,-1.));
#1125=DIRECTION('',(-1.,0.,0.));
#1126=DIRECTION('',(0.,5.90478371404489E-16,-1.));
#1127=DIRECTION('',(1.,0.,0.));
#1128=DIRECTION('center_axis',(-1.,0.,0.));
#1129=DIRECTION('ref_axis',(0.,-1.,0.));
#1130=DIRECTION('center_axis',(1.,0.,0.));
#1131=DIRECTION('ref_axis',(0.,1.,0.));
#1132=DIRECTION('center_axis',(-1.,0.,0.));
#1133=DIRECTION('ref_axis',(0.,1.,0.));
#1134=DIRECTION('center_axis',(1.,0.,0.));
#1135=DIRECTION('ref_axis',(0.,1.,0.));
#1136=DIRECTION('center_axis',(1.,0.,0.));
#1137=DIRECTION('ref_axis',(0.,1.,0.));
#1138=DIRECTION('center_axis',(1.,0.,0.));
#1139=DIRECTION('ref_axis',(0.,1.,0.));
#1140=DIRECTION('center_axis',(1.,0.,0.));
#1141=DIRECTION('ref_axis',(0.,1.,0.));
#1142=DIRECTION('center_axis',(1.,0.,0.));
#1143=DIRECTION('ref_axis',(0.,1.,0.));
#1144=DIRECTION('center_axis',(1.,0.,0.));
#1145=DIRECTION('ref_axis',(0.,1.,0.));
#1146=DIRECTION('center_axis',(1.,0.,0.));
#1147=DIRECTION('ref_axis',(0.,1.,0.));
#1148=DIRECTION('',(-1.,0.,0.));
#1149=DIRECTION('center_axis',(1.,0.,0.));
#1150=DIRECTION('ref_axis',(0.,1.,0.));
#1151=DIRECTION('',(1.,0.,0.));
#1152=DIRECTION('center_axis',(-1.,0.,0.));
#1153=DIRECTION('ref_axis',(0.,1.,0.));
#1154=DIRECTION('center_axis',(1.,0.,0.));
#1155=DIRECTION('ref_axis',(0.,1.,0.));
#1156=DIRECTION('axis',(0.,0.,1.));
#1157=DIRECTION('refdir',(1.,0.,0.));
#1158=DIRECTION('center_axis',(-0.707106781186547,0.,0.707106781186548));
#1159=DIRECTION('ref_axis',(0.707106781186548,0.,0.707106781186547));
#1160=DIRECTION('center_axis',(-0.707106781186547,0.,0.707106781186548));
#1161=DIRECTION('ref_axis',(0.707106781186548,0.,0.707106781186547));
#1162=DIRECTION('',(0.,-1.,0.));
#1163=DIRECTION('center_axis',(0.,1.,0.));
#1164=DIRECTION('ref_axis',(-0.0393618326698867,0.,-0.99922502276958));
#1165=DIRECTION('center_axis',(0.,1.,0.));
#1166=DIRECTION('ref_axis',(-0.0393618326698867,0.,-0.99922502276958));
#1167=DIRECTION('',(0.,-1.,0.));
#1168=DIRECTION('center_axis',(0.,1.,0.));
#1169=DIRECTION('ref_axis',(-0.0393618326698867,0.,-0.99922502276958));
#1170=DIRECTION('center_axis',(0.,-1.,0.));
#1171=DIRECTION('ref_axis',(-0.0393618326698867,0.,-0.99922502276958));
#1172=DIRECTION('',(0.,-1.,0.));
#1173=DIRECTION('center_axis',(0.,0.,1.));
#1174=DIRECTION('ref_axis',(1.,0.,0.));
#1175=DIRECTION('center_axis',(0.,0.,1.));
#1176=DIRECTION('ref_axis',(1.,0.,0.));
#1177=DIRECTION('',(0.,0.,-1.));
#1178=DIRECTION('center_axis',(0.,0.,1.));
#1179=DIRECTION('ref_axis',(1.,0.,0.));
#1180=DIRECTION('',(0.,0.,1.));
#1181=DIRECTION('',(0.,0.,-1.));
#1182=DIRECTION('center_axis',(0.,0.,1.));
#1183=DIRECTION('ref_axis',(1.,0.,0.));
#1184=DIRECTION('center_axis',(0.,0.,1.));
#1185=DIRECTION('ref_axis',(1.,0.,0.));
#1186=DIRECTION('',(-1.,0.,0.));
#1187=DIRECTION('center_axis',(0.,0.,1.));
#1188=DIRECTION('ref_axis',(1.,0.,0.));
#1189=DIRECTION('center_axis',(0.,0.,1.));
#1190=DIRECTION('ref_axis',(1.,0.,0.));
#1191=DIRECTION('',(1.,0.,0.));
#1192=DIRECTION('center_axis',(0.,1.,0.));
#1193=DIRECTION('ref_axis',(0.,0.,1.));
#1194=DIRECTION('',(1.,0.,0.));
#1195=DIRECTION('',(0.,0.,-1.));
#1196=DIRECTION('center_axis',(0.,-1.,0.));
#1197=DIRECTION('ref_axis',(0.,0.,-1.));
#1198=DIRECTION('',(0.,0.,-1.));
#1199=DIRECTION('',(1.,0.,0.));
#1200=DIRECTION('center_axis',(0.,0.,1.));
#1201=DIRECTION('ref_axis',(0.,-1.,0.));
#1202=DIRECTION('center_axis',(0.,0.,-1.));
#1203=DIRECTION('ref_axis',(1.,0.,0.));
#1204=DIRECTION('center_axis',(0.,0.,1.));
#1205=DIRECTION('ref_axis',(1.,0.,0.));
#1206=DIRECTION('center_axis',(-1.22464679914735E-16,1.,0.));
#1207=DIRECTION('ref_axis',(-1.,-1.22464679914735E-16,0.));
#1208=DIRECTION('center_axis',(0.,0.,-1.));
#1209=DIRECTION('ref_axis',(1.,0.,0.));
#1210=DIRECTION('center_axis',(0.,0.,1.));
#1211=DIRECTION('ref_axis',(1.,0.,0.));
#1212=DIRECTION('',(0.,0.,1.));
#1213=DIRECTION('center_axis',(0.,0.,1.));
#1214=DIRECTION('ref_axis',(1.,0.,0.));
#1215=DIRECTION('center_axis',(0.,0.,-1.));
#1216=DIRECTION('ref_axis',(1.,0.,0.));
#1217=DIRECTION('center_axis',(1.22464679914735E-16,-1.,0.));
#1218=DIRECTION('ref_axis',(-1.,-1.22464679914735E-16,0.));
#1219=DIRECTION('center_axis',(0.,0.,1.));
#1220=DIRECTION('ref_axis',(1.,0.,0.));
#1221=DIRECTION('axis',(0.,0.,1.));
#1222=DIRECTION('refdir',(1.,0.,0.));
#1223=DIRECTION('center_axis',(0.,-1.,0.));
#1224=DIRECTION('ref_axis',(-6.34413156928661E-16,0.,-1.));
#1225=DIRECTION('',(0.,1.,0.));
#1226=DIRECTION('center_axis',(0.,1.,0.));
#1227=DIRECTION('ref_axis',(-6.34413156928661E-16,0.,-1.));
#1228=DIRECTION('',(0.,1.,0.));
#1229=DIRECTION('center_axis',(0.,-1.,0.));
#1230=DIRECTION('ref_axis',(-6.34413156928661E-16,0.,-1.));
#1231=DIRECTION('',(0.,1.,0.));
#1232=DIRECTION('center_axis',(-1.,0.,0.));
#1233=DIRECTION('ref_axis',(0.,0.,1.));
#1234=DIRECTION('center_axis',(1.,0.,0.));
#1235=DIRECTION('ref_axis',(0.,-1.,0.));
#1236=DIRECTION('center_axis',(1.,0.,0.));
#1237=DIRECTION('ref_axis',(0.,-1.,0.));
#1238=DIRECTION('',(0.,0.,1.));
#1239=DIRECTION('',(0.,-1.,0.));
#1240=DIRECTION('',(0.,0.,-1.));
#1241=DIRECTION('center_axis',(-1.,0.,0.));
#1242=DIRECTION('ref_axis',(0.,0.,1.));
#1243=DIRECTION('',(0.,0.,1.));
#1244=DIRECTION('',(0.,-1.,0.));
#1245=DIRECTION('',(0.,0.,-1.));
#1246=DIRECTION('center_axis',(1.,0.,0.));
#1247=DIRECTION('ref_axis',(0.,-1.,0.));
#1248=DIRECTION('center_axis',(0.,-1.,0.));
#1249=DIRECTION('ref_axis',(0.,0.,1.));
#1250=DIRECTION('',(-1.,0.,0.));
#1251=DIRECTION('',(0.,0.,-1.));
#1252=DIRECTION('',(-1.,0.,0.));
#1253=DIRECTION('center_axis',(0.,1.,0.));
#1254=DIRECTION('ref_axis',(-0.707106781186548,0.,0.707106781186548));
#1255=DIRECTION('center_axis',(0.,1.,0.));
#1256=DIRECTION('ref_axis',(0.,0.,-1.));
#1257=DIRECTION('center_axis',(0.,-1.,0.));
#1258=DIRECTION('ref_axis',(-0.707106781186548,0.,0.707106781186548));
#1259=DIRECTION('',(-1.,0.,0.));
#1260=DIRECTION('',(0.,0.,1.));
#1261=DIRECTION('',(-1.,0.,0.));
#1262=DIRECTION('center_axis',(0.,1.,0.));
#1263=DIRECTION('ref_axis',(-0.707106781186548,0.,0.707106781186548));
#1264=DIRECTION('',(0.,1.,0.));
#1265=DIRECTION('center_axis',(0.,-1.,0.));
#1266=DIRECTION('ref_axis',(-0.707106781186548,0.,0.707106781186548));
#1267=DIRECTION('center_axis',(0.,-1.,0.));
#1268=DIRECTION('ref_axis',(-1.,0.,0.));
#1269=DIRECTION('',(-1.,0.,0.));
#1270=DIRECTION('',(0.,0.,-1.));
#1271=DIRECTION('',(-1.,0.,0.));
#1272=DIRECTION('center_axis',(0.,0.,1.));
#1273=DIRECTION('ref_axis',(0.,1.,0.));
#1274=DIRECTION('',(0.,-1.,0.));
#1275=DIRECTION('',(0.,1.,0.));
#1276=DIRECTION('',(1.,0.,0.));
#1277=DIRECTION('',(0.,-1.,0.));
#1278=DIRECTION('center_axis',(0.,1.,0.));
#1279=DIRECTION('ref_axis',(-0.707106781186548,0.,0.707106781186548));
#1280=DIRECTION('center_axis',(0.,1.,0.));
#1281=DIRECTION('ref_axis',(-0.707106781186548,0.,0.707106781186548));
#1282=DIRECTION('center_axis',(0.,1.,0.));
#1283=DIRECTION('ref_axis',(1.,0.,0.));
#1284=DIRECTION('',(1.,0.,0.));
#1285=DIRECTION('',(0.,0.,-1.));
#1286=DIRECTION('center_axis',(1.,0.,0.));
#1287=DIRECTION('ref_axis',(0.,-1.,0.));
#1288=DIRECTION('center_axis',(1.,0.,0.));
#1289=DIRECTION('ref_axis',(0.,-1.,0.));
#1290=DIRECTION('',(1.,0.,0.));
#1291=DIRECTION('center_axis',(-1.,0.,0.));
#1292=DIRECTION('ref_axis',(0.,-1.,0.));
#1293=DIRECTION('center_axis',(1.,0.,0.));
#1294=DIRECTION('ref_axis',(0.,-1.,0.));
#1295=DIRECTION('center_axis',(-1.,0.,0.));
#1296=DIRECTION('ref_axis',(0.,-1.,0.));
#1297=DIRECTION('center_axis',(1.,0.,0.));
#1298=DIRECTION('ref_axis',(0.,1.,0.));
#1299=DIRECTION('center_axis',(0.,0.,-1.));
#1300=DIRECTION('ref_axis',(0.,-1.,0.));
#1301=DIRECTION('',(0.,1.,0.));
#1302=DIRECTION('center_axis',(-1.,0.,0.));
#1303=DIRECTION('ref_axis',(0.,-1.,0.));
#1304=DIRECTION('center_axis',(-1.,0.,0.));
#1305=DIRECTION('ref_axis',(0.,-1.,0.));
#1306=DIRECTION('',(-0.707106781186548,0.707106781186548,8.65956056235493E-17));
#1307=DIRECTION('center_axis',(1.,0.,0.));
#1308=DIRECTION('ref_axis',(0.,-1.,0.));
#1309=DIRECTION('center_axis',(-1.,0.,0.));
#1310=DIRECTION('ref_axis',(0.,-1.,0.));
#1311=DIRECTION('center_axis',(-1.,0.,0.));
#1312=DIRECTION('ref_axis',(0.,1.,0.));
#1313=DIRECTION('center_axis',(1.,0.,0.));
#1314=DIRECTION('ref_axis',(0.,-1.,0.));
#1315=DIRECTION('',(-1.,0.,0.));
#1316=DIRECTION('center_axis',(-1.,0.,0.));
#1317=DIRECTION('ref_axis',(0.,-1.,0.));
#1318=DIRECTION('center_axis',(-1.,0.,0.));
#1319=DIRECTION('ref_axis',(0.,-1.,0.));
#1320=DIRECTION('center_axis',(0.,0.,1.));
#1321=DIRECTION('ref_axis',(1.,0.,0.));
#1322=DIRECTION('',(-1.,0.,0.));
#1323=DIRECTION('',(0.,1.,0.));
#1324=DIRECTION('',(1.,0.,0.));
#1325=DIRECTION('',(0.,1.,0.));
#1326=DIRECTION('center_axis',(0.,0.,1.));
#1327=DIRECTION('ref_axis',(1.,0.,0.));
#1328=DIRECTION('',(1.,0.,0.));
#1329=DIRECTION('',(0.,1.,0.));
#1330=DIRECTION('',(-1.,0.,0.));
#1331=DIRECTION('',(0.,1.,0.));
#1332=DIRECTION('center_axis',(0.,1.,0.));
#1333=DIRECTION('ref_axis',(0.,0.,-1.));
#1334=DIRECTION('',(0.,-1.,0.));
#1335=DIRECTION('center_axis',(0.,0.,-1.));
#1336=DIRECTION('ref_axis',(-1.,0.,0.));
#1337=DIRECTION('',(1.,0.,0.));
#1338=DIRECTION('',(-1.,0.,0.));
#1339=DIRECTION('',(0.,-1.,0.));
#1340=DIRECTION('center_axis',(0.,0.,-1.));
#1341=DIRECTION('ref_axis',(-1.,0.,0.));
#1342=DIRECTION('',(-1.,0.,0.));
#1343=DIRECTION('',(0.,-1.,0.));
#1344=DIRECTION('',(1.,0.,0.));
#1345=DIRECTION('',(0.,-1.,0.));
#1346=DIRECTION('center_axis',(0.,1.,0.));
#1347=DIRECTION('ref_axis',(0.,0.,-1.));
#1348=DIRECTION('center_axis',(-1.,0.,0.));
#1349=DIRECTION('ref_axis',(0.,1.,0.));
#1350=DIRECTION('',(-1.,0.,0.));
#1351=DIRECTION('center_axis',(-1.,0.,0.));
#1352=DIRECTION('ref_axis',(0.,1.,0.));
#1353=DIRECTION('center_axis',(-1.,0.,0.));
#1354=DIRECTION('ref_axis',(0.,1.,0.));
#1355=DIRECTION('center_axis',(1.,0.,0.));
#1356=DIRECTION('ref_axis',(0.,1.,0.));
#1357=DIRECTION('center_axis',(1.,0.,0.));
#1358=DIRECTION('ref_axis',(0.,1.,0.));
#1359=DIRECTION('center_axis',(1.,0.,0.));
#1360=DIRECTION('ref_axis',(0.,1.,0.));
#1361=DIRECTION('center_axis',(1.,0.,0.));
#1362=DIRECTION('ref_axis',(0.,1.,0.));
#1363=DIRECTION('center_axis',(-1.,0.,0.));
#1364=DIRECTION('ref_axis',(0.,1.,0.));
#1365=DIRECTION('',(1.,0.,0.));
#1366=DIRECTION('center_axis',(1.,0.,0.));
#1367=DIRECTION('ref_axis',(0.,1.,0.));
#1368=DIRECTION('',(0.,-1.,0.));
#1369=DIRECTION('',(0.,0.,1.));
#1370=DIRECTION('',(0.,1.,0.));
#1371=DIRECTION('',(0.,0.,1.));
#1372=DIRECTION('center_axis',(0.,-1.,0.));
#1373=DIRECTION('ref_axis',(1.,0.,0.));
#1374=DIRECTION('',(-1.,0.,0.));
#1375=DIRECTION('',(1.,0.,0.));
#1376=DIRECTION('',(0.,0.,1.));
#1377=DIRECTION('center_axis',(-1.,0.,0.));
#1378=DIRECTION('ref_axis',(0.,-1.,0.));
#1379=DIRECTION('',(0.,1.,0.));
#1380=DIRECTION('',(0.,-1.,0.));
#1381=DIRECTION('',(0.,0.,1.));
#1382=DIRECTION('center_axis',(0.,1.,0.));
#1383=DIRECTION('ref_axis',(-1.,0.,0.));
#1384=DIRECTION('',(1.,0.,0.));
#1385=DIRECTION('',(-1.,0.,0.));
#1386=DIRECTION('center_axis',(0.,0.,1.));
#1387=DIRECTION('ref_axis',(1.,0.,0.));
#1388=DIRECTION('center_axis',(0.,0.,1.));
#1389=DIRECTION('ref_axis',(1.,0.,0.));
#1390=DIRECTION('',(0.,0.,1.));
#1391=DIRECTION('',(1.,0.,0.));
#1392=DIRECTION('',(-5.55111512312578E-17,0.,0.999999999999998));
#1393=DIRECTION('',(0.999999999999999,0.,5.55111512312579E-17));
#1394=DIRECTION('',(0.,0.,1.));
#1395=DIRECTION('',(1.,0.,0.));
#1396=DIRECTION('center_axis',(0.,0.,1.));
#1397=DIRECTION('ref_axis',(1.,0.,0.));
#1398=CARTESIAN_POINT('',(0.,0.,0.));
#1399=CARTESIAN_POINT('',(0.,0.,0.));
#1400=CARTESIAN_POINT('Origin',(0.,1.06461372137721E-15,-5.25));
#1401=CARTESIAN_POINT('',(0.,1.06461372137721E-15,-5.25));
#1402=CARTESIAN_POINT('',(0.,1.14810637420064E-15,-6.25));
#1403=CARTESIAN_POINT('',(0.,8.45445507715682E-16,-2.625));
#1404=CARTESIAN_POINT('',(3.,1.06461372137721E-15,-5.25));
#1405=CARTESIAN_POINT('',(0.,1.06461372137721E-15,-5.25));
#1406=CARTESIAN_POINT('',(3.,1.14810637420064E-15,-6.25));
#1407=CARTESIAN_POINT('',(3.,1.06461372137721E-15,-5.25));
#1408=CARTESIAN_POINT('',(0.,1.14810637420064E-15,-6.25));
#1409=CARTESIAN_POINT('Origin',(0.,0.,6.25));
#1410=CARTESIAN_POINT('',(0.,0.,6.25));
#1411=CARTESIAN_POINT('',(0.,5.90478371404489E-16,5.25));
#1412=CARTESIAN_POINT('',(0.,1.84524491063903E-15,3.125));
#1413=CARTESIAN_POINT('',(3.,0.,6.25));
#1414=CARTESIAN_POINT('',(0.,0.,6.25));
#1415=CARTESIAN_POINT('',(3.,5.90478371404489E-16,5.25));
#1416=CARTESIAN_POINT('',(3.,0.,6.25));
#1417=CARTESIAN_POINT('',(0.,5.90478371404489E-16,5.25));
#1418=CARTESIAN_POINT('Origin',(3.,3.125,0.));
#1419=CARTESIAN_POINT('Origin',(3.,0.,0.));
#1420=CARTESIAN_POINT('Origin',(3.,0.,0.));
#1421=CARTESIAN_POINT('Origin',(0.,0.,0.));
#1422=CARTESIAN_POINT('',(0.,-6.25,-7.65404249467096E-16));
#1423=CARTESIAN_POINT('Origin',(0.,0.,0.));
#1424=CARTESIAN_POINT('Origin',(0.,0.,0.));
#1425=CARTESIAN_POINT('',(0.,-5.25,-6.42939569552361E-16));
#1426=CARTESIAN_POINT('Origin',(0.,0.,0.));
#1427=CARTESIAN_POINT('Origin',(0.,0.,0.));
#1428=CARTESIAN_POINT('Origin',(0.,0.,0.));
#1429=CARTESIAN_POINT('',(12.,-6.25,-7.65404249467096E-16));
#1430=CARTESIAN_POINT('Origin',(12.,0.,0.));
#1431=CARTESIAN_POINT('',(0.,-6.25,-7.65404249467096E-16));
#1432=CARTESIAN_POINT('Origin',(0.,0.,0.));
#1433=CARTESIAN_POINT('',(12.,-5.25,6.42939569552361E-16));
#1434=CARTESIAN_POINT('',(0.,-5.25,-6.42939569552361E-16));
#1435=CARTESIAN_POINT('Origin',(12.,0.,0.));
#1436=CARTESIAN_POINT('Origin',(12.,0.,0.));
#1437=CARTESIAN_POINT('',(0.,0.,0.));
#1438=CARTESIAN_POINT('Origin',(4.79583152331272,4.75,11.5));
#1439=CARTESIAN_POINT('',(4.79583152331272,-4.75,11.5));
#1440=CARTESIAN_POINT('',(4.79583152331272,4.75,11.5));
#1441=CARTESIAN_POINT('Origin',(0.,0.,6.70416847668728));
#1442=CARTESIAN_POINT('',(4.79583152331272,4.75,11.5));
#1443=CARTESIAN_POINT('Origin',(0.94742917723539,4.75,3.84840234607733));
#1444=CARTESIAN_POINT('',(4.79583152331272,-4.75,3.69680469215466));
#1445=CARTESIAN_POINT('',(1.09902683115806,-4.75,0.));
#1446=CARTESIAN_POINT('Origin',(0.94742917723539,-4.75,3.84840234607733));
#1447=CARTESIAN_POINT('',(1.09902683115806,-6.65992792936941,0.));
#1448=CARTESIAN_POINT('Ctrl Pts',(1.09902683115806,-6.65992792936941,3.12250225675825E-16));
#1449=CARTESIAN_POINT('Ctrl Pts',(1.56682699753786,-6.58273115788418,0.0184277529609394));
#1450=CARTESIAN_POINT('Ctrl Pts',(2.04142893094084,-6.450461713867,0.126114033570175));
#1451=CARTESIAN_POINT('Ctrl Pts',(2.94769833936197,-6.09390394995535,0.516557308496421));
#1452=CARTESIAN_POINT('Ctrl Pts',(3.36999552283736,-5.86194935973581,0.817110001128369));
#1453=CARTESIAN_POINT('Ctrl Pts',(4.02294878456166,-5.43382419844249,1.48488600793263));
#1454=CARTESIAN_POINT('Ctrl Pts',(4.30680029431994,-5.20400320718157,1.89894017736136));
#1455=CARTESIAN_POINT('Ctrl Pts',(4.67525102070785,-4.87436102571382,2.78009467713228));
#1456=CARTESIAN_POINT('Ctrl Pts',(4.77782583620991,-4.7681794193277,3.23971893458394));
#1457=CARTESIAN_POINT('Ctrl Pts',(4.79583152331272,-4.75,3.69680469215466));
#1458=CARTESIAN_POINT('',(1.09902683115806,4.75,0.));
#1459=CARTESIAN_POINT('Origin',(0.94742917723539,4.75,3.84840234607733));
#1460=CARTESIAN_POINT('',(1.09902683115806,4.75,0.));
#1461=CARTESIAN_POINT('',(4.79583152331272,4.75,3.69680469215466));
#1462=CARTESIAN_POINT('Origin',(0.94742917723539,4.75,3.84840234607733));
#1463=CARTESIAN_POINT('',(1.09902683115806,6.65992792936941,0.));
#1464=CARTESIAN_POINT('',(1.09902683115806,4.75,0.));
#1465=CARTESIAN_POINT('Ctrl Pts',(4.79583152331272,4.75,3.69680469215466));
#1466=CARTESIAN_POINT('Ctrl Pts',(4.77782583620991,4.7681794193277,3.23971893458395));
#1467=CARTESIAN_POINT('Ctrl Pts',(4.67525102070785,4.87436102571382,2.78009467713228));
#1468=CARTESIAN_POINT('Ctrl Pts',(4.30680029431994,5.20400320718157,1.89894017736137));
#1469=CARTESIAN_POINT('Ctrl Pts',(4.02294878456166,5.43382419844249,1.48488600793263));
#1470=CARTESIAN_POINT('Ctrl Pts',(3.36999552283736,5.8619493597358,0.817110001128369));
#1471=CARTESIAN_POINT('Ctrl Pts',(2.94769833936197,6.09390394995535,0.51655730849642));
#1472=CARTESIAN_POINT('Ctrl Pts',(2.04142893094084,6.450461713867,0.126114033570175));
#1473=CARTESIAN_POINT('Ctrl Pts',(1.56682699753786,6.58273115788418,0.0184277529609393));
#1474=CARTESIAN_POINT('Ctrl Pts',(1.09902683115806,6.65992792936941,2.42861286636753E-16));
#1475=CARTESIAN_POINT('Origin',(0.,0.,0.));
#1476=CARTESIAN_POINT('',(-6.75,-8.26636589424463E-16,170.5));
#1477=CARTESIAN_POINT('Origin',(0.,0.,170.5));
#1478=CARTESIAN_POINT('',(-6.75,-8.26636589424463E-16,0.));
#1479=CARTESIAN_POINT('',(-6.75,-8.26636589424463E-16,0.));
#1480=CARTESIAN_POINT('Origin',(0.,0.,0.));
#1481=CARTESIAN_POINT('',(4.79583152331272,-4.75,0.));
#1482=CARTESIAN_POINT('',(4.79583152331272,4.75,0.));
#1483=CARTESIAN_POINT('Origin',(0.,0.,0.));
#1484=CARTESIAN_POINT('Origin',(0.,0.,0.));
#1485=CARTESIAN_POINT('',(0.,4.75,0.));
#1486=CARTESIAN_POINT('',(0.,4.75,0.));
#1487=CARTESIAN_POINT('',(-4.75,-5.81707229594993E-16,0.));
#1488=CARTESIAN_POINT('Origin',(0.,0.,0.));
#1489=CARTESIAN_POINT('',(0.,-4.75,0.));
#1490=CARTESIAN_POINT('Origin',(0.,0.,0.));
#1491=CARTESIAN_POINT('',(0.,-4.75,0.));
#1492=CARTESIAN_POINT('Origin',(0.,4.75,0.));
#1493=CARTESIAN_POINT('',(0.,4.75,11.5));
#1494=CARTESIAN_POINT('',(0.,4.75,11.5));
#1495=CARTESIAN_POINT('',(0.,4.75,0.));
#1496=CARTESIAN_POINT('Origin',(0.,-4.75,11.5));
#1497=CARTESIAN_POINT('',(0.,-4.75,11.5));
#1498=CARTESIAN_POINT('',(0.,-4.75,0.));
#1499=CARTESIAN_POINT('',(0.,-4.75,11.5));
#1500=CARTESIAN_POINT('Origin',(0.,4.75,11.5));
#1501=CARTESIAN_POINT('Origin',(0.,0.,11.5));
#1502=CARTESIAN_POINT('Ctrl Pts',(-4.75,0.,170.5));
#1503=CARTESIAN_POINT('Ctrl Pts',(-4.75,-4.75,170.5));
#1504=CARTESIAN_POINT('Ctrl Pts',(0.,-4.75,170.5));
#1505=CARTESIAN_POINT('Ctrl Pts',(4.75,-4.75,170.5));
#1506=CARTESIAN_POINT('Ctrl Pts',(4.75,0.,170.5));
#1507=CARTESIAN_POINT('Ctrl Pts',(4.75,4.75,170.5));
#1508=CARTESIAN_POINT('Ctrl Pts',(0.,4.75,170.5));
#1509=CARTESIAN_POINT('Ctrl Pts',(-4.75,4.75,170.5));
#1510=CARTESIAN_POINT('Ctrl Pts',(-4.75,0.,170.5));
#1511=CARTESIAN_POINT('Ctrl Pts',(-4.75,0.,175.));
#1512=CARTESIAN_POINT('Ctrl Pts',(-4.75,-4.75,175.));
#1513=CARTESIAN_POINT('Ctrl Pts',(0.,-4.75,175.));
#1514=CARTESIAN_POINT('Ctrl Pts',(4.75,-4.75,175.));
#1515=CARTESIAN_POINT('Ctrl Pts',(4.75,0.,175.));
#1516=CARTESIAN_POINT('Ctrl Pts',(4.75,4.75,175.));
#1517=CARTESIAN_POINT('Ctrl Pts',(0.,4.75,175.));
#1518=CARTESIAN_POINT('Ctrl Pts',(-4.75,4.75,175.));
#1519=CARTESIAN_POINT('Ctrl Pts',(-4.75,0.,175.));
#1520=CARTESIAN_POINT('Ctrl Pts',(-0.25,0.,175.));
#1521=CARTESIAN_POINT('Ctrl Pts',(-0.25,-0.25,175.));
#1522=CARTESIAN_POINT('Ctrl Pts',(0.,-0.25,175.));
#1523=CARTESIAN_POINT('Ctrl Pts',(0.25,-0.25,175.));
#1524=CARTESIAN_POINT('Ctrl Pts',(0.25,0.,175.));
#1525=CARTESIAN_POINT('Ctrl Pts',(0.25,0.25,175.));
#1526=CARTESIAN_POINT('Ctrl Pts',(0.,0.25,175.));
#1527=CARTESIAN_POINT('Ctrl Pts',(-0.25,0.25,175.));
#1528=CARTESIAN_POINT('Ctrl Pts',(-0.25,0.,175.));
#1529=CARTESIAN_POINT('',(-4.75,-5.81707229594993E-16,170.5));
#1530=CARTESIAN_POINT('Origin',(0.,0.,170.5));
#1531=CARTESIAN_POINT('',(-0.25,3.06161699786839E-17,175.));
#1532=CARTESIAN_POINT('Origin',(-0.25,-3.06161699786839E-17,170.5));
#1533=CARTESIAN_POINT('Origin',(0.,0.,175.));
#1534=CARTESIAN_POINT('Origin',(0.,0.,0.));
#1535=CARTESIAN_POINT('',(-4.75,-5.81707229594993E-16,0.));
#1536=CARTESIAN_POINT('Origin',(0.,0.,175.));
#1537=CARTESIAN_POINT('Ctrl Pts',(-6.75,0.,170.5));
#1538=CARTESIAN_POINT('Ctrl Pts',(-6.75,-6.75,170.5));
#1539=CARTESIAN_POINT('Ctrl Pts',(0.,-6.75,170.5));
#1540=CARTESIAN_POINT('Ctrl Pts',(6.75,-6.75,170.5));
#1541=CARTESIAN_POINT('Ctrl Pts',(6.75,0.,170.5));
#1542=CARTESIAN_POINT('Ctrl Pts',(6.75,6.75,170.5));
#1543=CARTESIAN_POINT('Ctrl Pts',(0.,6.75,170.5));
#1544=CARTESIAN_POINT('Ctrl Pts',(-6.75,6.75,170.5));
#1545=CARTESIAN_POINT('Ctrl Pts',(-6.75,0.,170.5));
#1546=CARTESIAN_POINT('Ctrl Pts',(-6.75,0.,177.));
#1547=CARTESIAN_POINT('Ctrl Pts',(-6.75,-6.75,177.));
#1548=CARTESIAN_POINT('Ctrl Pts',(0.,-6.75,177.));
#1549=CARTESIAN_POINT('Ctrl Pts',(6.75,-6.75,177.));
#1550=CARTESIAN_POINT('Ctrl Pts',(6.75,0.,177.));
#1551=CARTESIAN_POINT('Ctrl Pts',(6.75,6.75,177.));
#1552=CARTESIAN_POINT('Ctrl Pts',(0.,6.75,177.));
#1553=CARTESIAN_POINT('Ctrl Pts',(-6.75,6.75,177.));
#1554=CARTESIAN_POINT('Ctrl Pts',(-6.75,0.,177.));
#1555=CARTESIAN_POINT('Ctrl Pts',(-0.250000000000001,0.,177.));
#1556=CARTESIAN_POINT('Ctrl Pts',(-0.250000000000001,-0.250000000000001,
177.));
#1557=CARTESIAN_POINT('Ctrl Pts',(0.,-0.250000000000001,177.));
#1558=CARTESIAN_POINT('Ctrl Pts',(0.250000000000001,-0.250000000000001,
177.));
#1559=CARTESIAN_POINT('Ctrl Pts',(0.250000000000001,0.,177.));
#1560=CARTESIAN_POINT('Ctrl Pts',(0.250000000000001,0.250000000000001,177.));
#1561=CARTESIAN_POINT('Ctrl Pts',(0.,0.250000000000001,177.));
#1562=CARTESIAN_POINT('Ctrl Pts',(-0.250000000000001,0.250000000000001,
177.));
#1563=CARTESIAN_POINT('Ctrl Pts',(-0.250000000000001,0.,177.));
#1564=CARTESIAN_POINT('',(-0.25,3.06161699786839E-17,177.));
#1565=CARTESIAN_POINT('Origin',(0.,0.,177.));
#1566=CARTESIAN_POINT('Origin',(-0.25,-3.06161699786839E-17,170.5));
#1567=CARTESIAN_POINT('Origin',(0.,0.,177.));
#1568=CARTESIAN_POINT('',(0.,0.,0.));
#1569=CARTESIAN_POINT('Origin',(-12.5,4.5,-0.999999999999998));
#1570=CARTESIAN_POINT('',(-16.,1.80277563773199,-1.));
#1571=CARTESIAN_POINT('',(-16.,-1.80277563773199,-1.));
#1572=CARTESIAN_POINT('Ctrl Pts',(-16.,1.80277563773199,-1.));
#1573=CARTESIAN_POINT('Ctrl Pts',(-16.,1.71086517628692,-1.16569394074589));
#1574=CARTESIAN_POINT('Ctrl Pts',(-15.9879982522335,1.59612190072525,-1.31703607708753));
#1575=CARTESIAN_POINT('Ctrl Pts',(-15.9476314845357,1.28663961352843,-1.63195125480442));
#1576=CARTESIAN_POINT('Ctrl Pts',(-15.9107153642907,1.05400492763525,-1.79333327686113));
#1577=CARTESIAN_POINT('Ctrl Pts',(-15.8534976470208,0.542414616665215,-2.00817229837863));
#1578=CARTESIAN_POINT('Ctrl Pts',(-15.8351320252154,0.263212211378577,-2.06155281280883));
#1579=CARTESIAN_POINT('Ctrl Pts',(-15.8351320252154,-0.263212211378576,
-2.06155281280883));
#1580=CARTESIAN_POINT('Ctrl Pts',(-15.8534976470208,-0.542414616665215,
-2.00817229837863));
#1581=CARTESIAN_POINT('Ctrl Pts',(-15.9107153642907,-1.05400492763525,-1.79333327686113));
#1582=CARTESIAN_POINT('Ctrl Pts',(-15.9476314845357,-1.28663961352843,-1.63195125480442));
#1583=CARTESIAN_POINT('Ctrl Pts',(-15.9879982522335,-1.59612190072525,-1.31703607708753));
#1584=CARTESIAN_POINT('Ctrl Pts',(-16.,-1.71086517628692,-1.16569394074589));
#1585=CARTESIAN_POINT('Ctrl Pts',(-16.,-1.80277563773199,-1.));
#1586=CARTESIAN_POINT('',(-16.,4.5,-1.));
#1587=CARTESIAN_POINT('',(-16.,4.5,-0.999999999999998));
#1588=CARTESIAN_POINT('',(-12.5,4.5,-4.5));
#1589=CARTESIAN_POINT('Origin',(-12.5,4.5,-0.999999999999998));
#1590=CARTESIAN_POINT('',(-12.5,-4.5,-4.5));
#1591=CARTESIAN_POINT('',(-12.5,4.5,-4.5));
#1592=CARTESIAN_POINT('',(-16.,-4.5,-0.999999999999998));
#1593=CARTESIAN_POINT('Origin',(-12.5,-4.5,-0.999999999999998));
#1594=CARTESIAN_POINT('',(-16.,4.5,-0.999999999999998));
#1595=CARTESIAN_POINT('Origin',(-16.,0.,0.));
#1596=CARTESIAN_POINT('',(-16.,2.06155281280883,2.52467405347956E-16));
#1597=CARTESIAN_POINT('Origin',(-16.,0.,0.));
#1598=CARTESIAN_POINT('',(-16.,2.,0.5));
#1599=CARTESIAN_POINT('Origin',(-16.,0.,0.));
#1600=CARTESIAN_POINT('',(-16.,2.,1.));
#1601=CARTESIAN_POINT('',(-16.,2.,2.25));
#1602=CARTESIAN_POINT('',(-16.,4.5,1.));
#1603=CARTESIAN_POINT('',(-16.,-2.25,1.));
#1604=CARTESIAN_POINT('',(-16.,4.5,4.5));
#1605=CARTESIAN_POINT('Origin',(-16.,0.,0.));
#1606=CARTESIAN_POINT('',(-16.,-4.5,1.));
#1607=CARTESIAN_POINT('',(-16.,-4.5,-4.5));
#1608=CARTESIAN_POINT('',(-16.,-2.,1.));
#1609=CARTESIAN_POINT('',(-16.,-2.25,1.));
#1610=CARTESIAN_POINT('',(-16.,-2.,0.5));
#1611=CARTESIAN_POINT('',(-16.,-2.,2.25));
#1612=CARTESIAN_POINT('Origin',(-16.,0.,0.));
#1613=CARTESIAN_POINT('Origin',(-6.,-4.5,-4.5));
#1614=CARTESIAN_POINT('',(-6.,-4.5,-4.5));
#1615=CARTESIAN_POINT('',(-6.,-4.5,-4.5));
#1616=CARTESIAN_POINT('',(-6.,-4.5,4.5));
#1617=CARTESIAN_POINT('',(-6.,-4.5,-2.25));
#1618=CARTESIAN_POINT('',(-12.5,-4.5,4.5));
#1619=CARTESIAN_POINT('',(-6.,-4.5,4.5));
#1620=CARTESIAN_POINT('Origin',(-12.5,-4.5,1.));
#1621=CARTESIAN_POINT('Origin',(-6.,4.5,4.5));
#1622=CARTESIAN_POINT('',(-12.5,4.5,4.5));
#1623=CARTESIAN_POINT('Origin',(-12.5,4.5,1.));
#1624=CARTESIAN_POINT('',(-6.,4.5,4.5));
#1625=CARTESIAN_POINT('',(-6.,4.5,4.5));
#1626=CARTESIAN_POINT('',(-6.,4.5,-4.5));
#1627=CARTESIAN_POINT('',(-6.,4.5,2.25));
#1628=CARTESIAN_POINT('',(-6.,4.5,-4.5));
#1629=CARTESIAN_POINT('Origin',(-12.5,-2.25,1.));
#1630=CARTESIAN_POINT('',(-12.5,-2.,4.5));
#1631=CARTESIAN_POINT('',(-12.5,-2.25,4.5));
#1632=CARTESIAN_POINT('Origin',(-12.5,-2.,1.));
#1633=CARTESIAN_POINT('Origin',(-8.,-2.,4.5));
#1634=CARTESIAN_POINT('',(-8.,-2.,4.5));
#1635=CARTESIAN_POINT('',(-7.,-2.,4.5));
#1636=CARTESIAN_POINT('',(-8.,-2.,0.5));
#1637=CARTESIAN_POINT('',(-8.,-2.,4.5));
#1638=CARTESIAN_POINT('',(-8.,-2.,0.5));
#1639=CARTESIAN_POINT('Origin',(-6.,-4.5,4.5));
#1640=CARTESIAN_POINT('',(-6.,-2.25,4.5));
#1641=CARTESIAN_POINT('',(-12.5,2.,4.5));
#1642=CARTESIAN_POINT('',(-12.5,-2.25,4.5));
#1643=CARTESIAN_POINT('',(-8.,2.,4.5));
#1644=CARTESIAN_POINT('',(-11.,2.,4.5));
#1645=CARTESIAN_POINT('',(-8.,-1.25,4.5));
#1646=CARTESIAN_POINT('Origin',(-12.5,-2.25,1.));
#1647=CARTESIAN_POINT('Origin',(-12.5,2.,1.));
#1648=CARTESIAN_POINT('Origin',(-16.,2.,4.5));
#1649=CARTESIAN_POINT('',(-8.,2.,0.5));
#1650=CARTESIAN_POINT('',(-8.,2.,0.5));
#1651=CARTESIAN_POINT('',(-8.,2.,4.5));
#1652=CARTESIAN_POINT('Origin',(-16.,0.,0.));
#1653=CARTESIAN_POINT('Origin',(-8.,0.,0.));
#1654=CARTESIAN_POINT('',(-6.,2.06155281280883,-2.52467405347956E-16));
#1655=CARTESIAN_POINT('',(-16.,2.06155281280883,2.52467405347956E-16));
#1656=CARTESIAN_POINT('Origin',(-6.,0.,0.));
#1657=CARTESIAN_POINT('Origin',(-8.,2.,4.5));
#1658=CARTESIAN_POINT('Origin',(-6.,0.,0.));
#1659=CARTESIAN_POINT('',(-6.,-2.75,-3.36777869765522E-16));
#1660=CARTESIAN_POINT('Origin',(-6.,0.,0.));
#1661=CARTESIAN_POINT('Origin',(-6.,4.5,-4.5));
#1662=CARTESIAN_POINT('',(-6.,2.25,-4.5));
#1663=CARTESIAN_POINT('Origin',(-2.75,0.,0.));
#1664=CARTESIAN_POINT('',(-2.,5.25,-6.42939569552361E-16));
#1665=CARTESIAN_POINT('Origin',(-2.,0.,0.));
#1666=CARTESIAN_POINT('',(-3.5,6.75,8.26636589424463E-16));
#1667=CARTESIAN_POINT('',(-2.75,6.,7.34788079488412E-16));
#1668=CARTESIAN_POINT('Origin',(-3.5,0.,0.));
#1669=CARTESIAN_POINT('Origin',(-2.,0.,0.));
#1670=CARTESIAN_POINT('',(-2.,-5.,-6.12323399573677E-16));
#1671=CARTESIAN_POINT('Origin',(-2.,0.,0.));
#1672=CARTESIAN_POINT('Origin',(-6.,0.,0.));
#1673=CARTESIAN_POINT('',(-6.,6.75,-8.26636589424463E-16));
#1674=CARTESIAN_POINT('',(-6.,6.75,8.26636589424463E-16));
#1675=CARTESIAN_POINT('Origin',(-6.,0.,0.));
#1676=CARTESIAN_POINT('Origin',(-6.,0.,0.));
#1677=CARTESIAN_POINT('Origin',(2.49999994412065,0.,0.499999988824129));
#1678=CARTESIAN_POINT('',(15.0000002235174,4.97493718665632,0.499999988824129));
#1679=CARTESIAN_POINT('',(2.49999994412065,4.97493718665632,0.499999988824129));
#1680=CARTESIAN_POINT('',(12.,4.97493718665632,0.499999988824129));
#1681=CARTESIAN_POINT('',(15.0000002235174,2.70416345866441,0.499999988824129));
#1682=CARTESIAN_POINT('',(15.,0.,0.499999988824129));
#1683=CARTESIAN_POINT('',(2.49999994412065,2.70416345866441,0.499999988824129));
#1684=CARTESIAN_POINT('',(15.,2.70416345866441,0.499999988824129));
#1685=CARTESIAN_POINT('',(2.49999994412065,0.,0.499999988824129));
#1686=CARTESIAN_POINT('Origin',(2.49999994412065,0.,0.499999988824129));
#1687=CARTESIAN_POINT('',(2.49999994412065,-4.97493718665632,0.499999988824129));
#1688=CARTESIAN_POINT('',(15.0000002235174,-4.97493718665632,0.499999988824129));
#1689=CARTESIAN_POINT('',(12.,-4.97493718665632,0.499999988824129));
#1690=CARTESIAN_POINT('',(2.49999994412065,-2.70416345866441,0.499999988824129));
#1691=CARTESIAN_POINT('',(2.49999994412065,0.,0.499999988824129));
#1692=CARTESIAN_POINT('',(15.0000002235174,-2.70416345866441,0.499999988824129));
#1693=CARTESIAN_POINT('',(15.,-2.70416345866441,0.499999988824129));
#1694=CARTESIAN_POINT('',(15.,0.,0.499999988824129));
#1695=CARTESIAN_POINT('Origin',(2.49999994412065,0.,-2.68220829158228E-7));
#1696=CARTESIAN_POINT('',(2.00000022351742,5.,3.63959469523306E-22));
#1697=CARTESIAN_POINT('Ctrl Pts',(2.49999994412065,4.9749372405707,0.499999452382471));
#1698=CARTESIAN_POINT('Ctrl Pts',(2.43717367562035,4.9749372405707,0.499999452382471));
#1699=CARTESIAN_POINT('Ctrl Pts',(2.37018858761253,4.97624999274615,0.487435004016374));
#1700=CARTESIAN_POINT('Ctrl Pts',(2.24701151024424,4.98098545632641,0.436395181533328));
#1701=CARTESIAN_POINT('Ctrl Pts',(2.19081592631994,4.9843391255562,0.397922100085234));
#1702=CARTESIAN_POINT('Ctrl Pts',(2.10207772659296,4.99062960142582,0.309183900264612));
#1703=CARTESIAN_POINT('Ctrl Pts',(2.06360452738337,4.99397593842232,0.252988250164041));
#1704=CARTESIAN_POINT('Ctrl Pts',(2.0125646170519,4.99869461411202,0.129810951132339));
#1705=CARTESIAN_POINT('Ctrl Pts',(2.00000025721995,5.,0.0628260545377619));
#1706=CARTESIAN_POINT('Ctrl Pts',(2.00000022351742,5.,2.52254057437502E-14));
#1707=CARTESIAN_POINT('',(2.49999994412065,2.70416345866441,-0.499999988824129));
#1708=CARTESIAN_POINT('Ctrl Pts',(2.49999994412065,2.70416345866441,-0.499999988824129));
#1709=CARTESIAN_POINT('Ctrl Pts',(2.43706695023987,2.70416345866441,-0.499999988824129));
#1710=CARTESIAN_POINT('Ctrl Pts',(2.37003733955271,2.70658788110172,-0.487394092029941));
#1711=CARTESIAN_POINT('Ctrl Pts',(2.24689068842727,2.7152885631442,-0.436324384201488));
#1712=CARTESIAN_POINT('Ctrl Pts',(2.19076129242905,2.72143304820069,-0.397868002433901));
#1713=CARTESIAN_POINT('Ctrl Pts',(2.10213389549552,2.73292277225592,-0.309240605810918));
#1714=CARTESIAN_POINT('Ctrl Pts',(2.0636761925843,2.739022634001,-0.253110489830641));
#1715=CARTESIAN_POINT('Ctrl Pts',(2.01260552600626,2.74762078101499,-0.129961352598059));
#1716=CARTESIAN_POINT('Ctrl Pts',(2.00000022351735,2.74999999386206,-0.0629308698641143));
#1717=CARTESIAN_POINT('Ctrl Pts',(2.00000022351735,2.75000000613791,0.0629303325463632));
#1718=CARTESIAN_POINT('Ctrl Pts',(2.01260552569224,2.74762080642757,0.129960814874745));
#1719=CARTESIAN_POINT('Ctrl Pts',(2.06367619174387,2.73902268369029,0.253109951886842));
#1720=CARTESIAN_POINT('Ctrl Pts',(2.10213389445915,2.7329228330918,0.309240068022356));
#1721=CARTESIAN_POINT('Ctrl Pts',(2.19076129153399,2.72143312670486,0.397867465407735));
#1722=CARTESIAN_POINT('Ctrl Pts',(2.2468906879351,2.71528864937771,0.436323847518432));
#1723=CARTESIAN_POINT('Ctrl Pts',(2.37003733956763,2.70658797768764,0.487393555631763));
#1724=CARTESIAN_POINT('Ctrl Pts',(2.43706695034031,2.70416355785245,0.499999452382471));
#1725=CARTESIAN_POINT('Ctrl Pts',(2.49999994412065,2.70416355785245,0.499999452382471));
#1726=CARTESIAN_POINT('',(2.49999994412065,4.97493718665632,-0.499999988824129));
#1727=CARTESIAN_POINT('',(2.49999994412065,0.,-0.499999988824129));
#1728=CARTESIAN_POINT('Ctrl Pts',(2.00000022351735,4.99999999999999,-2.68220829201596E-7));
#1729=CARTESIAN_POINT('Ctrl Pts',(2.00000022351735,4.99999999662974,-0.0628263230211208));
#1730=CARTESIAN_POINT('Ctrl Pts',(2.0125646171458,4.99869460017472,-0.129811487957813));
#1731=CARTESIAN_POINT('Ctrl Pts',(2.06360452763495,4.9939759112276,-0.252988787055678));
#1732=CARTESIAN_POINT('Ctrl Pts',(2.1020777269034,4.9906295681694,-0.309184437110347));
#1733=CARTESIAN_POINT('Ctrl Pts',(2.19081592658955,4.98433908271685,-0.397922636702854));
#1734=CARTESIAN_POINT('Ctrl Pts',(2.24701151039375,4.98098540932219,-0.436395718048503));
#1735=CARTESIAN_POINT('Ctrl Pts',(2.37018858761104,4.97624994020273,-0.487435540445851));
#1736=CARTESIAN_POINT('Ctrl Pts',(2.43717367559309,4.97493718665632,-0.499999988824129));
#1737=CARTESIAN_POINT('Ctrl Pts',(2.49999994412065,4.97493718665632,-0.499999988824129));
#1738=CARTESIAN_POINT('Origin',(15.0000002235174,0.,-0.499999988824129));
#1739=CARTESIAN_POINT('',(15.,4.97493718665632,-0.499999988824129));
#1740=CARTESIAN_POINT('',(12.,4.97493718665632,-0.499999988824129));
#1741=CARTESIAN_POINT('',(15.0000002235174,2.70416345866441,-0.499999988824129));
#1742=CARTESIAN_POINT('',(15.,2.70416345866441,-0.499999988824129));
#1743=CARTESIAN_POINT('',(15.,0.,-0.499999988824129));
#1744=CARTESIAN_POINT('Origin',(15.0000002235174,0.,-0.499999988824129));
#1745=CARTESIAN_POINT('',(15.,-4.97493718665632,-0.499999988824129));
#1746=CARTESIAN_POINT('',(2.49999994412065,-4.97493718665632,-0.499999988824129));
#1747=CARTESIAN_POINT('',(12.,-4.97493718665632,-0.499999988824129));
#1748=CARTESIAN_POINT('',(15.0000002235174,-2.70416345866441,-0.499999988824129));
#1749=CARTESIAN_POINT('',(15.,0.,-0.499999988824129));
#1750=CARTESIAN_POINT('',(2.49999994412065,-2.70416345866441,-0.499999988824129));
#1751=CARTESIAN_POINT('',(15.,-2.70416345866441,-0.499999988824129));
#1752=CARTESIAN_POINT('',(2.49999994412065,0.,-0.499999988824129));
#1753=CARTESIAN_POINT('Origin',(2.49999994412065,0.,-2.68220829158228E-7));
#1754=CARTESIAN_POINT('',(2.00000022351742,-5.,3.63959469523306E-22));
#1755=CARTESIAN_POINT('Ctrl Pts',(2.00000022351742,-5.,2.52340793010544E-14));
#1756=CARTESIAN_POINT('Ctrl Pts',(2.00000025721995,-5.,0.0628260545377619));
#1757=CARTESIAN_POINT('Ctrl Pts',(2.0125646170519,-4.99869461411202,0.129810951132339));
#1758=CARTESIAN_POINT('Ctrl Pts',(2.06360452738337,-4.99397593842232,0.252988250164041));
#1759=CARTESIAN_POINT('Ctrl Pts',(2.10207772659296,-4.99062960142582,0.309183900264612));
#1760=CARTESIAN_POINT('Ctrl Pts',(2.19081592631994,-4.9843391255562,0.397922100085234));
#1761=CARTESIAN_POINT('Ctrl Pts',(2.24701151024424,-4.98098545632641,0.436395181533328));
#1762=CARTESIAN_POINT('Ctrl Pts',(2.37018858761253,-4.97624999274615,0.487435004016374));
#1763=CARTESIAN_POINT('Ctrl Pts',(2.43717367562035,-4.9749372405707,0.499999452382471));
#1764=CARTESIAN_POINT('Ctrl Pts',(2.49999994412065,-4.9749372405707,0.499999452382471));
#1765=CARTESIAN_POINT('Ctrl Pts',(2.49999994412065,-4.97493718665632,-0.499999988824129));
#1766=CARTESIAN_POINT('Ctrl Pts',(2.43717367559309,-4.97493718665632,-0.499999988824129));
#1767=CARTESIAN_POINT('Ctrl Pts',(2.37018858761104,-4.97624994020273,-0.487435540445851));
#1768=CARTESIAN_POINT('Ctrl Pts',(2.24701151039375,-4.98098540932219,-0.436395718048503));
#1769=CARTESIAN_POINT('Ctrl Pts',(2.19081592658955,-4.98433908271685,-0.397922636702853));
#1770=CARTESIAN_POINT('Ctrl Pts',(2.1020777269034,-4.99062956816939,-0.309184437110347));
#1771=CARTESIAN_POINT('Ctrl Pts',(2.06360452763495,-4.9939759112276,-0.252988787055678));
#1772=CARTESIAN_POINT('Ctrl Pts',(2.0125646171458,-4.99869460017472,-0.129811487957813));
#1773=CARTESIAN_POINT('Ctrl Pts',(2.00000022351735,-4.99999999662974,-0.0628263230211209));
#1774=CARTESIAN_POINT('Ctrl Pts',(2.00000022351735,-4.99999999999999,-2.68220829192922E-7));
#1775=CARTESIAN_POINT('',(2.00000022351742,-2.75,1.27578698954262E-14));
#1776=CARTESIAN_POINT('Ctrl Pts',(2.00000022351735,-2.74999999999999,-2.68220829080165E-7));
#1777=CARTESIAN_POINT('Ctrl Pts',(2.00000022351735,-2.74999999386206,-0.0629308698641144));
#1778=CARTESIAN_POINT('Ctrl Pts',(2.01260552600626,-2.74762078101499,-0.129961352598059));
#1779=CARTESIAN_POINT('Ctrl Pts',(2.0636761925843,-2.739022634001,-0.253110489830641));
#1780=CARTESIAN_POINT('Ctrl Pts',(2.10213389549552,-2.73292277225592,-0.309240605810918));
#1781=CARTESIAN_POINT('Ctrl Pts',(2.19076129242905,-2.72143304820069,-0.397868002433901));
#1782=CARTESIAN_POINT('Ctrl Pts',(2.24689068842727,-2.7152885631442,-0.436324384201488));
#1783=CARTESIAN_POINT('Ctrl Pts',(2.37003733955271,-2.70658788110172,-0.48739409202994));
#1784=CARTESIAN_POINT('Ctrl Pts',(2.43706695023987,-2.70416345866441,-0.499999988824129));
#1785=CARTESIAN_POINT('Ctrl Pts',(2.49999994412065,-2.70416345866441,-0.499999988824129));
#1786=CARTESIAN_POINT('Ctrl Pts',(2.49999994412065,-2.70416355785245,0.499999452382471));
#1787=CARTESIAN_POINT('Ctrl Pts',(2.43706695034031,-2.70416355785245,0.499999452382471));
#1788=CARTESIAN_POINT('Ctrl Pts',(2.37003733956763,-2.70658797768763,0.487393555631762));
#1789=CARTESIAN_POINT('Ctrl Pts',(2.2468906879351,-2.71528864937771,0.436323847518432));
#1790=CARTESIAN_POINT('Ctrl Pts',(2.19076129153399,-2.72143312670486,0.397867465407735));
#1791=CARTESIAN_POINT('Ctrl Pts',(2.10213389445915,-2.7329228330918,0.309240068022356));
#1792=CARTESIAN_POINT('Ctrl Pts',(2.06367619174387,-2.73902268369029,0.253109951886842));
#1793=CARTESIAN_POINT('Ctrl Pts',(2.01260552569224,-2.74762080642757,0.129960814874745));
#1794=CARTESIAN_POINT('Ctrl Pts',(2.00000025727604,-2.75,0.062930600767221));
#1795=CARTESIAN_POINT('Ctrl Pts',(2.00000022351742,-2.75,3.75330863252939E-14));
#1796=CARTESIAN_POINT('Origin',(15.,0.,0.));
#1797=CARTESIAN_POINT('',(15.,-2.75,3.36777869765522E-16));
#1798=CARTESIAN_POINT('Origin',(15.,0.,0.));
#1799=CARTESIAN_POINT('Origin',(15.,0.,0.));
#1800=CARTESIAN_POINT('Origin',(15.,0.,0.));
#1801=CARTESIAN_POINT('Origin',(15.,0.,0.));
#1802=CARTESIAN_POINT('Origin',(15.,0.,0.));
#1803=CARTESIAN_POINT('Origin',(15.,0.,0.));
#1804=CARTESIAN_POINT('Origin',(12.,0.,0.));
#1805=CARTESIAN_POINT('',(12.,-5.,6.12323399573677E-16));
#1806=CARTESIAN_POINT('Origin',(2.75000002235174,0.250000022351742,-6.));
#1807=CARTESIAN_POINT('',(2.75000002235174,2.75000002235174,-6.));
#1808=CARTESIAN_POINT('',(2.75000002235174,0.250000022351742,-6.));
#1809=CARTESIAN_POINT('',(2.75000002235174,2.75000002235174,-6.));
#1810=CARTESIAN_POINT('',(2.75000002235174,2.75000002235174,-3.));
#1811=CARTESIAN_POINT('',(2.75000002235174,2.75000002235174,-6.));
#1812=CARTESIAN_POINT('',(2.75000002235174,0.250000022351742,-3.));
#1813=CARTESIAN_POINT('',(2.75000002235174,2.75000002235174,-3.));
#1814=CARTESIAN_POINT('',(2.75000002235174,0.250000022351742,-6.));
#1815=CARTESIAN_POINT('Origin',(0.250000022351742,0.250000022351742,-6.));
#1816=CARTESIAN_POINT('',(0.250000022351742,0.250000022351742,-6.));
#1817=CARTESIAN_POINT('',(2.75000002235174,0.250000022351742,-6.));
#1818=CARTESIAN_POINT('',(0.250000022351742,0.250000022351742,-3.));
#1819=CARTESIAN_POINT('',(2.75000002235174,0.250000022351742,-3.));
#1820=CARTESIAN_POINT('',(0.250000022351742,0.250000022351742,-6.));
#1821=CARTESIAN_POINT('Origin',(0.250000022351742,2.75000002235174,-6.));
#1822=CARTESIAN_POINT('',(0.250000022351742,2.75000002235174,-6.));
#1823=CARTESIAN_POINT('',(0.250000022351742,0.250000022351742,-6.));
#1824=CARTESIAN_POINT('',(0.250000022351742,2.75000002235174,-3.));
#1825=CARTESIAN_POINT('',(0.250000022351742,0.250000022351742,-3.));
#1826=CARTESIAN_POINT('',(0.250000022351742,2.75000002235174,-6.));
#1827=CARTESIAN_POINT('Origin',(2.75000002235174,2.75000002235174,-6.));
#1828=CARTESIAN_POINT('',(0.250000022351742,2.75000002235174,-6.));
#1829=CARTESIAN_POINT('',(0.250000022351742,2.75000002235174,-3.));
#1830=CARTESIAN_POINT('Origin',(1.50000002235174,1.50000002235174,-3.));
#1831=CARTESIAN_POINT('Origin',(1.50000002235174,1.50000002235174,-6.));
#1832=CARTESIAN_POINT('',(0.,0.,0.));
#1833=CARTESIAN_POINT('',(-11.,-0.25,-3.74999999999999));
#1834=CARTESIAN_POINT('',(0.,0.,0.));
#1835=CARTESIAN_POINT('Origin',(0.,0.,0.));
#1836=UNCERTAINTY_MEASURE_WITH_UNIT(LENGTH_MEASURE(0.01),#1846,
'DISTANCE_ACCURACY_VALUE',
'Maximum model space distance between geometric entities at asserted c
onnectivities');
#1837=UNCERTAINTY_MEASURE_WITH_UNIT(LENGTH_MEASURE(0.01),#1846,
'DISTANCE_ACCURACY_VALUE',
'Maximum model space distance between geometric entities at asserted c
onnectivities');
#1838=UNCERTAINTY_MEASURE_WITH_UNIT(LENGTH_MEASURE(0.01),#1846,
'DISTANCE_ACCURACY_VALUE',
'Maximum model space distance between geometric entities at asserted c
onnectivities');
#1839=UNCERTAINTY_MEASURE_WITH_UNIT(LENGTH_MEASURE(0.01),#1846,
'DISTANCE_ACCURACY_VALUE',
'Maximum model space distance between geometric entities at asserted c
onnectivities');
#1840=UNCERTAINTY_MEASURE_WITH_UNIT(LENGTH_MEASURE(0.01),#1846,
'DISTANCE_ACCURACY_VALUE',
'Maximum model space distance between geometric entities at asserted c
onnectivities');
#1841=(
GEOMETRIC_REPRESENTATION_CONTEXT(3)
GLOBAL_UNCERTAINTY_ASSIGNED_CONTEXT((#1836))
GLOBAL_UNIT_ASSIGNED_CONTEXT((#1846,#1848,#1849))
REPRESENTATION_CONTEXT('','3D')
);
#1842=(
GEOMETRIC_REPRESENTATION_CONTEXT(3)
GLOBAL_UNCERTAINTY_ASSIGNED_CONTEXT((#1837))
GLOBAL_UNIT_ASSIGNED_CONTEXT((#1846,#1848,#1849))
REPRESENTATION_CONTEXT('','3D')
);
#1843=(
GEOMETRIC_REPRESENTATION_CONTEXT(3)
GLOBAL_UNCERTAINTY_ASSIGNED_CONTEXT((#1838))
GLOBAL_UNIT_ASSIGNED_CONTEXT((#1846,#1848,#1849))
REPRESENTATION_CONTEXT('','3D')
);
#1844=(
GEOMETRIC_REPRESENTATION_CONTEXT(3)
GLOBAL_UNCERTAINTY_ASSIGNED_CONTEXT((#1839))
GLOBAL_UNIT_ASSIGNED_CONTEXT((#1846,#1848,#1849))
REPRESENTATION_CONTEXT('','3D')
);
#1845=(
GEOMETRIC_REPRESENTATION_CONTEXT(3)
GLOBAL_UNCERTAINTY_ASSIGNED_CONTEXT((#1840))
GLOBAL_UNIT_ASSIGNED_CONTEXT((#1846,#1848,#1849))
REPRESENTATION_CONTEXT('','3D')
);
#1846=(
LENGTH_UNIT()
NAMED_UNIT(*)
SI_UNIT(.MILLI.,.METRE.)
);
#1847=(
LENGTH_UNIT()
NAMED_UNIT(*)
SI_UNIT($,.METRE.)
);
#1848=(
NAMED_UNIT(*)
PLANE_ANGLE_UNIT()
SI_UNIT($,.RADIAN.)
);
#1849=(
NAMED_UNIT(*)
SI_UNIT($,.STERADIAN.)
SOLID_ANGLE_UNIT()
);
#1850=SHAPE_DEFINITION_REPRESENTATION(#1854,#1861);
#1851=SHAPE_DEFINITION_REPRESENTATION(#1855,#1862);
#1852=SHAPE_DEFINITION_REPRESENTATION(#1856,#1863);
#1853=SHAPE_DEFINITION_REPRESENTATION(#1857,#1864);
#1854=PRODUCT_DEFINITION_SHAPE('',$,#1866);
#1855=PRODUCT_DEFINITION_SHAPE('',$,#1867);
#1856=PRODUCT_DEFINITION_SHAPE('',$,#1868);
#1857=PRODUCT_DEFINITION_SHAPE('',$,#1869);
#1858=PRODUCT_DEFINITION_SHAPE($,$,#24);
#1859=PRODUCT_DEFINITION_SHAPE($,$,#25);
#1860=PRODUCT_DEFINITION_SHAPE($,$,#26);
#1861=SHAPE_REPRESENTATION('',(#1010,#1108,#1109,#1110),#1841);
#1862=SHAPE_REPRESENTATION('',(#1011),#1842);
#1863=SHAPE_REPRESENTATION('',(#1027),#1843);
#1864=SHAPE_REPRESENTATION('',(#1053),#1844);
#1865=PRODUCT_DEFINITION_CONTEXT('part definition',#1879,'design');
#1866=PRODUCT_DEFINITION('Antenna','Antenna v2',#1870,#1865);
#1867=PRODUCT_DEFINITION('Antenna Connector part',
'Antenna Connector part v1',#1871,#1865);
#1868=PRODUCT_DEFINITION('Main Antenna Part','Main Antenna Part v1',#1872,
#1865);
#1869=PRODUCT_DEFINITION('Antenna Rollable Part',
'Antenna Rollable Part v2',#1873,#1865);
#1870=PRODUCT_DEFINITION_FORMATION('',$,#1881);
#1871=PRODUCT_DEFINITION_FORMATION('',$,#1882);
#1872=PRODUCT_DEFINITION_FORMATION('',$,#1883);
#1873=PRODUCT_DEFINITION_FORMATION('',$,#1884);
#1874=PRODUCT_RELATED_PRODUCT_CATEGORY('Antenna v2','Antenna v2',(#1881));
#1875=PRODUCT_RELATED_PRODUCT_CATEGORY('Antenna Connector part v1',
'Antenna Connector part v1',(#1882));
#1876=PRODUCT_RELATED_PRODUCT_CATEGORY('Main Antenna Part v1',
'Main Antenna Part v1',(#1883));
#1877=PRODUCT_RELATED_PRODUCT_CATEGORY('Antenna Rollable Part v2',
'Antenna Rollable Part v2',(#1884));
#1878=APPLICATION_PROTOCOL_DEFINITION('international standard',
'automotive_design',2009,#1879);
#1879=APPLICATION_CONTEXT(
'Core Data for Automotive Mechanical Design Process');
#1880=PRODUCT_CONTEXT('part definition',#1879,'mechanical');
#1881=PRODUCT('Antenna','Antenna v2',$,(#1880));
#1882=PRODUCT('Antenna Connector part','Antenna Connector part v1',$,(#1880));
#1883=PRODUCT('Main Antenna Part','Main Antenna Part v1',$,(#1880));
#1884=PRODUCT('Antenna Rollable Part','Antenna Rollable Part v2',$,(#1880));
#1885=PRESENTATION_STYLE_ASSIGNMENT((#1889));
#1886=PRESENTATION_STYLE_ASSIGNMENT((#1890));
#1887=PRESENTATION_STYLE_ASSIGNMENT((#1891));
#1888=PRESENTATION_STYLE_ASSIGNMENT((NULL_STYLE(.NULL.)));
#1889=SURFACE_STYLE_USAGE(.BOTH.,#1892);
#1890=SURFACE_STYLE_USAGE(.BOTH.,#1893);
#1891=SURFACE_STYLE_USAGE(.BOTH.,#1894);
#1892=SURFACE_SIDE_STYLE('',(#1895));
#1893=SURFACE_SIDE_STYLE('',(#1896));
#1894=SURFACE_SIDE_STYLE('',(#1897));
#1895=SURFACE_STYLE_FILL_AREA(#1898);
#1896=SURFACE_STYLE_FILL_AREA(#1899);
#1897=SURFACE_STYLE_FILL_AREA(#1900);
#1898=FILL_AREA_STYLE('Steel - Satin',(#1901));
#1899=FILL_AREA_STYLE('ABS (White)',(#1902));
#1900=FILL_AREA_STYLE('ABS (White)',(#1903));
#1901=FILL_AREA_STYLE_COLOUR('Steel - Satin',#1904);
#1902=FILL_AREA_STYLE_COLOUR('ABS (White)',#1905);
#1903=FILL_AREA_STYLE_COLOUR('ABS (White)',#1906);
#1904=COLOUR_RGB('Steel - Satin',0.627450980392157,0.627450980392157,0.627450980392157);
#1905=COLOUR_RGB('ABS (White)',0.905882352941176,0.905882352941176,0.854901960784314);
#1906=COLOUR_RGB('ABS (White)',0.964705882352941,0.964705882352941,0.952941176470588);
ENDSEC;
END-ISO-10303-21;
