<?xml version="1.0" encoding="UTF-8" standalone="no"?>
<svg
   width="900"
   zoomAndPan="magnify"
   viewBox="0 0 675 225"
   height="300"
   preserveAspectRatio="xMidYMid"
   version="1.0"
   id="svg152"
   sodipodi:docname="SPOTTR(2).svg"
   inkscape:version="1.4 (86a8ad7, 2024-10-11)"
   xmlns:inkscape="http://www.inkscape.org/namespaces/inkscape"
   xmlns:sodipodi="http://sodipodi.sourceforge.net/DTD/sodipodi-0.dtd"
   xmlns="http://www.w3.org/2000/svg"
   xmlns:svg="http://www.w3.org/2000/svg">
  <sodipodi:namedview
     id="namedview152"
     pagecolor="#ffffff"
     bordercolor="#000000"
     borderopacity="0.25"
     inkscape:showpageshadow="2"
     inkscape:pageopacity="0.0"
     inkscape:pagecheckerboard="0"
     inkscape:deskcolor="#d1d1d1"
     inkscape:zoom="0.57063517"
     inkscape:cx="274.25579"
     inkscape:cy="449.49911"
     inkscape:window-width="1920"
     inkscape:window-height="1009"
     inkscape:window-x="1912"
     inkscape:window-y="-8"
     inkscape:window-maximized="1"
     inkscape:current-layer="svg152" />
  <defs
     id="defs66">
    <g
       id="g1" />
    <clipPath
       id="ebeb9d4d76">
      <path
         d="m 93,268 h 97 v 28 H 93 Z m 0,0"
         clip-rule="nonzero"
         id="path1" />
    </clipPath>
    <clipPath
       id="4fc3c56188">
      <path
         d="M 69.566406,257 217.97266,283.48828 180.54687,493.17187 32.140625,466.6875 Z m 0,0"
         clip-rule="nonzero"
         id="path2" />
    </clipPath>
    <clipPath
       id="fe49f9c24e">
      <path
         d="M 69.566406,257 217.97266,283.48828 180.54687,493.17187 32.140625,466.6875 Z m 0,0"
         clip-rule="nonzero"
         id="path3" />
    </clipPath>
    <clipPath
       id="fb36b978e6">
      <path
         d="m 70,286 h 131 v 48 H 70 Z m 0,0"
         clip-rule="nonzero"
         id="path4" />
    </clipPath>
    <clipPath
       id="77699b4ee7">
      <path
         d="M 69.566406,257 217.97266,283.48828 180.54687,493.17187 32.140625,466.6875 Z m 0,0"
         clip-rule="nonzero"
         id="path5" />
    </clipPath>
    <clipPath
       id="1043e2a2b7">
      <path
         d="M 69.566406,257 217.97266,283.48828 180.54687,493.17187 32.140625,466.6875 Z m 0,0"
         clip-rule="nonzero"
         id="path6" />
    </clipPath>
    <clipPath
       id="fba8ec841a">
      <path
         d="m 114,303 h 86 v 93 h -86 z m 0,0"
         clip-rule="nonzero"
         id="path7" />
    </clipPath>
    <clipPath
       id="057c4f5523">
      <path
         d="M 69.566406,257 217.97266,283.48828 180.54687,493.17187 32.140625,466.6875 Z m 0,0"
         clip-rule="nonzero"
         id="path8" />
    </clipPath>
    <clipPath
       id="684934d743">
      <path
         d="M 69.566406,257 217.97266,283.48828 180.54687,493.17187 32.140625,466.6875 Z m 0,0"
         clip-rule="nonzero"
         id="path9" />
    </clipPath>
    <clipPath
       id="845a5a50a5">
      <path
         d="m 50,308 h 55 v 63 H 50 Z m 0,0"
         clip-rule="nonzero"
         id="path10" />
    </clipPath>
    <clipPath
       id="cd4099cf2a">
      <path
         d="M 69.566406,257 217.97266,283.48828 180.54687,493.17187 32.140625,466.6875 Z m 0,0"
         clip-rule="nonzero"
         id="path11" />
    </clipPath>
    <clipPath
       id="69f1923339">
      <path
         d="M 69.566406,257 217.97266,283.48828 180.54687,493.17187 32.140625,466.6875 Z m 0,0"
         clip-rule="nonzero"
         id="path12" />
    </clipPath>
    <clipPath
       id="ad15255f3e">
      <path
         d="m 49,321 h 126 v 91 H 49 Z m 0,0"
         clip-rule="nonzero"
         id="path13" />
    </clipPath>
    <clipPath
       id="85e3c2b33d">
      <path
         d="M 69.566406,257 217.97266,283.48828 180.54687,493.17187 32.140625,466.6875 Z m 0,0"
         clip-rule="nonzero"
         id="path14" />
    </clipPath>
    <clipPath
       id="f758d2cfe5">
      <path
         d="M 69.566406,257 217.97266,283.48828 180.54687,493.17187 32.140625,466.6875 Z m 0,0"
         clip-rule="nonzero"
         id="path15" />
    </clipPath>
    <clipPath
       id="64ba7d96ae">
      <path
         d="m 169,366 h 13 v 80 h -13 z m 0,0"
         clip-rule="nonzero"
         id="path16" />
    </clipPath>
    <clipPath
       id="192baba78a">
      <path
         d="M 69.566406,257 217.97266,283.48828 180.54687,493.17187 32.140625,466.6875 Z m 0,0"
         clip-rule="nonzero"
         id="path17" />
    </clipPath>
    <clipPath
       id="2f241771d3">
      <path
         d="M 69.566406,257 217.97266,283.48828 180.54687,493.17187 32.140625,466.6875 Z m 0,0"
         clip-rule="nonzero"
         id="path18" />
    </clipPath>
    <clipPath
       id="fcbceb5b11">
      <path
         d="M 54,339 H 165 V 464 H 54 Z m 0,0"
         clip-rule="nonzero"
         id="path19" />
    </clipPath>
    <clipPath
       id="6d21c161d3">
      <path
         d="M 69.566406,257 217.97266,283.48828 180.54687,493.17187 32.140625,466.6875 Z m 0,0"
         clip-rule="nonzero"
         id="path20" />
    </clipPath>
    <clipPath
       id="f2b84b661a">
      <path
         d="M 69.566406,257 217.97266,283.48828 180.54687,493.17187 32.140625,466.6875 Z m 0,0"
         clip-rule="nonzero"
         id="path21" />
    </clipPath>
    <clipPath
       id="165a3c55a5">
      <path
         d="m 61,356 h 86 V 476 H 61 Z m 0,0"
         clip-rule="nonzero"
         id="path22" />
    </clipPath>
    <clipPath
       id="2886d65d86">
      <path
         d="M 69.566406,257 217.97266,283.48828 180.54687,493.17187 32.140625,466.6875 Z m 0,0"
         clip-rule="nonzero"
         id="path23" />
    </clipPath>
    <clipPath
       id="c7732fd6ae">
      <path
         d="M 69.566406,257 217.97266,283.48828 180.54687,493.17187 32.140625,466.6875 Z m 0,0"
         clip-rule="nonzero"
         id="path24" />
    </clipPath>
    <clipPath
       id="056e34c729">
      <path
         d="m 115,374 h 14 v 27 h -14 z m 0,0"
         clip-rule="nonzero"
         id="path25" />
    </clipPath>
    <clipPath
       id="5ffaed0f6e">
      <path
         d="M 69.566406,257 217.97266,283.48828 180.54687,493.17187 32.140625,466.6875 Z m 0,0"
         clip-rule="nonzero"
         id="path26" />
    </clipPath>
    <clipPath
       id="d61067243c">
      <path
         d="M 69.566406,257 217.97266,283.48828 180.54687,493.17187 32.140625,466.6875 Z m 0,0"
         clip-rule="nonzero"
         id="path27" />
    </clipPath>
    <clipPath
       id="060ce4b3d6">
      <path
         d="m 71,408 h 47 v 57 H 71 Z m 0,0"
         clip-rule="nonzero"
         id="path28" />
    </clipPath>
    <clipPath
       id="906c566896">
      <path
         d="M 69.566406,257 217.97266,283.48828 180.54687,493.17187 32.140625,466.6875 Z m 0,0"
         clip-rule="nonzero"
         id="path29" />
    </clipPath>
    <clipPath
       id="140abbd212">
      <path
         d="M 69.566406,257 217.97266,283.48828 180.54687,493.17187 32.140625,466.6875 Z m 0,0"
         clip-rule="nonzero"
         id="path30" />
    </clipPath>
    <clipPath
       id="7c2ead0345">
      <path
         d="m 106,433 h 42 v 47 h -42 z m 0,0"
         clip-rule="nonzero"
         id="path31" />
    </clipPath>
    <clipPath
       id="9f07891d03">
      <path
         d="M 69.566406,257 217.97266,283.48828 180.54687,493.17187 32.140625,466.6875 Z m 0,0"
         clip-rule="nonzero"
         id="path32" />
    </clipPath>
    <clipPath
       id="29274580b0">
      <path
         d="M 69.566406,257 217.97266,283.48828 180.54687,493.17187 32.140625,466.6875 Z m 0,0"
         clip-rule="nonzero"
         id="path33" />
    </clipPath>
    <clipPath
       id="143bbb5ea4">
      <path
         d="m 93,268 h 97 v 28 H 93 Z m 0,0"
         clip-rule="nonzero"
         id="path34" />
    </clipPath>
    <clipPath
       id="9b0c0607c6">
      <path
         d="M 69.566406,257 217.97266,283.48828 180.54687,493.17187 32.140625,466.6875 Z m 0,0"
         clip-rule="nonzero"
         id="path35" />
    </clipPath>
    <clipPath
       id="fc94bbb52e">
      <path
         d="M 69.566406,257 217.97266,283.48828 180.54687,493.17187 32.140625,466.6875 Z m 0,0"
         clip-rule="nonzero"
         id="path36" />
    </clipPath>
    <clipPath
       id="afd71b3179">
      <path
         d="m 70,286 h 131 v 48 H 70 Z m 0,0"
         clip-rule="nonzero"
         id="path37" />
    </clipPath>
    <clipPath
       id="66a8a69158">
      <path
         d="M 69.566406,257 217.97266,283.48828 180.54687,493.17187 32.140625,466.6875 Z m 0,0"
         clip-rule="nonzero"
         id="path38" />
    </clipPath>
    <clipPath
       id="b24a9dfd0a">
      <path
         d="M 69.566406,257 217.97266,283.48828 180.54687,493.17187 32.140625,466.6875 Z m 0,0"
         clip-rule="nonzero"
         id="path39" />
    </clipPath>
    <clipPath
       id="8cb3e4049c">
      <path
         d="m 114,303 h 86 v 93 h -86 z m 0,0"
         clip-rule="nonzero"
         id="path40" />
    </clipPath>
    <clipPath
       id="915ec42caf">
      <path
         d="M 69.566406,257 217.97266,283.48828 180.54687,493.17187 32.140625,466.6875 Z m 0,0"
         clip-rule="nonzero"
         id="path41" />
    </clipPath>
    <clipPath
       id="0cf5b21062">
      <path
         d="M 69.566406,257 217.97266,283.48828 180.54687,493.17187 32.140625,466.6875 Z m 0,0"
         clip-rule="nonzero"
         id="path42" />
    </clipPath>
    <clipPath
       id="d81dda74cf">
      <path
         d="m 50,308 h 55 v 63 H 50 Z m 0,0"
         clip-rule="nonzero"
         id="path43" />
    </clipPath>
    <clipPath
       id="d905e1bcad">
      <path
         d="M 69.566406,257 217.97266,283.48828 180.54687,493.17187 32.140625,466.6875 Z m 0,0"
         clip-rule="nonzero"
         id="path44" />
    </clipPath>
    <clipPath
       id="a6091b907c">
      <path
         d="M 69.566406,257 217.97266,283.48828 180.54687,493.17187 32.140625,466.6875 Z m 0,0"
         clip-rule="nonzero"
         id="path45" />
    </clipPath>
    <clipPath
       id="c92206f454">
      <path
         d="m 49,321 h 126 v 91 H 49 Z m 0,0"
         clip-rule="nonzero"
         id="path46" />
    </clipPath>
    <clipPath
       id="6bc5b23403">
      <path
         d="M 69.566406,257 217.97266,283.48828 180.54687,493.17187 32.140625,466.6875 Z m 0,0"
         clip-rule="nonzero"
         id="path47" />
    </clipPath>
    <clipPath
       id="e5da134c8f">
      <path
         d="M 69.566406,257 217.97266,283.48828 180.54687,493.17187 32.140625,466.6875 Z m 0,0"
         clip-rule="nonzero"
         id="path48" />
    </clipPath>
    <clipPath
       id="d56f928adc">
      <path
         d="m 169,366 h 13 v 80 h -13 z m 0,0"
         clip-rule="nonzero"
         id="path49" />
    </clipPath>
    <clipPath
       id="45a29359dd">
      <path
         d="M 69.566406,257 217.97266,283.48828 180.54687,493.17187 32.140625,466.6875 Z m 0,0"
         clip-rule="nonzero"
         id="path50" />
    </clipPath>
    <clipPath
       id="91d2de9d2b">
      <path
         d="M 69.566406,257 217.97266,283.48828 180.54687,493.17187 32.140625,466.6875 Z m 0,0"
         clip-rule="nonzero"
         id="path51" />
    </clipPath>
    <clipPath
       id="0d181b8ece">
      <path
         d="M 54,339 H 165 V 464 H 54 Z m 0,0"
         clip-rule="nonzero"
         id="path52" />
    </clipPath>
    <clipPath
       id="e85151dcdd">
      <path
         d="M 69.566406,257 217.97266,283.48828 180.54687,493.17187 32.140625,466.6875 Z m 0,0"
         clip-rule="nonzero"
         id="path53" />
    </clipPath>
    <clipPath
       id="75d38b5c62">
      <path
         d="M 69.566406,257 217.97266,283.48828 180.54687,493.17187 32.140625,466.6875 Z m 0,0"
         clip-rule="nonzero"
         id="path54" />
    </clipPath>
    <clipPath
       id="679c53e4ed">
      <path
         d="m 61,356 h 86 V 476 H 61 Z m 0,0"
         clip-rule="nonzero"
         id="path55" />
    </clipPath>
    <clipPath
       id="541c53277c">
      <path
         d="M 69.566406,257 217.97266,283.48828 180.54687,493.17187 32.140625,466.6875 Z m 0,0"
         clip-rule="nonzero"
         id="path56" />
    </clipPath>
    <clipPath
       id="d8e39fd83a">
      <path
         d="M 69.566406,257 217.97266,283.48828 180.54687,493.17187 32.140625,466.6875 Z m 0,0"
         clip-rule="nonzero"
         id="path57" />
    </clipPath>
    <clipPath
       id="0fbf7a0d1a">
      <path
         d="m 115,374 h 14 v 27 h -14 z m 0,0"
         clip-rule="nonzero"
         id="path58" />
    </clipPath>
    <clipPath
       id="1a5df496a8">
      <path
         d="M 69.566406,257 217.97266,283.48828 180.54687,493.17187 32.140625,466.6875 Z m 0,0"
         clip-rule="nonzero"
         id="path59" />
    </clipPath>
    <clipPath
       id="b5a32c8a0d">
      <path
         d="M 69.566406,257 217.97266,283.48828 180.54687,493.17187 32.140625,466.6875 Z m 0,0"
         clip-rule="nonzero"
         id="path60" />
    </clipPath>
    <clipPath
       id="450d907ba0">
      <path
         d="m 71,408 h 47 v 57 H 71 Z m 0,0"
         clip-rule="nonzero"
         id="path61" />
    </clipPath>
    <clipPath
       id="51a19c811a">
      <path
         d="M 69.566406,257 217.97266,283.48828 180.54687,493.17187 32.140625,466.6875 Z m 0,0"
         clip-rule="nonzero"
         id="path62" />
    </clipPath>
    <clipPath
       id="79610ad07d">
      <path
         d="M 69.566406,257 217.97266,283.48828 180.54687,493.17187 32.140625,466.6875 Z m 0,0"
         clip-rule="nonzero"
         id="path63" />
    </clipPath>
    <clipPath
       id="dd33dff2e2">
      <path
         d="m 106,433 h 42 v 47 h -42 z m 0,0"
         clip-rule="nonzero"
         id="path64" />
    </clipPath>
    <clipPath
       id="ec88af0581">
      <path
         d="M 69.566406,257 217.97266,283.48828 180.54687,493.17187 32.140625,466.6875 Z m 0,0"
         clip-rule="nonzero"
         id="path65" />
    </clipPath>
    <clipPath
       id="01c8ef2e6b">
      <path
         d="M 69.566406,257 217.97266,283.48828 180.54687,493.17187 32.140625,466.6875 Z m 0,0"
         clip-rule="nonzero"
         id="path66" />
    </clipPath>
    <clipPath
       id="7393fece81">
      <rect
         x="0"
         width="468"
         y="0"
         height="96"
         id="rect66" />
    </clipPath>
  </defs>
  <g
     id="g153"
     transform="translate(-35.059708,6.6416542)">
    <g
       clip-path="url(#ebeb9d4d76)"
       id="g69"
       transform="translate(6.5716243,-268)">
      <g
         clip-path="url(#4fc3c56188)"
         id="g68">
        <g
           clip-path="url(#fe49f9c24e)"
           id="g67">
          <path
             fill="#ffc107"
             d="m 99.132812,279.80469 c 7.074218,-1.69922 14.242188,-2.61719 21.515628,-2.76563 7.26953,-0.14453 14.46875,0.48828 21.60156,1.90235 7.18359,1.15234 14.16406,3.05859 20.9375,5.71093 6.77344,2.65235 13.19141,5.9961 19.24609,10.02735 0.23828,0.17187 0.49219,0.32031 0.75782,0.4414 0.26953,0.1211 0.54687,0.21485 0.83203,0.28125 0.28515,0.0664 0.57812,0.10547 0.87109,0.11328 0.29297,0.008 0.58594,-0.0117 0.875,-0.0625 0.28906,-0.0508 0.57422,-0.1289 0.84766,-0.23437 0.27343,-0.10547 0.53515,-0.23828 0.78125,-0.39844 0.25,-0.15625 0.47656,-0.33984 0.6875,-0.54297 0.21484,-0.20312 0.40234,-0.42578 0.57031,-0.66797 0.16797,-0.24218 0.30859,-0.5 0.42187,-0.76953 0.11719,-0.26953 0.20313,-0.55078 0.26563,-0.83984 0.0586,-0.28516 0.0898,-0.57813 0.0898,-0.87109 0.004,-0.29297 -0.0234,-0.58594 -0.082,-0.875 -0.0547,-0.28907 -0.14062,-0.56641 -0.25,-0.83985 -0.11328,-0.27344 -0.25,-0.53125 -0.41406,-0.77344 -0.16406,-0.24609 -0.35156,-0.46875 -0.5625,-0.67578 -0.20703,-0.20703 -0.43359,-0.39062 -0.67969,-0.55468 -6.57422,-4.39063 -13.54297,-8.03125 -20.89844,-10.92579 -7.35937,-2.89453 -14.9375,-4.97265 -22.74218,-6.23437 -7.76172,-1.52734 -15.59375,-2.20703 -23.50391,-2.03516 -7.90625,0.17188 -15.70312,1.1875 -23.390624,3.04688 -0.289062,0.0664 -0.566406,0.16015 -0.835937,0.28125 -0.269531,0.125 -0.523438,0.26953 -0.761719,0.44531 -0.238281,0.17188 -0.457031,0.36719 -0.660156,0.58203 -0.199219,0.21875 -0.375,0.45313 -0.527344,0.70703 -0.152344,0.25 -0.28125,0.51563 -0.378906,0.79297 -0.101563,0.28125 -0.171875,0.5625 -0.214844,0.85547 -0.04297,0.29297 -0.05469,0.58594 -0.03906,0.88281 0.01562,0.29297 0.0625,0.58203 0.136718,0.86719 0.07422,0.28906 0.175782,0.5625 0.304688,0.82813 0.128906,0.26562 0.285156,0.51562 0.464844,0.75 0.179687,0.23437 0.378906,0.44531 0.601562,0.64062 0.222656,0.19531 0.464844,0.36328 0.722656,0.50781 0.253906,0.14844 0.523438,0.26563 0.804688,0.35938 0.28125,0.0898 0.566406,0.15234 0.859375,0.1875 0.292969,0.0351 0.585937,0.0391 0.882812,0.0156 0.292969,-0.0234 0.582031,-0.0781 0.863281,-0.16015 z m 0,0"
             fill-opacity="1"
             fill-rule="nonzero"
             id="path67" />
        </g>
      </g>
    </g>
    <g
       clip-path="url(#fb36b978e6)"
       id="g72"
       transform="translate(6.5716243,-268)">
      <g
         clip-path="url(#77699b4ee7)"
         id="g71">
        <g
           clip-path="url(#1043e2a2b7)"
           id="g70">
          <path
             fill="#ffc107"
             d="m 76.972656,310.8125 c 1.101563,-0.8125 2.222656,-1.59375 3.363282,-2.34766 1.140624,-0.7539 2.300781,-1.47656 3.476562,-2.17187 1.179688,-0.69531 2.375,-1.35938 3.585938,-1.99219 1.210937,-0.63281 2.4375,-1.23437 3.679687,-1.80859 1.242187,-0.57032 2.5,-1.10938 3.769531,-1.6211 1.269532,-0.50781 2.550782,-0.98047 3.84375,-1.42578 1.292969,-0.4414 2.597654,-0.85156 3.910154,-1.23047 1.31641,-0.375 2.64063,-0.71875 3.96875,-1.03125 1.33203,-0.30859 2.67188,-0.58593 4.01953,-0.82812 1.34375,-0.24219 2.69532,-0.44922 4.05079,-0.625 1.35546,-0.17188 2.71875,-0.3125 4.08203,-0.41797 1.36328,-0.10156 2.72656,-0.17188 4.09375,-0.20703 1.36718,-0.0391 2.73437,-0.0391 4.10156,-0.004 1.36719,0.0312 2.73047,0.10156 4.09375,0.20313 1.36328,0.10547 2.72656,0.24218 4.08203,0.41406 1.35547,0.17187 2.70703,0.375 4.05469,0.61719 1.34375,0.23828 2.68359,0.51562 4.01562,0.82031 1.33203,0.30859 2.65625,0.65234 3.97266,1.02734 1.3125,0.375 2.61719,0.78125 3.91406,1.22266 1.29297,0.44141 2.57422,0.91797 3.84375,1.42187 1.27344,0.50782 2.52734,1.04688 3.77344,1.61719 1.24219,0.56641 2.46875,1.16797 3.67969,1.80078 1.21484,0.63282 2.41015,1.29688 3.58984,1.98828 1.17969,0.69141 2.33984,1.41407 3.48047,2.16797 1.14062,0.75 2.26562,1.53125 3.36719,2.33985 1.10156,0.80859 2.18359,1.64453 3.24609,2.50781 1.05859,0.86328 2.09766,1.75 3.11328,2.66797 1.01563,0.91406 2.00781,1.85547 2.97266,2.82422 0.96875,0.96484 1.91015,1.95312 2.82812,2.96875 0.91797,1.01562 1.8086,2.05078 2.67578,3.10937 0.86328,1.0586 1.70313,2.14063 2.51172,3.24219 0.8086,1.10156 1.58985,2.22266 2.34375,3.36328 0.33985,0.45703 0.75391,0.83594 1.24219,1.13281 0.48437,0.29688 1.01172,0.49219 1.57422,0.58594 0.55859,0.0937 1.12109,0.0781 1.67578,-0.043 0.55859,-0.125 1.07031,-0.34765 1.54297,-0.66797 0.46875,-0.32031 0.86328,-0.71875 1.17969,-1.1914 0.3164,-0.47657 0.53125,-0.99219 0.64843,-1.55078 0.11719,-0.5586 0.125,-1.11719 0.0273,-1.67579 -0.10157,-0.5625 -0.30469,-1.08593 -0.60547,-1.57031 -0.83594,-1.25781 -1.70313,-2.5 -2.60156,-3.71484 -0.89844,-1.21875 -1.82813,-2.41406 -2.78516,-3.58203 -0.96094,-1.17188 -1.94922,-2.31641 -2.96484,-3.4375 -1.01563,-1.1211 -2.0625,-2.21485 -3.13282,-3.28516 -1.07422,-1.06641 -2.17187,-2.10547 -3.29687,-3.11719 -1.125,-1.01562 -2.27344,-1.99609 -3.44922,-2.95312 -1.17188,-0.95313 -2.37109,-1.875 -3.59375,-2.76953 -1.21875,-0.89453 -2.46484,-1.75391 -3.72656,-2.58594 -1.26563,-0.83203 -2.55078,-1.62891 -3.85547,-2.39453 -1.30469,-0.76563 -2.62891,-1.5 -3.97266,-2.19531 -1.33984,-0.69922 -2.69922,-1.36329 -4.07812,-1.9961 -1.375,-0.6289 -2.76563,-1.22265 -4.17188,-1.78515 -1.40625,-0.5586 -2.82422,-1.08204 -4.25781,-1.57032 -1.42969,-0.48828 -2.875,-0.9375 -4.32813,-1.35547 -1.45703,-0.41406 -2.92187,-0.78906 -4.39453,-1.13281 -1.47656,-0.33984 -2.95703,-0.64453 -4.44922,-0.91015 -1.48828,-0.26563 -2.98437,-0.49219 -4.48437,-0.6836 -1.5,-0.1914 -3.00781,-0.33984 -4.51563,-0.45703 -1.50781,-0.11328 -3.01953,-0.1875 -4.53124,-0.22656 -1.51563,-0.0391 -3.02735,-0.0391 -4.53907,0 -1.51172,0.0391 -3.02343,0.11719 -4.53125,0.23437 -1.51172,0.11328 -3.01562,0.26563 -4.51562,0.45703 -1.5,0.19141 -2.9961,0.42188 -4.48438,0.6875 -1.49218,0.26563 -2.97265,0.57032 -4.44922,0.91407 -1.47265,0.33984 -2.9375,0.71875 -4.39062,1.13672 -1.457032,0.41406 -2.898439,0.86718 -4.332032,1.35546 -1.429688,0.49219 -2.851563,1.01563 -4.253907,1.57422 -1.40625,0.5625 -2.796875,1.15625 -4.171875,1.78907 -1.375,0.63281 -2.734375,1.29687 -4.078125,1.99609 -1.339843,0.69922 -2.664062,1.43359 -3.96875,2.19922 -1.304687,0.76562 -2.589843,1.5664 -3.851562,2.39844 -1.265625,0.83203 -2.507813,1.69531 -3.730469,2.58593 -0.433594,0.35547 -0.785156,0.77735 -1.058594,1.26563 -0.277344,0.48828 -0.449218,1.00781 -0.527344,1.5625 -0.07422,0.55469 -0.04687,1.10547 0.08984,1.64844 0.132813,0.54296 0.359375,1.04296 0.683594,1.5 0.324219,0.45703 0.71875,0.83984 1.191406,1.14453 0.46875,0.30859 0.976563,0.51562 1.523438,0.6289 0.550781,0.11328 1.097656,0.1211 1.652344,0.0234 0.550781,-0.0977 1.0625,-0.29297 1.542968,-0.58203 z m 0,0"
             fill-opacity="1"
             fill-rule="nonzero"
             id="path69" />
        </g>
      </g>
    </g>
    <g
       clip-path="url(#fba8ec841a)"
       id="g75"
       transform="translate(6.5716243,-268)">
      <g
         clip-path="url(#057c4f5523)"
         id="g74">
        <g
           clip-path="url(#684934d743)"
           id="g73">
          <path
             fill="#ffc107"
             d="m 137.59766,305.01953 c -6.17969,-1.10547 -12.40235,-1.42969 -18.66407,-0.97266 -0.29296,0.0156 -0.58203,0.0586 -0.86718,0.13282 -0.28516,0.0703 -0.5586,0.17187 -0.82422,0.29687 -0.26563,0.12891 -0.51563,0.28125 -0.75,0.45703 -0.23438,0.17969 -0.44922,0.375 -0.64453,0.59766 -0.19532,0.21875 -0.36719,0.45703 -0.51563,0.71094 -0.14844,0.2539 -0.26562,0.51953 -0.36328,0.80078 -0.0937,0.27734 -0.16016,0.5625 -0.19531,0.85547 -0.0391,0.28906 -0.0469,0.58203 -0.0234,0.875 0.0195,0.29687 0.0703,0.58203 0.14844,0.86718 0.0781,0.28125 0.18359,0.55469 0.3164,0.81641 0.13672,0.26563 0.29297,0.51172 0.47657,0.74219 0.18359,0.23047 0.38672,0.4414 0.60937,0.6289 0.22656,0.19141 0.46485,0.35547 0.72266,0.5 0.25781,0.14063 0.52734,0.25391 0.80859,0.34375 0.28125,0.0859 0.56641,0.14454 0.85938,0.17579 0.29297,0.0312 0.58593,0.0312 0.8789,0.004 1.25391,-0.0898 2.50782,-0.14453 3.76172,-0.16015 1.25781,-0.0195 2.51172,-0.004 3.76563,0.0508 1.2539,0.0508 2.50781,0.14062 3.75781,0.26172 1.24609,0.125 2.49219,0.28515 3.73437,0.48046 1.23828,0.19532 2.47266,0.42188 3.70313,0.6875 1.22656,0.26563 2.44531,0.5625 3.65625,0.89844 1.21094,0.33203 2.41015,0.70313 3.59765,1.10547 1.19141,0.40234 2.36719,0.83594 3.53125,1.30469 1.16797,0.46875 2.31641,0.97265 3.45313,1.5039 1.13672,0.53516 2.25781,1.10157 3.35937,1.69922 1.10547,0.59766 2.19141,1.22657 3.26172,1.88672 1.06641,0.66016 2.11719,1.35156 3.14453,2.07031 1.03125,0.71875 2.03907,1.46485 3.02344,2.24219 0.98828,0.77735 1.95313,1.58203 2.89453,2.41406 0.9375,0.82813 1.85547,1.6875 2.75,2.57032 0.89063,0.88281 1.75782,1.79297 2.59766,2.72265 0.83984,0.9336 1.65625,1.89063 2.44141,2.86719 0.78515,0.98047 1.54296,1.98047 2.27343,3.00391 0.73047,1.01953 1.42969,2.0625 2.10157,3.125 0.66796,1.0625 1.30859,2.14062 1.91796,3.23828 0.60938,1.09765 1.1875,2.21484 1.73438,3.34375 0.54297,1.13281 1.05859,2.27734 1.53906,3.4375 0.48047,1.16015 0.92578,2.33203 1.33985,3.51953 0.41406,1.18359 0.79687,2.37891 1.14062,3.58594 0.34766,1.20703 0.66016,2.42578 0.93359,3.64843 0.27735,1.22657 0.51954,2.45704 0.72657,3.69532 0.20703,1.23828 0.3789,2.48047 0.51562,3.73047 0.13672,1.25 0.23828,2.5 0.30469,3.7539 0.0625,1.25391 0.0937,2.50781 0.0859,3.76563 -0.004,1.2539 -0.0469,2.50781 -0.125,3.76172 -0.0742,1.2539 -0.1875,2.5039 -0.33594,3.75 -0.14844,1.24609 -0.33203,2.48828 -0.55078,3.72656 -0.0508,0.28515 -0.0742,0.57031 -0.0703,0.86328 0.008,0.28906 0.043,0.57422 0.10546,0.85937 0.0586,0.28125 0.14844,0.55469 0.26563,0.82032 0.11719,0.26562 0.25781,0.51953 0.42187,0.75781 0.16797,0.23828 0.35547,0.45703 0.5625,0.65625 0.21094,0.20312 0.4375,0.37891 0.67969,0.53516 0.2461,0.15625 0.50391,0.28906 0.77344,0.39453 0.26953,0.10547 0.54687,0.18359 0.83203,0.23437 0.28516,0.0508 0.57422,0.0742 0.86328,0.0664 0.28906,-0.004 0.57422,-0.0391 0.85938,-0.10156 0.28125,-0.0625 0.55859,-0.14844 0.82422,-0.26563 0.26562,-0.11719 0.51562,-0.25781 0.7539,-0.42578 0.23828,-0.16406 0.45703,-0.35156 0.65625,-0.55859 0.20313,-0.21094 0.37891,-0.4375 0.53516,-0.67969 0.15625,-0.2461 0.28906,-0.50391 0.39453,-0.77344 0.10547,-0.26953 0.18359,-0.54687 0.23437,-0.83203 0.21485,-1.21094 0.39844,-2.42188 0.55469,-3.64063 0.15625,-1.21875 0.28125,-2.4414 0.375,-3.66406 0.0937,-1.22265 0.16016,-2.44922 0.19531,-3.67578 0.0352,-1.23047 0.0391,-2.45703 0.0117,-3.68359 -0.0234,-1.23047 -0.0781,-2.45313 -0.16406,-3.67969 -0.0859,-1.22656 -0.20312,-2.44531 -0.34766,-3.66797 -0.14453,-1.21875 -0.32031,-2.43359 -0.52343,-3.64453 -0.20703,-1.21094 -0.44141,-2.41406 -0.70313,-3.61328 -0.26562,-1.19922 -0.55859,-2.39063 -0.88281,-3.57813 -0.32031,-1.18359 -0.67188,-2.35937 -1.05078,-3.52734 -0.38281,-1.16797 -0.78906,-2.32422 -1.22656,-3.47266 -0.4375,-1.14843 -0.90235,-2.28515 -1.39454,-3.41015 -0.49218,-1.125 -1.01171,-2.23438 -1.55859,-3.33594 -0.54687,-1.09766 -1.12109,-2.18359 -1.72266,-3.25391 -0.59765,-1.07031 -1.22656,-2.1289 -1.875,-3.16797 -0.65234,-1.03906 -1.33203,-2.0664 -2.03515,-3.07031 -0.69922,-1.00781 -1.42578,-2 -2.17578,-2.96875 -0.75391,-0.97265 -1.52735,-1.92578 -2.32422,-2.85937 -0.79688,-0.9336 -1.61719,-1.84766 -2.46094,-2.74219 -0.83984,-0.89453 -1.70312,-1.76563 -2.58984,-2.61719 -0.88282,-0.85156 -1.78907,-1.67969 -2.71485,-2.48437 -0.92578,-0.8086 -1.87109,-1.59375 -2.83593,-2.35157 -0.96485,-0.76171 -1.94532,-1.5 -2.94532,-2.21093 -1,-0.71094 -2.01562,-1.39844 -3.05078,-2.0625 -1.03515,-0.66407 -2.08203,-1.30078 -3.14844,-1.91016 -1.0664,-0.60937 -2.14453,-1.19531 -3.23828,-1.75391 -1.09375,-0.55859 -2.19922,-1.08984 -3.32031,-1.59375 -1.12109,-0.5039 -2.25,-0.98046 -3.39453,-1.42968 -1.14453,-0.44532 -2.29688,-0.86719 -3.46094,-1.25782 -1.16406,-0.39453 -2.33594,-0.7539 -3.51562,-1.08984 -1.1836,-0.33594 -2.3711,-0.64062 -3.56641,-0.91797 -1.19922,-0.27344 -2.40234,-0.51953 -3.60937,-0.73828 z m 0,0"
             fill-opacity="1"
             fill-rule="nonzero"
             id="path72" />
        </g>
      </g>
    </g>
    <g
       clip-path="url(#845a5a50a5)"
       id="g78"
       transform="translate(6.5716243,-268)">
      <g
         clip-path="url(#cd4099cf2a)"
         id="g77">
        <g
           clip-path="url(#69f1923339)"
           id="g76">
          <path
             fill="#ffc107"
             d="m 59.203125,367.33984 c 0.792969,-4.25 1.984375,-8.39062 3.570313,-12.41406 1.589843,-4.02344 3.546874,-7.85937 5.871093,-11.50391 2.328125,-3.64843 4.980469,-7.03906 7.957031,-10.17578 2.980469,-3.13672 6.230469,-5.96093 9.753907,-8.47265 4.773437,-3.37891 9.90625,-6.08203 15.394531,-8.10547 0.26953,-0.10156 0.53125,-0.22656 0.77734,-0.37891 0.2461,-0.15234 0.47657,-0.32422 0.69141,-0.52344 0.21094,-0.19531 0.40234,-0.41015 0.57422,-0.64453 0.17187,-0.23437 0.31641,-0.48437 0.4375,-0.75 0.12109,-0.26172 0.21484,-0.53515 0.28516,-0.8164 0.0664,-0.28125 0.10546,-0.56641 0.11718,-0.85938 0.0117,-0.28906 -0.008,-0.57422 -0.0508,-0.86328 -0.0469,-0.28516 -0.12109,-0.56641 -0.21875,-0.83594 -0.10156,-0.27343 -0.22656,-0.53125 -0.3789,-0.78125 -0.15235,-0.24609 -0.32422,-0.47656 -0.52344,-0.6875 -0.19531,-0.21484 -0.41016,-0.40625 -0.64844,-0.57812 -0.23437,-0.16797 -0.48047,-0.31641 -0.74609,-0.4375 -0.26172,-0.1211 -0.53516,-0.21485 -0.81641,-0.28125 -0.28125,-0.0664 -0.57031,-0.10938 -0.85937,-0.11719 -0.28907,-0.0117 -0.57813,0.004 -0.863286,0.0508 -0.285156,0.043 -0.566406,0.11719 -0.839844,0.21875 -3.0625,1.13281 -6.039062,2.45703 -8.929688,3.97656 -2.890624,1.51954 -5.671874,3.21875 -8.34375,5.09766 -2.671874,1.875 -5.207031,3.92188 -7.617187,6.12891 -2.40625,2.20703 -4.660156,4.55859 -6.761719,7.05859 -2.101562,2.5 -4.03125,5.125 -5.792968,7.875 -1.761719,2.75 -3.339844,5.60156 -4.730469,8.55469 -1.394531,2.95312 -2.589844,5.98437 -3.589844,9.09375 -1,3.10937 -1.792969,6.26953 -2.386719,9.48047 -0.05469,0.28515 -0.08203,0.57422 -0.08203,0.86718 0.0039,0.28907 0.03125,0.57813 0.08984,0.86329 0.05859,0.28125 0.144531,0.55859 0.257812,0.82812 0.113281,0.26563 0.25,0.52344 0.414063,0.76172 0.160156,0.24219 0.347656,0.46484 0.554687,0.66797 0.203125,0.20312 0.429688,0.38672 0.671875,0.54687 0.242188,0.16016 0.5,0.29297 0.769532,0.40235 0.269531,0.10937 0.546874,0.1914 0.832031,0.24609 l 0.05078,0.008 c 0.285156,0.0508 0.566406,0.0742 0.855469,0.0703 0.285156,-0.004 0.570312,-0.0391 0.851562,-0.0977 0.28125,-0.0625 0.550781,-0.14844 0.816407,-0.26172 0.261718,-0.11328 0.511718,-0.25 0.75,-0.41406 0.234374,-0.16016 0.453124,-0.34375 0.65625,-0.55078 0.199218,-0.20313 0.378906,-0.42578 0.539062,-0.66797 0.15625,-0.23828 0.289062,-0.49219 0.398438,-0.75781 0.105468,-0.26563 0.1875,-0.53907 0.242187,-0.82032 z m 0,0"
             fill-opacity="1"
             fill-rule="nonzero"
             id="path75" />
        </g>
      </g>
    </g>
    <g
       clip-path="url(#ad15255f3e)"
       id="g81"
       transform="translate(6.5716243,-268)">
      <g
         clip-path="url(#85e3c2b33d)"
         id="g80">
        <g
           clip-path="url(#f758d2cfe5)"
           id="g79">
          <path
             fill="#ffc107"
             d="m 76.410156,371.44141 c 0.535156,-3.21875 1.378906,-6.35547 2.53125,-9.40625 1.152344,-3.05469 2.589844,-5.96485 4.316406,-8.73438 1.726563,-2.76953 3.703126,-5.34766 5.9375,-7.72656 2.230469,-2.37891 4.675782,-4.51953 7.328126,-6.41797 2.613281,-1.85547 5.382812,-3.42969 8.312502,-4.72656 2.92969,-1.30078 5.95703,-2.29297 9.08203,-2.98828 3.12891,-0.69141 6.29297,-1.06641 9.49609,-1.125 3.20313,-0.0547 6.37891,0.20312 9.53125,0.78125 3.41406,0.61328 6.72656,1.57812 9.9336,2.89843 3.21093,1.32422 6.24218,2.96875 9.09765,4.94141 2.85547,1.97266 5.46875,4.22266 7.83985,6.75781 2.375,2.53125 4.45312,5.28516 6.23437,8.26172 0.14453,0.26172 0.3125,0.50391 0.50391,0.72656 0.1914,0.22657 0.40234,0.42969 0.63672,0.61328 0.23437,0.1836 0.48437,0.33985 0.74609,0.47266 0.26562,0.13281 0.54297,0.23828 0.82812,0.3125 0.28516,0.0781 0.57813,0.125 0.8711,0.14453 0.29687,0.0195 0.58984,0.008 0.88672,-0.0312 0.29297,-0.043 0.57812,-0.11328 0.85547,-0.21094 0.28125,-0.0976 0.54687,-0.22265 0.80078,-0.375 0.2539,-0.15234 0.49218,-0.32812 0.71093,-0.52734 0.21875,-0.19922 0.41407,-0.42187 0.58985,-0.66016 0.17578,-0.23828 0.32422,-0.49218 0.44531,-0.76171 0.125,-0.26954 0.21875,-0.54688 0.28906,-0.83594 0.0664,-0.28906 0.10157,-0.58203 0.11328,-0.87891 0.008,-0.29687 -0.0156,-0.58984 -0.0664,-0.88281 -0.0508,-0.28906 -0.12891,-0.57422 -0.23828,-0.84766 -0.10547,-0.27734 -0.24219,-0.53906 -0.40235,-0.78906 -1.04687,-1.75391 -2.1875,-3.44922 -3.42187,-5.08203 -1.23047,-1.63281 -2.54297,-3.19531 -3.94141,-4.6875 -1.39844,-1.49219 -2.87109,-2.90234 -4.42187,-4.23828 -1.55078,-1.33594 -3.16407,-2.58203 -4.84766,-3.7461 -1.68359,-1.16015 -3.42187,-2.23046 -5.21875,-3.20703 -1.79687,-0.97656 -3.64062,-1.85156 -5.53125,-2.63281 -1.89062,-0.77734 -3.81641,-1.45312 -5.78125,-2.02734 -1.96094,-0.57422 -3.94922,-1.03907 -5.96094,-1.39844 -3.72656,-0.67969 -7.48046,-0.98047 -11.26562,-0.90234 -3.78516,0.0742 -7.52734,0.52343 -11.21875,1.34375 -3.69531,0.82421 -7.27344,2.00781 -10.73438,3.54296 -3.457028,1.53907 -6.730465,3.40625 -9.816402,5.60157 -3.136719,2.23828 -6.027344,4.76562 -8.667969,7.57422 -2.640625,2.80859 -4.980469,5.85156 -7.023438,9.12109 -2.039062,3.27344 -3.742187,6.71484 -5.101562,10.32031 -1.363281,3.60938 -2.359375,7.3125 -2.992188,11.11719 -1.160156,5.41797 -2.898437,10.64453 -5.210937,15.67578 -2.316406,5.03516 -5.148438,9.75781 -8.5,14.16797 l -3.21875,3.91016 c -0.195313,0.22265 -0.371094,0.46093 -0.519532,0.71875 -0.144531,0.25781 -0.269531,0.52343 -0.363281,0.80468 -0.09375,0.28125 -0.15625,0.57032 -0.195312,0.86328 -0.03516,0.29688 -0.04297,0.58985 -0.01953,0.88672 0.02344,0.29688 0.07812,0.58594 0.160156,0.8711 0.08203,0.28515 0.191406,0.55859 0.328125,0.82031 0.136719,0.26562 0.296875,0.51172 0.484375,0.74219 0.1875,0.23047 0.394531,0.4375 0.625,0.6289 0.226562,0.1875 0.472656,0.35157 0.734375,0.48828 0.261719,0.14063 0.535156,0.25391 0.820312,0.33594 0.28125,0.0859 0.574219,0.14063 0.867188,0.16406 0.296875,0.0274 0.589843,0.0234 0.886719,-0.0117 0.292968,-0.0352 0.582031,-0.0977 0.863281,-0.1875 0.28125,-0.0937 0.550781,-0.21094 0.8125,-0.35938 0.257812,-0.14453 0.496093,-0.31641 0.71875,-0.50781 0.226562,-0.19531 0.425781,-0.41016 0.605469,-0.64844 L 60.9375,405.375 c 3.824219,-5 7.039062,-10.36328 9.652344,-16.09375 2.613281,-5.72656 4.550781,-11.67188 5.820312,-17.83984 z m 0,0"
             fill-opacity="1"
             fill-rule="nonzero"
             id="path78" />
        </g>
      </g>
    </g>
    <g
       clip-path="url(#64ba7d96ae)"
       id="g84"
       transform="translate(6.5716243,-268)">
      <g
         clip-path="url(#192baba78a)"
         id="g83">
        <g
           clip-path="url(#2f241771d3)"
           id="g82">
          <path
             fill="#ffc107"
             d="m 178.00391,423.63281 c -0.22266,-10.875 0.625,-21.66406 2.53906,-32.36719 l 0.37109,-2.27343 c 1.15625,-6.45313 1.20703,-12.91016 0.14453,-19.375 -0.0508,-0.28125 -0.1289,-0.55469 -0.23437,-0.82032 -0.10547,-0.26562 -0.23438,-0.51953 -0.39063,-0.75781 -0.15625,-0.24219 -0.33203,-0.46484 -0.52734,-0.67187 -0.19922,-0.20313 -0.41406,-0.39063 -0.64844,-0.55469 -0.23437,-0.16406 -0.48047,-0.30469 -0.74219,-0.41797 -0.26171,-0.11719 -0.53125,-0.20703 -0.80859,-0.26953 -0.28125,-0.0664 -0.5625,-0.10156 -0.84766,-0.10938 -0.28515,-0.0117 -0.57031,0.008 -0.85156,0.0547 -0.28125,0.0469 -0.55469,0.11719 -0.82422,0.21875 -0.26562,0.0977 -0.52343,0.22266 -0.76562,0.3711 -0.2461,0.14843 -0.47266,0.32031 -0.6836,0.51562 -0.20703,0.19141 -0.39843,0.40234 -0.5664,0.63281 -0.17188,0.23047 -0.31641,0.47266 -0.4375,0.73438 -0.125,0.25781 -0.21875,0.52344 -0.28906,0.80078 -0.0703,0.27734 -0.11329,0.55859 -0.12891,0.84375 -0.0156,0.28516 -0.004,0.57031 0.0352,0.85156 0.90234,5.51172 0.85546,11.01953 -0.14063,16.51563 l -0.36328,2.34765 c -2.01953,11.39063 -2.88672,22.86719 -2.60547,34.4336 l 2.05078,17.26562 c 0.0586,0.46875 0.1875,0.91797 0.38672,1.34766 0.20313,0.42969 0.46484,0.8164 0.78906,1.16015 0.32813,0.34375 0.69922,0.625 1.11328,0.85157 0.41797,0.22265 0.85938,0.3789 1.32422,0.46093 0.33985,0.0625 0.6836,0.082 1.02735,0.0625 0.34765,-0.0195 0.68359,-0.0781 1.01562,-0.17578 0.33203,-0.0976 0.64453,-0.23437 0.94531,-0.40625 0.29688,-0.17187 0.57422,-0.3789 0.82422,-0.61328 0.25391,-0.23828 0.47266,-0.5 0.66407,-0.78906 0.1875,-0.28906 0.33984,-0.59375 0.45703,-0.92188 0.12109,-0.32421 0.19922,-0.65625 0.23828,-1 0.0391,-0.34375 0.0352,-0.6875 -0.004,-1.02734 z m 0,0"
             fill-opacity="1"
             fill-rule="nonzero"
             id="path81" />
        </g>
      </g>
    </g>
    <g
       clip-path="url(#fcbceb5b11)"
       id="g87"
       transform="translate(6.5716243,-268)">
      <g
         clip-path="url(#6d21c161d3)"
         id="g86">
        <g
           clip-path="url(#f2b84b661a)"
           id="g85">
          <path
             fill="#ffc107"
             d="m 162.05469,444.6875 c -2.14453,-19.66406 -1.65235,-39.26563 1.47265,-58.80078 0.21485,-1.28125 0.36719,-2.57422 0.45703,-3.8711 0.0898,-1.29687 0.11719,-2.59765 0.0781,-3.89843 -0.0391,-1.30078 -0.14063,-2.59766 -0.30469,-3.88672 -0.16797,-1.29297 -0.39453,-2.57031 -0.6875,-3.83985 -0.28906,-1.26953 -0.64453,-2.51953 -1.05859,-3.7539 -0.41406,-1.23438 -0.88672,-2.44531 -1.41797,-3.63281 -0.53516,-1.1875 -1.125,-2.34375 -1.77344,-3.47266 -0.64453,-1.12891 -1.34765,-2.22266 -2.10156,-3.28516 -0.75391,-1.05859 -1.55859,-2.08203 -2.41406,-3.0625 -0.85547,-0.98047 -1.75391,-1.91797 -2.70313,-2.8125 -0.94531,-0.89062 -1.93359,-1.73437 -2.96484,-2.53125 -1.02735,-0.79687 -2.09375,-1.53906 -3.19922,-2.23047 -1.10156,-0.6914 -2.23438,-1.32421 -3.40234,-1.90625 -1.16407,-0.57812 -2.35547,-1.09765 -3.57032,-1.5625 -1.21875,-0.46093 -2.45312,-0.86328 -3.71093,-1.20312 -1.25391,-0.34375 -2.52344,-0.62109 -3.8086,-0.83594 -1.28125,-0.21875 -2.57422,-0.37109 -3.87109,-0.46094 -1.29688,-0.0898 -2.59766,-0.11328 -3.89844,-0.0742 -1.30078,0.0391 -2.59765,0.14062 -3.88672,0.30468 -1.29297,0.16407 -2.57031,0.39453 -3.83984,0.6836 -1.26953,0.29297 -2.51953,0.64453 -3.75391,1.05859 -1.23437,0.41406 -2.44531,0.89063 -3.63281,1.42188 -1.18359,0.53515 -2.34375,1.125 -3.47266,1.76953 -1.1289,0.64843 -2.22265,1.34765 -3.28515,2.10156 -1.0586,0.75781 -2.082034,1.5625 -3.062502,2.41406 -0.980469,0.85547 -1.917969,1.75781 -2.8125,2.70313 -0.890626,0.94922 -1.734376,1.9375 -2.53125,2.96484 -0.796876,1.03125 -1.539063,2.09766 -2.230469,3.19922 -0.691407,1.10547 -1.324219,2.23828 -1.90625,3.40234 -0.578125,1.16797 -1.097657,2.35938 -1.5625,3.57422 -0.460938,1.21485 -0.863281,2.45313 -1.203125,3.70703 -0.34375,1.25782 -0.621094,2.52735 -0.835938,3.8086 -1.089844,4.91015 -2.527344,9.71484 -4.320312,14.41406 -1.792969,4.69922 -3.917969,9.23828 -6.378906,13.625 -2.457032,4.38672 -5.226563,8.57031 -8.296876,12.55078 -3.074218,3.98047 -6.421874,7.71484 -10.042968,11.20313 -0.207032,0.20703 -0.386719,0.42968 -0.546875,0.67187 -0.160157,0.23828 -0.296875,0.49609 -0.40625,0.76172 -0.113281,0.26953 -0.195313,0.54687 -0.25,0.83203 -0.05469,0.28125 -0.08594,0.57031 -0.08203,0.85938 0,0.28906 0.02734,0.57812 0.08594,0.86328 0.05859,0.28125 0.140625,0.55859 0.253906,0.82812 0.109375,0.26563 0.246094,0.51953 0.410157,0.76172 0.160156,0.23828 0.34375,0.46094 0.550781,0.66797 0.203125,0.20312 0.429687,0.38672 0.667969,0.54687 0.242187,0.16016 0.5,0.29688 0.765624,0.40625 0.269532,0.10938 0.546876,0.19141 0.828126,0.25 0.285156,0.0547 0.574218,0.082 0.863281,0.082 0.289062,0 0.578125,-0.0312 0.863281,-0.0859 0.28125,-0.0586 0.558594,-0.14453 0.824219,-0.25391 0.269531,-0.11328 0.523437,-0.25 0.765625,-0.41015 0.238281,-0.16407 0.460937,-0.34766 0.667968,-0.55079 3.957032,-3.80468 7.609376,-7.88281 10.960938,-12.23046 3.347656,-4.35157 6.355469,-8.92188 9.027344,-13.71875 2.667968,-4.79688 4.964844,-9.76563 6.894531,-14.90625 1.929687,-5.14063 3.464844,-10.39454 4.613281,-15.76172 0.167969,-1 0.386719,-1.98828 0.652344,-2.96485 0.265625,-0.97656 0.578125,-1.9375 0.941406,-2.88281 0.359375,-0.94531 0.765625,-1.87109 1.21875,-2.77734 0.449219,-0.90625 0.945313,-1.78907 1.484375,-2.64844 0.539063,-0.85547 1.117188,-1.68359 1.738281,-2.48438 0.617184,-0.80078 1.277344,-1.57031 1.972654,-2.30468 0.69531,-0.73828 1.42578,-1.4375 2.1875,-2.10157 0.76562,-0.66406 1.55859,-1.28906 2.38672,-1.875 0.82422,-0.58593 1.67578,-1.13281 2.55469,-1.63281 0.8789,-0.5039 1.78125,-0.96094 2.70703,-1.375 0.92187,-0.41406 1.86718,-0.78125 2.82422,-1.10156 0.96093,-0.32031 1.9375,-0.59375 2.92187,-0.82031 0.98828,-0.22657 1.98438,-0.40235 2.98828,-0.52735 1.00391,-0.1289 2.01172,-0.20703 3.02344,-0.23437 1.01172,-0.0312 2.02344,-0.008 3.03516,0.0625 1.00781,0.0703 2.01171,0.1914 3.01171,0.35937 1,0.17188 1.98438,0.39063 2.96094,0.65625 0.97656,0.26563 1.94141,0.58203 2.88672,0.94141 0.94531,0.36328 1.87109,0.76953 2.77734,1.21875 0.90625,0.45312 1.78516,0.94922 2.64453,1.48828 0.85547,0.53906 1.6875,1.11719 2.48438,1.73828 0.80078,0.6211 1.57031,1.27735 2.30469,1.97266 0.73437,0.69922 1.4375,1.42578 2.10156,2.1914 0.66406,0.76563 1.28516,1.5586 1.87109,2.38672 0.58594,0.82422 1.13282,1.67969 1.63282,2.5586 0.5,0.8789 0.96093,1.78125 1.37109,2.70312 0.41406,0.92578 0.78125,1.86719 1.10156,2.82813 0.32031,0.96093 0.59375,1.93359 0.82031,2.92187 0.22266,0.98828 0.39844,1.98438 0.52735,2.98828 0.125,1.00391 0.20312,2.01172 0.23047,3.02344 0.0312,1.01172 0.008,2.02344 -0.0625,3.03516 -0.0742,1.00781 -0.19532,2.01172 -0.36328,3.01172 -3.25391,20.39062 -3.75391,40.85156 -1.5,61.3789 l 1.71093,13.61719 c 0.0586,0.46484 0.19141,0.91406 0.39063,1.33984 0.20312,0.42578 0.46484,0.8125 0.78906,1.15235 0.32422,0.34375 0.69531,0.625 1.10938,0.84765 0.41796,0.22657 0.85546,0.37891 1.32031,0.46094 0.4375,0.0781 0.8789,0.0937 1.32031,0.0391 0.28906,-0.0391 0.57031,-0.10156 0.84375,-0.1914 0.27734,-0.0937 0.53906,-0.21094 0.79297,-0.35547 0.25,-0.14063 0.48828,-0.3086 0.70703,-0.5 0.21875,-0.1875 0.41797,-0.39844 0.59375,-0.625 0.17969,-0.23047 0.33203,-0.47266 0.46094,-0.73438 0.13281,-0.25781 0.23437,-0.52734 0.3125,-0.80859 0.0742,-0.27734 0.125,-0.5625 0.14453,-0.85156 0.0195,-0.28907 0.0117,-0.57813 -0.0234,-0.86719 z m 0,0"
             fill-opacity="1"
             fill-rule="nonzero"
             id="path84" />
        </g>
      </g>
    </g>
    <g
       clip-path="url(#165a3c55a5)"
       id="g90"
       transform="translate(6.5716243,-268)">
      <g
         clip-path="url(#2886d65d86)"
         id="g89">
        <g
           clip-path="url(#c7732fd6ae)"
           id="g88">
          <path
             fill="#ffc107"
             d="m 146.14062,382.78516 c 0.125,-0.71094 0.21485,-1.42969 0.26954,-2.14844 0.0508,-0.72266 0.0703,-1.44531 0.0547,-2.16797 -0.0195,-0.72266 -0.0703,-1.44141 -0.16015,-2.16016 -0.0859,-0.71875 -0.21094,-1.42968 -0.36719,-2.13281 -0.16016,-0.70703 -0.35156,-1.40234 -0.57813,-2.08984 -0.22656,-0.6875 -0.48437,-1.35938 -0.77734,-2.02344 -0.29297,-0.66016 -0.61719,-1.30469 -0.97266,-1.93359 -0.35546,-0.62891 -0.74218,-1.23829 -1.16015,-1.83204 -0.41406,-0.58984 -0.85938,-1.16015 -1.33203,-1.70703 -0.46875,-0.54687 -0.96875,-1.07031 -1.49219,-1.57031 -0.52344,-0.5 -1.07031,-0.97266 -1.64063,-1.41797 -0.5664,-0.44531 -1.15625,-0.85937 -1.76953,-1.24609 -0.60937,-0.38672 -1.23828,-0.7461 -1.88281,-1.07031 -0.64453,-0.32422 -1.30469,-0.61719 -1.98047,-0.87891 -0.67578,-0.26172 -1.35937,-0.48828 -2.05469,-0.67969 -0.69921,-0.19531 -1.40234,-0.35156 -2.11328,-0.47656 -0.71484,-0.125 -1.42968,-0.21094 -2.15234,-0.26563 -0.71875,-0.0547 -1.44141,-0.0742 -2.16406,-0.0547 -0.72266,0.0156 -1.44531,0.0703 -2.16016,0.15625 -0.71875,0.0898 -1.42969,0.21093 -2.13672,0.37109 -0.70312,0.15625 -1.40234,0.34766 -2.08593,0.57422 -0.6875,0.22656 -1.36329,0.48828 -2.02344,0.78125 -0.66016,0.29297 -1.30469,0.61719 -1.9336,0.97266 -0.63281,0.35546 -1.24218,0.74218 -1.83203,1.15625 -0.59375,0.41796 -1.16015,0.85937 -1.71093,1.33203 -0.54688,0.47265 -1.07032,0.96875 -1.56641,1.49218 -0.5,0.52344 -0.97266,1.07032 -1.41797,1.64063 -0.44531,0.57031 -0.85937,1.16016 -1.25,1.76953 -0.38672,0.60938 -0.74219,1.23828 -1.06641,1.88281 -0.32812,0.64844 -0.62109,1.3086 -0.8789,1.98047 -0.26172,0.67578 -0.48828,1.35938 -0.6836,2.0586 -0.1914,0.69531 -0.35156,1.40234 -0.47265,2.11328 -1.39063,6.43359 -3.285159,12.71484 -5.683596,18.84375 -2.398438,6.13281 -5.269532,12.03125 -8.613282,17.69922 -3.34375,5.67187 -7.117187,11.03906 -11.320312,16.10546 -4.203125,5.0625 -8.785156,9.76172 -13.742188,14.08985 -0.207031,0.19922 -0.398437,0.41406 -0.5625,0.64844 -0.167968,0.23046 -0.3125,0.48046 -0.429687,0.73828 -0.117187,0.26172 -0.210937,0.53125 -0.277344,0.8125 -0.06641,0.27734 -0.105469,0.5625 -0.113281,0.84765 -0.01172,0.28516 0.0039,0.57032 0.05078,0.85547 0.04297,0.28125 0.113281,0.5586 0.214844,0.82813 0.09766,0.26953 0.222656,0.52734 0.371094,0.77343 0.148437,0.2461 0.316406,0.47266 0.511719,0.6836 0.191406,0.21484 0.40625,0.40625 0.636718,0.57422 0.230469,0.17187 0.472656,0.32031 0.734375,0.4414 0.257813,0.125 0.527344,0.21875 0.804688,0.28907 0.277343,0.0703 0.558593,0.11328 0.847656,0.1289 0.285156,0.0156 0.570313,0.004 0.855469,-0.0351 0.28125,-0.0391 0.558594,-0.10547 0.832031,-0.19922 0.269531,-0.0937 0.53125,-0.21485 0.777344,-0.35938 0.246093,-0.14453 0.480469,-0.3125 0.695312,-0.5 5.34375,-4.64844 10.28125,-9.69922 14.804688,-15.14844 4.523437,-5.45312 8.574219,-11.23437 12.15625,-17.34375 3.582031,-6.11328 6.648442,-12.47656 9.191412,-19.08593 2.54687,-6.60938 4.53906,-13.38282 5.98046,-20.32032 0.15625,-0.85546 0.39454,-1.6875 0.71485,-2.49609 0.32031,-0.80859 0.71484,-1.57812 1.1875,-2.30859 0.47265,-0.73438 1.00781,-1.41016 1.61328,-2.03516 0.60547,-0.625 1.26562,-1.18359 1.98047,-1.67969 0.71875,-0.49609 1.47265,-0.91406 2.27344,-1.26172 0.79687,-0.34375 1.62109,-0.60937 2.47265,-0.79296 0.85156,-0.1836 1.71094,-0.28125 2.58203,-0.29688 0.86719,-0.0117 1.73047,0.0586 2.58594,0.21484 0.85547,0.15625 1.6875,0.39454 2.49609,0.71485 0.8086,0.32031 1.58203,0.71875 2.3125,1.1875 0.73047,0.47265 1.40625,1.01172 2.03125,1.61719 0.625,0.60546 1.1836,1.26562 1.67969,1.98437 0.49219,0.71484 0.91406,1.47266 1.25781,2.26953 0.34766,0.79688 0.60938,1.625 0.79297,2.47266 0.1836,0.85156 0.28125,1.71094 0.29297,2.58203 0.0156,0.87109 -0.0586,1.73047 -0.21484,2.58594 -1.72266,8.35937 -4.10547,16.52734 -7.14453,24.5 -3.04297,7.97265 -6.70313,15.64843 -10.98438,23.03125 -4.28125,7.38281 -9.125,14.375 -14.53515,20.97656 -5.410162,6.59766 -11.312506,12.72266 -17.710943,18.36719 -0.210938,0.19922 -0.398438,0.41406 -0.566407,0.64453 -0.164062,0.23437 -0.308593,0.48047 -0.425781,0.74219 -0.121094,0.26171 -0.210938,0.53125 -0.277344,0.8125 -0.06641,0.27734 -0.105468,0.5625 -0.117187,0.84765 -0.01172,0.28516 0.0078,0.57031 0.05078,0.85547 0.04687,0.28125 0.117188,0.55859 0.214844,0.82813 0.09766,0.26953 0.222656,0.52734 0.371094,0.77343 0.148437,0.2461 0.320312,0.47266 0.515624,0.6836 0.191407,0.21484 0.402344,0.40625 0.632813,0.57422 0.230469,0.17187 0.476563,0.32031 0.734375,0.4414 0.261719,0.1211 0.527344,0.21875 0.808594,0.28906 0.277344,0.0703 0.558594,0.11329 0.84375,0.12891 0.289062,0.0156 0.574218,0.004 0.855468,-0.0352 0.285157,-0.0391 0.5625,-0.10546 0.832032,-0.20312 0.273437,-0.0937 0.53125,-0.21094 0.78125,-0.35547 0.246094,-0.14453 0.476562,-0.3125 0.691406,-0.50391 6.761719,-5.97656 13.000002,-12.45703 18.714842,-19.44531 5.71485,-6.98828 10.82813,-14.38672 15.34375,-22.20312 4.51563,-7.8125 8.375,-15.9375 11.57813,-24.37891 3.19922,-8.4375 5.70312,-17.07812 7.5039,-25.92187 z m 0,0"
             fill-opacity="1"
             fill-rule="nonzero"
             id="path87" />
        </g>
      </g>
    </g>
    <g
       clip-path="url(#056e34c729)"
       id="g93"
       transform="translate(6.5716243,-268)">
      <g
         clip-path="url(#5ffaed0f6e)"
         id="g92">
        <g
           clip-path="url(#d61067243c)"
           id="g91">
          <path
             fill="#ffc107"
             d="m 118.42188,400.19141 c 0.22656,0.0742 0.45312,0.13281 0.6875,0.17578 0.51562,0.0898 1.03125,0.0898 1.55078,-0.004 0.51562,-0.0898 1,-0.26953 1.45312,-0.53516 0.44922,-0.26562 0.84375,-0.60156 1.17578,-1.00781 0.33203,-0.40234 0.58594,-0.85547 0.75782,-1.34765 2.13671,-5.85157 3.71093,-11.84766 4.71874,-17.9961 0.043,-0.28515 0.0586,-0.57422 0.043,-0.86719 -0.0156,-0.28906 -0.0586,-0.57421 -0.13281,-0.85546 -0.0703,-0.28516 -0.17187,-0.55469 -0.30078,-0.81641 -0.125,-0.26172 -0.27734,-0.50781 -0.45312,-0.73828 -0.17969,-0.23047 -0.375,-0.44141 -0.59375,-0.63281 -0.21875,-0.19141 -0.45704,-0.35938 -0.70704,-0.50391 -0.2539,-0.14453 -0.51953,-0.26172 -0.79687,-0.35156 -0.27344,-0.0899 -0.55859,-0.15235 -0.84766,-0.1875 -0.28515,-0.0391 -0.57422,-0.0469 -0.86328,-0.0312 -0.28906,0.0195 -0.57422,0.0664 -0.85156,0.14062 -0.28125,0.0742 -0.55078,0.17578 -0.80859,0.30469 -0.26172,0.12891 -0.50782,0.28125 -0.73438,0.45703 -0.23047,0.17578 -0.44141,0.37109 -0.63281,0.58984 -0.19141,0.21485 -0.35938,0.44922 -0.50391,0.69922 -0.14844,0.25 -0.26562,0.51172 -0.35937,0.78516 -0.0937,0.27734 -0.16016,0.55469 -0.19922,0.84375 -0.94922,5.55469 -2.39063,10.97656 -4.32031,16.26953 -0.0937,0.27344 -0.16016,0.55469 -0.19922,0.83984 -0.043,0.28907 -0.0508,0.57422 -0.0352,0.86329 0.0195,0.28906 0.0625,0.57421 0.13672,0.85156 0.0742,0.28125 0.17187,0.55078 0.30078,0.8125 0.125,0.25781 0.27344,0.5039 0.44922,0.73437 0.17578,0.23047 0.37109,0.44141 0.58594,0.63672 0.21484,0.19141 0.44922,0.35938 0.69922,0.50781 0.25,0.14454 0.51171,0.26563 0.78125,0.36329 z m 0,0"
             fill-opacity="1"
             fill-rule="nonzero"
             id="path90" />
        </g>
      </g>
    </g>
    <g
       clip-path="url(#060ce4b3d6)"
       id="g96"
       transform="translate(6.5716243,-268)">
      <g
         clip-path="url(#906c566896)"
         id="g95">
        <g
           clip-path="url(#140abbd212)"
           id="g94">
          <path
             fill="#ffc107"
             d="m 114.72266,408.875 c -0.26172,-0.12891 -0.53125,-0.23438 -0.8086,-0.30859 -0.28125,-0.0781 -0.5664,-0.125 -0.85547,-0.14454 -0.28906,-0.0234 -0.57812,-0.0156 -0.86328,0.0234 -0.28906,0.0352 -0.57031,0.0977 -0.84375,0.19141 -0.27734,0.0898 -0.53906,0.20703 -0.78906,0.35156 -0.25391,0.14453 -0.48828,0.3125 -0.70703,0.5 -0.21875,0.19141 -0.41797,0.39844 -0.59766,0.62891 -0.17578,0.23047 -0.32812,0.47265 -0.46093,0.73437 -4.4336,8.79297 -9.679692,17.07813 -15.726568,24.85547 -6.050781,7.77344 -12.792968,14.89453 -20.226562,21.35938 -0.21875,0.1914 -0.414062,0.40234 -0.59375,0.6289 -0.175781,0.23047 -0.328125,0.47656 -0.457031,0.73828 -0.128907,0.25782 -0.230469,0.52735 -0.304688,0.8086 -0.07422,0.28125 -0.121093,0.5625 -0.140625,0.85156 -0.01953,0.29297 -0.01172,0.57812 0.02734,0.86719 0.03906,0.28906 0.105469,0.5664 0.195312,0.84375 0.09375,0.27343 0.214844,0.53515 0.359376,0.78906 0.144531,0.25 0.3125,0.48437 0.503906,0.70312 0.191406,0.21875 0.398437,0.41407 0.628906,0.58985 0.230469,0.17969 0.476562,0.33203 0.734375,0.46094 0.261719,0.125 0.53125,0.22656 0.8125,0.30468 0.277344,0.0742 0.5625,0.1211 0.851563,0.14063 0.289062,0.0195 0.578124,0.0117 0.867187,-0.0274 0.285156,-0.0391 0.566406,-0.10156 0.84375,-0.19531 0.273437,-0.0937 0.535156,-0.21094 0.785156,-0.35547 0.253907,-0.14453 0.488281,-0.3125 0.707031,-0.5039 7.863282,-6.84375 14.996094,-14.37891 21.394532,-22.60547 6.39844,-8.23047 11.94532,-17 16.63672,-26.3086 0.12891,-0.25781 0.23438,-0.52734 0.3086,-0.80859 0.0781,-0.27734 0.125,-0.5625 0.14453,-0.85156 0.0234,-0.28906 0.0156,-0.57813 -0.0234,-0.86719 -0.0352,-0.28516 -0.0977,-0.56641 -0.19141,-0.84375 -0.0898,-0.27344 -0.20703,-0.53516 -0.35156,-0.78906 -0.14453,-0.25 -0.30859,-0.48828 -0.5,-0.70703 -0.1914,-0.21875 -0.39844,-0.41407 -0.6289,-0.59375 -0.23047,-0.17578 -0.47266,-0.33203 -0.73047,-0.46094 z m 0,0"
             fill-opacity="1"
             fill-rule="nonzero"
             id="path93" />
        </g>
      </g>
    </g>
    <g
       clip-path="url(#7c2ead0345)"
       id="g99"
       transform="translate(6.5716243,-268)">
      <g
         clip-path="url(#9f07891d03)"
         id="g98">
        <g
           clip-path="url(#29274580b0)"
           id="g97">
          <path
             fill="#ffc107"
             d="m 145.28516,450.89844 c -0.97266,-6.60547 -1.73829,-13.56641 -1.7461,-13.57813 -0.0508,-0.44922 -0.16797,-0.88281 -0.35156,-1.29687 -0.18359,-0.41797 -0.42578,-0.79297 -0.72656,-1.13672 -0.30078,-0.33985 -0.64453,-0.625 -1.03516,-0.85938 -0.38672,-0.23437 -0.80469,-0.40234 -1.24609,-0.50781 -0.44141,-0.10937 -0.88672,-0.14453 -1.33985,-0.11328 -0.45312,0.0352 -0.89062,0.13281 -1.3125,0.30078 -0.42187,0.16797 -0.80859,0.39453 -1.16406,0.67969 -0.35156,0.28515 -0.65234,0.62109 -0.90234,1 -8.51172,12.89062 -17.8711,25.13672 -28.08203,36.73047 -0.19532,0.21484 -0.36719,0.44531 -0.51953,0.6914 -0.14844,0.25 -0.27344,0.50782 -0.375,0.78125 -0.0977,0.27344 -0.16797,0.55078 -0.21485,0.83594 -0.043,0.28906 -0.0586,0.57422 -0.0469,0.86719 0.0117,0.28906 0.0547,0.57422 0.12109,0.85547 0.0703,0.28125 0.16406,0.55468 0.28516,0.8164 0.125,0.26172 0.26953,0.51172 0.4414,0.7461 0.17188,0.23047 0.36328,0.44531 0.57813,0.64453 0.21094,0.19531 0.4414,0.36719 0.6914,0.51953 0.2461,0.14844 0.50391,0.27344 0.77735,0.375 0.27344,0.0977 0.55078,0.17187 0.83984,0.21484 0.28516,0.0469 0.57422,0.0625 0.86328,0.0508 0.28907,-0.0117 0.57422,-0.0508 0.85547,-0.12109 0.28125,-0.0664 0.55469,-0.16406 0.81641,-0.28516 0.26172,-0.12109 0.51172,-0.26953 0.74609,-0.4375 0.23438,-0.17187 0.44922,-0.36328 0.64453,-0.57812 8.01953,-8.95313 15.47656,-18.35156 22.3711,-28.19531 0.10156,0.73437 0.21093,1.47265 0.32421,2.19922 l 2.25782,17.50781 c 0.0352,0.28906 0.10156,0.57031 0.1914,0.84375 0.0937,0.27734 0.21094,0.53906 0.35547,0.79297 0.14453,0.2539 0.3125,0.48828 0.50391,0.70703 0.1914,0.21875 0.39844,0.41797 0.6289,0.59375 0.23047,0.17969 0.47657,0.33203 0.73438,0.46094 0.26172,0.1289 0.53125,0.23437 0.8125,0.30859 0.27734,0.0781 0.5625,0.125 0.85547,0.14453 0.28906,0.0195 0.57812,0.0117 0.86328,-0.0234 0.28906,-0.0391 0.57031,-0.10547 0.84766,-0.19531 0.27343,-0.0937 0.53906,-0.21094 0.78906,-0.35547 0.2539,-0.14453 0.48828,-0.3125 0.70703,-0.5039 0.21875,-0.19141 0.41797,-0.40235 0.59375,-0.63282 0.17969,-0.23047 0.33203,-0.47265 0.46094,-0.73437 0.1289,-0.25781 0.23047,-0.53125 0.30859,-0.8086 0.0742,-0.28125 0.12109,-0.5664 0.14063,-0.85546 0.0195,-0.29297 0.0117,-0.58204 -0.0273,-0.86719 z m 0,0"
             fill-opacity="1"
             fill-rule="nonzero"
             id="path96" />
        </g>
      </g>
    </g>
    <g
       clip-path="url(#143bbb5ea4)"
       id="g102"
       transform="translate(6.5716243,-268)">
      <g
         clip-path="url(#9b0c0607c6)"
         id="g101">
        <g
           clip-path="url(#fc94bbb52e)"
           id="g100">
          <path
             fill="#00d3f2"
             d="m 184.16406,295.39062 c -0.6289,-0.11328 -1.20703,-0.34765 -1.73047,-0.71093 -6.05468,-4.03125 -12.47265,-7.375 -19.24609,-10.02735 -6.77344,-2.65234 -13.75391,-4.55859 -20.9375,-5.71093 -7.13281,-1.41407 -14.33594,-2.04688 -21.60937,-1.90235 -7.26954,0.14453 -14.44141,1.06641 -21.51563,2.76172 -0.28125,0.082 -0.570312,0.13672 -0.867188,0.16016 -0.292968,0.0273 -0.585937,0.0234 -0.878906,-0.0117 -0.292968,-0.0352 -0.582031,-0.0977 -0.859375,-0.19141 -0.28125,-0.0898 -0.550781,-0.21094 -0.808593,-0.35547 -0.253907,-0.14453 -0.496094,-0.3164 -0.71875,-0.50781 -0.222657,-0.19531 -0.421876,-0.41016 -0.601563,-0.64453 -0.179687,-0.23438 -0.335937,-0.48438 -0.464844,-0.74609 -0.128906,-0.26563 -0.230469,-0.54297 -0.304687,-0.82813 -0.07813,-0.28516 -0.121094,-0.57422 -0.136719,-0.87109 -0.01563,-0.29297 -0.0039,-0.58594 0.03906,-0.87891 0.04297,-0.29297 0.113281,-0.57812 0.214843,-0.85547 0.09766,-0.27734 0.226563,-0.54297 0.378907,-0.79687 0.152343,-0.25 0.328124,-0.48438 0.527343,-0.70313 0.199219,-0.21484 0.421875,-0.41015 0.660157,-0.58594 0.238281,-0.17187 0.492187,-0.32031 0.761718,-0.4414 0.269532,-0.1211 0.546875,-0.21485 0.835938,-0.28125 7.687499,-1.86328 15.484379,-2.87891 23.394539,-3.04688 7.91015,-0.17187 15.74609,0.50782 23.50781,2.03516 7.80468,1.26172 15.38281,3.33984 22.74218,6.23437 7.35547,2.89454 14.32422,6.53516 20.89844,10.92579 0.41406,0.28906 0.76953,0.63281 1.06641,1.04296 0.29297,0.40625 0.51562,0.85157 0.65625,1.33594 0.14453,0.48438 0.20312,0.97656 0.17578,1.48047 -0.0234,0.50391 -0.13281,0.98828 -0.32422,1.45313 -0.19141,0.46875 -0.45703,0.88671 -0.79297,1.26562 -0.33203,0.375 -0.72265,0.68359 -1.16406,0.92578 -0.44141,0.24219 -0.91016,0.40625 -1.41016,0.48828 -0.49609,0.082 -0.99218,0.0781 -1.48828,-0.0117 z m 0,0"
             fill-opacity="1"
             fill-rule="nonzero"
             id="path99" />
        </g>
      </g>
    </g>
    <g
       clip-path="url(#afd71b3179)"
       id="g105"
       transform="translate(6.5716243,-268)">
      <g
         clip-path="url(#66a8a69158)"
         id="g104">
        <g
           clip-path="url(#b24a9dfd0a)"
           id="g103">
          <path
             fill="#00d3f2"
             d="m 195.34375,333.26562 c -1.21484,-0.21875 -2.16797,-0.83203 -2.86328,-1.84765 -0.75391,-1.14063 -1.53516,-2.26172 -2.34766,-3.36328 -0.80859,-1.10157 -1.64844,-2.1836 -2.51172,-3.24219 -0.86328,-1.05859 -1.7539,-2.09766 -2.67187,-3.10938 -0.91797,-1.01562 -1.86328,-2.0039 -2.82813,-2.97265 -0.96875,-0.96485 -1.96093,-1.90625 -2.97656,-2.82031 -1.01562,-0.91797 -2.05078,-1.80469 -3.11328,-2.66797 -1.05859,-0.86328 -2.14063,-1.69922 -3.24219,-2.50782 -1.10547,-0.80859 -2.22656,-1.58984 -3.37109,-2.34375 -1.14063,-0.75 -2.30078,-1.47265 -3.48047,-2.16406 -1.17969,-0.69531 -2.375,-1.35547 -3.58594,-1.98828 -1.21484,-0.63281 -2.4414,-1.23437 -3.68359,-1.80469 -1.24219,-0.57031 -2.5,-1.10547 -3.76953,-1.61328 -1.26953,-0.50781 -2.55469,-0.98047 -3.84766,-1.42187 -1.29297,-0.44141 -2.59766,-0.84766 -3.91406,-1.22266 -1.3125,-0.375 -2.63672,-0.71875 -3.96875,-1.02734 -1.33203,-0.3086 -2.67188,-0.58203 -4.01953,-0.82032 -1.34375,-0.24218 -2.69532,-0.44921 -4.05469,-0.62109 -1.35547,-0.17187 -2.71484,-0.30859 -4.07813,-0.41016 -1.36328,-0.10156 -2.73046,-0.17187 -4.09765,-0.20312 -1.36719,-0.0352 -2.73438,-0.0352 -4.10156,0 -1.36328,0.0352 -2.73047,0.10547 -4.09375,0.21094 -1.36328,0.10547 -2.72266,0.24609 -4.07813,0.41797 -1.35937,0.17578 -2.70703,0.38281 -4.05469,0.625 -1.34375,0.24218 -2.68359,0.51953 -4.01562,0.82812 -1.33203,0.30859 -2.65625,0.65234 -3.96875,1.03125 -1.31641,0.375 -2.621095,0.78516 -3.914064,1.23047 -1.292968,0.44141 -2.574218,0.91797 -3.84375,1.42578 -1.269531,0.50781 -2.523437,1.05078 -3.765625,1.62109 -1.242187,0.57032 -2.46875,1.17579 -3.683593,1.8086 -1.210938,0.63281 -2.40625,1.29687 -3.582032,1.99219 -1.179687,0.69531 -2.339844,1.41796 -3.480468,2.17187 -1.140626,0.75391 -2.261719,1.53516 -3.363282,2.34375 -0.476562,0.29297 -0.992187,0.48828 -1.542968,0.58594 -0.550782,0.0976 -1.101563,0.0898 -1.648438,-0.0234 -0.550781,-0.11328 -1.058594,-0.32422 -1.527344,-0.62891 -0.46875,-0.30468 -0.867187,-0.6875 -1.1875,-1.14453 -0.324218,-0.45703 -0.554687,-0.95703 -0.6875,-1.5 -0.132812,-0.54297 -0.164062,-1.09375 -0.08594,-1.64843 0.07422,-0.55469 0.25,-1.07422 0.523437,-1.5625 0.273438,-0.48829 0.628906,-0.91016 1.0625,-1.26563 1.21875,-0.89453 2.460938,-1.75781 3.726563,-2.58984 1.265625,-0.82813 2.546875,-1.62891 3.851562,-2.39453 1.304688,-0.76563 2.628907,-1.5 3.972657,-2.19922 1.339843,-0.69922 2.699218,-1.36719 4.074218,-1.9961 1.375,-0.63281 2.765625,-1.22656 4.171875,-1.78906 1.40625,-0.55859 2.824219,-1.08594 4.257813,-1.57422 1.429687,-0.48828 2.875,-0.9414 4.328129,-1.35547 1.45703,-0.41797 2.92187,-0.79687 4.39453,-1.13672 1.47266,-0.34375 2.95703,-0.64843 4.44531,-0.91406 1.48828,-0.26562 2.98438,-0.49609 4.48438,-0.6875 1.5039,-0.1914 3.00781,-0.34375 4.51562,-0.46094 1.50782,-0.11328 3.01953,-0.1914 4.53125,-0.23046 1.51563,-0.0391 3.02735,-0.0391 4.53907,0 1.51171,0.0351 3.02343,0.11328 4.53124,0.22656 1.51172,0.11328 3.01563,0.26562 4.51563,0.45703 1.50391,0.19141 2.99609,0.41797 4.48828,0.68359 1.48828,0.26563 2.97266,0.57032 4.44531,0.91016 1.47266,0.33984 2.9375,0.71875 4.39453,1.13281 1.45313,0.41406 2.89844,0.86719 4.33204,1.35547 1.42968,0.48828 2.85156,1.01172 4.25781,1.57031 1.40625,0.5586 2.79687,1.15625 4.17187,1.78516 1.375,0.62891 2.73438,1.29297 4.07813,1.99219 1.33984,0.69922 2.66406,1.43359 3.96875,2.19922 1.30469,0.76562 2.58984,1.5625 3.85547,2.39453 1.26562,0.82812 2.50781,1.6914 3.73047,2.58593 1.21875,0.89063 2.41796,1.81641 3.59375,2.76954 1.17187,0.95703 2.32421,1.9375 3.44921,2.94921 1.125,1.01172 2.22266,2.05469 3.29297,3.1211 1.07422,1.0664 2.11719,2.16406 3.13282,3.28125 1.01953,1.12109 2.00781,2.26953 2.96484,3.4375 0.96094,1.17187 1.88672,2.36719 2.78516,3.58203 0.89843,1.21875 1.76562,2.45703 2.60156,3.71875 0.24609,0.35937 0.42969,0.74609 0.5625,1.16016 0.1289,0.41406 0.19531,0.83984 0.19922,1.27343 0.004,0.4336 -0.0547,0.85938 -0.17188,1.27344 -0.12109,0.41797 -0.30078,0.80859 -0.53515,1.17188 -0.23829,0.36328 -0.51954,0.6875 -0.85157,0.96875 -0.33203,0.27734 -0.69531,0.50781 -1.09375,0.67968 -0.39453,0.17188 -0.8125,0.28516 -1.24218,0.33594 -0.42969,0.0508 -0.85938,0.0391 -1.28516,-0.0352 z m 0,0"
             fill-opacity="1"
             fill-rule="nonzero"
             id="path102" />
        </g>
      </g>
    </g>
    <g
       clip-path="url(#8cb3e4049c)"
       id="g108"
       transform="translate(6.5716243,-268)">
      <g
         clip-path="url(#915ec42caf)"
         id="g107">
        <g
           clip-path="url(#0cf5b21062)"
           id="g106">
          <path
             fill="#00d3f2"
             d="m 193.17578,395.66406 c -0.28516,-0.0508 -0.5625,-0.1289 -0.83203,-0.23437 -0.26953,-0.10547 -0.52734,-0.23828 -0.77344,-0.39453 -0.24219,-0.15625 -0.46875,-0.33204 -0.67969,-0.53516 -0.20703,-0.19922 -0.39453,-0.41797 -0.5625,-0.65625 -0.16406,-0.23828 -0.30468,-0.49219 -0.42187,-0.75781 -0.11719,-0.26563 -0.20703,-0.53907 -0.26563,-0.82032 -0.0625,-0.28515 -0.0977,-0.57031 -0.10546,-0.85937 -0.004,-0.29297 0.0195,-0.57813 0.0703,-0.86328 0.21875,-1.23828 0.40234,-2.48047 0.55078,-3.72656 0.14844,-1.25 0.26172,-2.5 0.33984,-3.75391 0.0781,-1.25391 0.1211,-2.51172 0.125,-3.76563 0.008,-1.25781 -0.0234,-2.51171 -0.0859,-3.76953 -0.0664,-1.2539 -0.16797,-2.5039 -0.30469,-3.7539 -0.13281,-1.25 -0.30469,-2.49219 -0.51172,-3.73438 -0.20703,-1.23828 -0.44922,-2.46875 -0.72656,-3.69531 -0.27735,-1.22656 -0.58985,-2.44141 -0.9375,-3.65234 -0.34375,-1.20704 -0.72657,-2.40235 -1.14063,-3.58985 -0.41406,-1.1875 -0.85937,-2.35937 -1.33984,-3.51953 -0.48438,-1.16016 -0.9961,-2.30859 -1.54297,-3.4375 -0.54688,-1.13281 -1.125,-2.24609 -1.73438,-3.34766 -0.60937,-1.09765 -1.25,-2.17968 -1.91796,-3.24218 -0.67188,-1.0625 -1.375,-2.10157 -2.10547,-3.125 -0.72657,-1.02344 -1.48828,-2.02344 -2.27344,-3.00391 -0.78906,-0.98047 -1.60156,-1.93359 -2.44531,-2.86719 -0.83985,-0.93359 -1.70703,-1.84375 -2.60157,-2.72656 -0.89062,-0.88281 -1.80859,-1.74219 -2.75,-2.57422 -0.94531,-0.82812 -1.91015,-1.63281 -2.89453,-2.41015 -0.98828,-0.77735 -2,-1.52735 -3.02734,-2.2461 -1.03125,-0.71875 -2.08203,-1.40625 -3.15234,-2.0664 -1.06641,-0.66016 -2.15625,-1.28907 -3.26172,-1.88672 -1.10157,-0.59766 -2.22266,-1.16407 -3.36328,-1.69922 -1.13672,-0.53516 -2.28907,-1.03516 -3.45313,-1.50391 -1.16406,-0.46875 -2.34375,-0.90234 -3.53516,-1.30469 -1.1914,-0.40234 -2.39062,-0.76953 -3.60156,-1.10156 -1.21094,-0.33594 -2.43359,-0.63281 -3.66015,-0.89844 -1.23047,-0.26171 -2.46485,-0.49218 -3.70704,-0.6875 -1.23828,-0.1914 -2.48437,-0.35156 -3.73828,-0.47265 -1.25,-0.125 -2.5,-0.21094 -3.75781,-0.26172 -1.2539,-0.0547 -2.51172,-0.0703 -3.76562,-0.0508 -1.25782,0.0195 -2.51172,0.0742 -3.76563,0.16797 -0.29297,0.0273 -0.58594,0.0234 -0.8789,-0.004 -0.29297,-0.0312 -0.57813,-0.0898 -0.85938,-0.17969 -0.28125,-0.0859 -0.55078,-0.20312 -0.80859,-0.34375 -0.25782,-0.14062 -0.4961,-0.30859 -0.72266,-0.49609 -0.22266,-0.19141 -0.42578,-0.40234 -0.60937,-0.63281 -0.1836,-0.23047 -0.33985,-0.47657 -0.47266,-0.73828 -0.13672,-0.26172 -0.24219,-0.53516 -0.32031,-0.82032 -0.0781,-0.28125 -0.12891,-0.57031 -0.14844,-0.86328 -0.0234,-0.29297 -0.0156,-0.58594 0.0234,-0.8789 0.0352,-0.29297 0.10156,-0.57813 0.19531,-0.85547 0.0977,-0.27735 0.21875,-0.54297 0.36328,-0.80078 0.14844,-0.25391 0.32031,-0.48829 0.51563,-0.71094 0.19531,-0.21875 0.41015,-0.41797 0.64453,-0.59375 0.23437,-0.17969 0.48437,-0.33203 0.75,-0.45703 0.26562,-0.12891 0.53906,-0.23047 0.82422,-0.30078 0.28515,-0.0742 0.57421,-0.11719 0.86718,-0.12891 1.42188,-0.10547 2.84375,-0.16797 4.26953,-0.19141 1.42188,-0.0195 2.84375,-0.004 4.26954,0.0547 1.42187,0.0586 2.83984,0.15625 4.25781,0.29688 1.41797,0.14062 2.83203,0.3164 4.23828,0.53906 1.40625,0.21875 2.80469,0.47656 4.19922,0.77734 1.39062,0.29688 2.77343,0.63672 4.14453,1.01563 1.375,0.375 2.73437,0.79297 4.08594,1.24609 1.34765,0.45703 2.68359,0.94922 4.0039,1.48047 1.32422,0.53125 2.62891,1.09766 3.91797,1.70312 1.28906,0.60547 2.55859,1.25 3.8125,1.92579 1.25,0.67578 2.48438,1.39062 3.69531,2.13671 1.21094,0.75 2.40235,1.53125 3.57032,2.34375 1.16796,0.81641 2.30859,1.66407 3.42968,2.54297 1.11719,0.88282 2.21094,1.79297 3.28125,2.73438 1.06641,0.94531 2.10547,1.91797 3.11719,2.91797 1.01172,1 1.99609,2.03125 2.94922,3.08984 0.95312,1.05469 1.875,2.14063 2.76953,3.25 0.89063,1.10938 1.75,2.24609 2.57813,3.40234 0.82812,1.16016 1.62109,2.33985 2.38281,3.54688 0.75781,1.20312 1.48437,2.42578 2.17578,3.67187 0.69141,1.2461 1.34375,2.50782 1.96484,3.79297 0.61719,1.28125 1.19922,2.58203 1.74219,3.89844 0.54688,1.3125 1.05469,2.64453 1.52344,3.98828 0.46875,1.34375 0.89844,2.69922 1.29297,4.07031 0.39062,1.36719 0.74218,2.7461 1.05859,4.13672 0.3125,1.39063 0.58594,2.78516 0.82031,4.19141 0.23438,1.40234 0.42969,2.8125 0.58203,4.23047 0.15625,1.41406 0.26954,2.83203 0.33985,4.2539 0.0742,1.42188 0.10937,2.84766 0.10156,4.26954 -0.008,1.42578 -0.0586,2.84765 -0.14453,4.26953 -0.0898,1.42187 -0.21875,2.83984 -0.38672,4.2539 -0.17187,1.41407 -0.37891,2.82032 -0.62891,4.22266 -0.0508,0.28516 -0.1289,0.5625 -0.23437,0.83203 -0.10547,0.26953 -0.23828,0.52734 -0.39453,0.77344 -0.15625,0.24219 -0.33203,0.46875 -0.53516,0.67969 -0.19922,0.20703 -0.41797,0.39453 -0.65625,0.55859 -0.23828,0.16797 -0.48828,0.30859 -0.7539,0.42578 -0.26563,0.11719 -0.54297,0.20313 -0.82422,0.26563 -0.28516,0.0625 -0.57032,0.0976 -0.85938,0.10156 -0.28906,0.008 -0.57812,-0.0156 -0.86328,-0.0664 z m 0,0"
             fill-opacity="1"
             fill-rule="nonzero"
             id="path105" />
        </g>
      </g>
    </g>
    <g
       clip-path="url(#d81dda74cf)"
       id="g111"
       transform="translate(6.5716243,-268)">
      <g
         clip-path="url(#d905e1bcad)"
         id="g110">
        <g
           clip-path="url(#a6091b907c)"
           id="g109">
          <path
             fill="#00d3f2"
             d="m 54.09375,370.83984 -0.05078,-0.008 c -0.285157,-0.0547 -0.5625,-0.13672 -0.828125,-0.24609 -0.269532,-0.11328 -0.523438,-0.2461 -0.765625,-0.40625 -0.242188,-0.16016 -0.464844,-0.34375 -0.671875,-0.54688 -0.207032,-0.20312 -0.390625,-0.42578 -0.550782,-0.66797 -0.164062,-0.23828 -0.300781,-0.49218 -0.410156,-0.76172 -0.113281,-0.26562 -0.199218,-0.54296 -0.257812,-0.82812 -0.05469,-0.28125 -0.08594,-0.57031 -0.08594,-0.85938 0,-0.28906 0.02734,-0.57812 0.08203,-0.86328 0.589843,-3.21093 1.382812,-6.37109 2.382812,-9.48047 1,-3.10937 2.195312,-6.14062 3.585938,-9.09765 1.394531,-2.95313 2.96875,-5.80469 4.730468,-8.55469 1.761719,-2.75 3.695313,-5.375 5.792969,-7.875 2.101563,-2.5 4.355469,-4.85547 6.761719,-7.0625 2.40625,-2.20703 4.945312,-4.25 7.617187,-6.13281 2.671875,-1.87891 5.453125,-3.57813 8.34375,-5.09766 2.890625,-1.51562 5.867188,-2.84375 8.929688,-3.97656 0.273437,-0.10156 0.550781,-0.17578 0.835937,-0.21875 0.289063,-0.0469 0.578127,-0.0625 0.867187,-0.0508 0.28907,0.0117 0.57422,0.0508 0.85547,0.11719 0.28125,0.0703 0.55469,0.16406 0.82032,0.28515 0.26171,0.1211 0.51171,0.26563 0.74609,0.4375 0.23437,0.16797 0.44922,0.36328 0.64453,0.57422 0.19922,0.21094 0.37109,0.44141 0.52344,0.69141 0.15234,0.24609 0.27734,0.5039 0.3789,0.77734 0.10157,0.27344 0.17188,0.55078 0.21875,0.83594 0.0469,0.28906 0.0625,0.57422 0.0508,0.86719 -0.0117,0.28906 -0.0508,0.57421 -0.11719,0.85546 -0.0664,0.28125 -0.16406,0.55469 -0.28516,0.82032 -0.12109,0.26172 -0.26562,0.51172 -0.4375,0.74609 -0.16797,0.23438 -0.35937,0.44922 -0.57422,0.64844 -0.21093,0.19531 -0.4414,0.37109 -0.6875,0.51953 -0.25,0.15234 -0.50781,0.27734 -0.78125,0.37891 -5.488282,2.02734 -10.617188,4.72656 -15.394532,8.10546 -3.523437,2.51172 -6.773437,5.33594 -9.753906,8.47266 -2.980469,3.13672 -5.632813,6.53125 -7.960937,10.17578 -2.324219,3.64844 -4.285157,7.48438 -5.871094,11.50781 -1.589844,4.02735 -2.78125,8.16407 -3.574219,12.41797 -0.05469,0.28125 -0.136719,0.55469 -0.242187,0.82032 -0.109376,0.26562 -0.242188,0.51953 -0.398438,0.75781 -0.160156,0.24219 -0.339844,0.46484 -0.539062,0.66797 -0.203126,0.20703 -0.421876,0.39062 -0.65625,0.55078 -0.238282,0.16406 -0.488282,0.30078 -0.75,0.41406 -0.265626,0.11328 -0.535157,0.19922 -0.816407,0.26172 -0.28125,0.0586 -0.566406,0.0937 -0.851562,0.0977 -0.289063,0.004 -0.570313,-0.0195 -0.855469,-0.0703 z m 0,0"
             fill-opacity="1"
             fill-rule="nonzero"
             id="path108" />
        </g>
      </g>
    </g>
    <g
       clip-path="url(#c92206f454)"
       id="g114"
       transform="translate(6.5716243,-268)">
      <g
         clip-path="url(#6bc5b23403)"
         id="g113">
        <g
           clip-path="url(#e5da134c8f)"
           id="g112">
          <path
             fill="#00d3f2"
             d="m 53.371094,411.07422 c -0.1875,-0.0312 -0.375,-0.0781 -0.558594,-0.13672 -0.179688,-0.0586 -0.359375,-0.12891 -0.535156,-0.20703 -0.171875,-0.082 -0.339844,-0.17578 -0.5,-0.27735 -0.164063,-0.10156 -0.316406,-0.21484 -0.464844,-0.33984 -0.148438,-0.125 -0.285156,-0.25391 -0.414062,-0.39844 -0.132813,-0.14062 -0.25,-0.28906 -0.363282,-0.44531 -0.109375,-0.15625 -0.210937,-0.32031 -0.296875,-0.49219 -0.08984,-0.16797 -0.167969,-0.34375 -0.234375,-0.52343 -0.06641,-0.17969 -0.121094,-0.36329 -0.164062,-0.55079 -0.04297,-0.1875 -0.07031,-0.375 -0.08984,-0.5664 -0.01563,-0.19141 -0.02344,-0.38281 -0.01563,-0.57422 0.0078,-0.19141 0.02734,-0.38281 0.05859,-0.57031 0.03125,-0.19141 0.07813,-0.37891 0.132812,-0.5586 0.05859,-0.18359 0.125,-0.36328 0.203125,-0.53906 0.08203,-0.17578 0.171875,-0.34375 0.273438,-0.50391 0.101562,-0.16406 0.214844,-0.32031 0.335937,-0.46875 l 3.21875,-3.91015 c 3.351563,-4.41016 6.183594,-9.13281 8.5,-14.16406 2.3125,-5.03516 4.050781,-10.26172 5.210938,-15.67969 0.628906,-3.8086 1.625,-7.51563 2.984375,-11.12891 1.363281,-3.61328 3.066406,-7.05469 5.105468,-10.33203 2.042969,-3.27344 4.382813,-6.32031 7.027344,-9.13281 2.640625,-2.8125 5.535156,-5.33985 8.675782,-7.58203 3.085937,-2.19532 6.359374,-4.0625 9.816397,-5.60157 3.46094,-1.53515 7.03907,-2.71875 10.73438,-3.54296 3.69142,-0.82032 7.43359,-1.26954 11.21875,-1.34375 3.78517,-0.0781 7.53906,0.22265 11.26562,0.90234 2.01172,0.35937 4,0.82422 5.96094,1.39844 1.96484,0.57422 3.89063,1.24609 5.78125,2.02734 1.89063,0.77734 3.73438,1.65625 5.53125,2.62891 1.79688,0.97656 3.53516,2.04687 5.21875,3.20703 1.68359,1.16015 3.29688,2.41015 4.84766,3.74609 1.55078,1.33203 3.02343,2.7461 4.42187,4.23828 1.39844,1.49219 2.71094,3.05469 3.94531,4.6836 1.23047,1.63281 2.3711,3.32812 3.42188,5.08203 0.16016,0.25 0.29297,0.51172 0.40234,0.78515 0.10547,0.27735 0.1875,0.5625 0.23828,0.85157 0.0508,0.29297 0.0703,0.58593 0.0625,0.88281 -0.008,0.29687 -0.0469,0.58984 -0.11328,0.875 -0.0664,0.28906 -0.16406,0.57031 -0.28515,0.83984 -0.125,0.26953 -0.27343,0.52344 -0.44922,0.76172 -0.17187,0.23828 -0.3711,0.45703 -0.58985,0.65625 -0.21875,0.20313 -0.45312,0.37891 -0.70703,0.53125 -0.2539,0.15235 -0.52343,0.27735 -0.80078,0.375 -0.28125,0.0977 -0.5664,0.16797 -0.85937,0.20703 -0.29297,0.043 -0.58985,0.0547 -0.88282,0.0352 -0.29687,-0.0195 -0.58593,-0.0664 -0.875,-0.14453 -0.28515,-0.0781 -0.55859,-0.17969 -0.82421,-0.3125 -0.26563,-0.13281 -0.51563,-0.28906 -0.7461,-0.47266 -0.23437,-0.18359 -0.44922,-0.38672 -0.64062,-0.61328 -0.19141,-0.22656 -0.35938,-0.46875 -0.50391,-0.72656 -1.78125,-2.97656 -3.85937,-5.73047 -6.23047,-8.26172 -2.375,-2.53125 -4.98828,-4.78125 -7.84375,-6.75391 -2.85547,-1.96875 -5.89062,-3.61718 -9.09765,-4.9375 -3.20704,-1.32031 -6.51954,-2.28906 -9.9336,-2.89843 -3.15625,-0.57422 -6.33203,-0.83204 -9.53515,-0.76954 -3.20703,0.0586 -6.3711,0.4375 -9.5,1.13282 -3.12891,0.69531 -6.15625,1.69531 -9.08203,3 -2.92969,1.30078 -5.699219,2.8789 -8.3125,4.73828 -2.652344,1.89844 -5.097656,4.03906 -7.328125,6.41797 -2.234375,2.3789 -4.210938,4.95703 -5.9375,7.72656 -1.726562,2.76953 -3.164062,5.67969 -4.316406,8.73437 -1.152344,3.05079 -1.996094,6.1875 -2.53125,9.41016 -1.265625,6.17969 -3.203125,12.14063 -5.816406,17.87891 -2.617188,5.74218 -5.839844,11.11718 -9.671876,16.1289 l -3.378906,4.11719 c -0.515625,0.59766 -1.140625,1.02734 -1.886718,1.28906 -0.742188,0.25782 -1.5,0.31641 -2.277344,0.17188 z m 0,0"
             fill-opacity="1"
             fill-rule="nonzero"
             id="path111" />
        </g>
      </g>
    </g>
    <g
       clip-path="url(#d56f928adc)"
       id="g117"
       transform="translate(6.5716243,-268)">
      <g
         clip-path="url(#45a29359dd)"
         id="g116">
        <g
           clip-path="url(#91d2de9d2b)"
           id="g115">
          <path
             fill="#00d3f2"
             d="m 174.87109,445.40625 c -0.46484,-0.082 -0.90625,-0.23438 -1.32422,-0.46094 -0.41796,-0.22265 -0.78906,-0.50781 -1.11328,-0.85156 -0.32812,-0.34375 -0.58984,-0.73047 -0.78906,-1.16016 -0.20312,-0.42968 -0.33203,-0.8789 -0.38672,-1.34765 l -2.03515,-17.26172 c -0.28125,-11.56641 0.58593,-23.04297 2.60546,-34.4336 l 0.36329,-2.34765 c 1,-5.4961 1.04687,-11 0.14843,-16.51563 -0.0391,-0.28125 -0.0508,-0.5664 -0.0352,-0.85156 0.0156,-0.28516 0.0586,-0.56641 0.1289,-0.84375 0.0703,-0.27734 0.16797,-0.54297 0.28907,-0.80078 0.12109,-0.25781 0.26562,-0.50391 0.4375,-0.73438 0.16796,-0.22656 0.35937,-0.4414 0.57031,-0.63281 0.20703,-0.1914 0.4375,-0.36328 0.67969,-0.51172 0.24218,-0.15234 0.5,-0.27343 0.76562,-0.375 0.26953,-0.0976 0.54297,-0.17187 0.82422,-0.21875 0.28516,-0.043 0.56641,-0.0625 0.85156,-0.0547 0.28516,0.008 0.57031,0.0469 0.84766,0.10937 0.27734,0.0625 0.54687,0.15234 0.80859,0.26953 0.26172,0.11719 0.50781,0.25781 0.74219,0.42188 0.23437,0.16406 0.44922,0.34765 0.64844,0.55468 0.19531,0.20704 0.375,0.42969 0.52734,0.66797 0.15625,0.24219 0.28516,0.49219 0.39063,0.75782 0.10546,0.26562 0.18359,0.53906 0.23828,0.82031 1.0625,6.46875 1.01562,12.92969 -0.14063,19.38672 l -0.35547,2.27734 c -1.91406,10.70313 -2.76172,21.49219 -2.53906,32.36328 l 2.03125,16.91406 c 0.043,0.34375 0.043,0.6836 0.004,1.02735 -0.0391,0.34375 -0.11719,0.67578 -0.23438,1.0039 -0.11719,0.32422 -0.26953,0.62891 -0.46094,0.91797 -0.1875,0.28907 -0.41015,0.55078 -0.66015,0.78907 -0.25391,0.23828 -0.52735,0.4414 -0.82813,0.61328 -0.29687,0.17187 -0.61328,0.30859 -0.94531,0.40625 -0.32812,0.0976 -0.66797,0.15625 -1.01172,0.17578 -0.34375,0.0195 -0.6875,0 -1.02734,-0.0625 z m 0,0"
             fill-opacity="1"
             fill-rule="nonzero"
             id="path114" />
        </g>
      </g>
    </g>
    <g
       clip-path="url(#0d181b8ece)"
       id="g120"
       transform="translate(6.5716243,-268)">
      <g
         clip-path="url(#e85151dcdd)"
         id="g119">
        <g
           clip-path="url(#75d38b5c62)"
           id="g118">
          <path
             fill="#00d3f2"
             d="m 158.60937,463.24219 c -0.46484,-0.082 -0.90234,-0.23438 -1.32031,-0.46094 -0.41406,-0.22266 -0.78515,-0.50391 -1.10937,-0.84766 -0.32422,-0.33984 -0.58594,-0.72656 -0.78907,-1.15234 -0.19921,-0.42578 -0.33203,-0.87109 -0.39062,-1.33984 l -1.71094,-13.61719 c -2.24609,-20.52735 -1.73828,-40.98438 1.52735,-61.375 0.16796,-0.9961 0.28906,-2.00391 0.35937,-3.01172 0.0742,-1.01172 0.0937,-2.01953 0.0664,-3.03516 -0.0273,-1.01172 -0.10547,-2.01953 -0.23438,-3.02343 -0.125,-1.00391 -0.30078,-2 -0.52734,-2.98829 -0.22266,-0.98828 -0.4961,-1.96093 -0.81641,-2.92187 -0.32031,-0.96094 -0.6875,-1.90234 -1.10156,-2.82422 -0.41406,-0.92578 -0.87109,-1.82812 -1.37109,-2.70703 -0.50391,-0.87891 -1.04688,-1.73047 -1.63282,-2.55859 -0.58593,-0.82422 -1.21093,-1.6211 -1.875,-2.38672 -0.66406,-0.76172 -1.36328,-1.49219 -2.09765,-2.1875 -0.73828,-0.69532 -1.50391,-1.35547 -2.30469,-1.97657 -0.80078,-0.62109 -1.62891,-1.19921 -2.48438,-1.73828 -0.85937,-0.53906 -1.74218,-1.03515 -2.64843,-1.48437 -0.90235,-0.45313 -1.83203,-0.85938 -2.77735,-1.22266 -0.94531,-0.35937 -1.90625,-0.67578 -2.88281,-0.9414 -0.97656,-0.26563 -1.96484,-0.48438 -2.96094,-0.65235 -1,-0.17187 -2.0039,-0.29297 -3.01562,-0.36328 -1.00781,-0.0703 -2.01953,-0.0898 -3.03125,-0.0625 -1.01172,0.0273 -2.01953,0.10547 -3.02344,0.23438 -1.00781,0.125 -2,0.30468 -2.98828,0.52734 -0.98828,0.22656 -1.96094,0.5 -2.92187,0.82031 -0.96094,0.32031 -1.90235,0.6875 -2.82813,1.10156 -0.92187,0.41407 -1.82422,0.875 -2.70312,1.375 -0.87891,0.50391 -1.73047,1.04688 -2.5586,1.63282 -0.82422,0.58593 -1.61719,1.21093 -2.38281,1.875 -0.76563,0.66406 -1.49609,1.36328 -2.19141,2.10156 -0.69531,0.73437 -1.35156,1.50391 -1.972654,2.30469 -0.617187,0.80078 -1.199218,1.6289 -1.734375,2.48828 -0.539062,0.85547 -1.035156,1.73828 -1.488281,2.64453 -0.449219,0.90625 -0.855469,1.83203 -1.21875,2.77734 -0.359375,0.94532 -0.671875,1.90625 -0.9375,2.88672 -0.269531,0.97656 -0.484375,1.96094 -0.65625,2.96094 -1.144531,5.36719 -2.683594,10.62109 -4.609375,15.76172 -1.929687,5.13672 -4.230469,10.10547 -6.898437,14.90234 -2.667969,4.79688 -5.675782,9.36719 -9.027344,13.71485 -3.347656,4.34765 -7,8.42578 -10.957032,12.23046 -0.207031,0.20313 -0.429687,0.38672 -0.667968,0.55079 -0.242188,0.16015 -0.496094,0.29687 -0.765625,0.41015 -0.265625,0.10938 -0.542969,0.19531 -0.824219,0.25391 -0.285156,0.0547 -0.574219,0.0859 -0.863281,0.0859 -0.289063,0 -0.578125,-0.0274 -0.863281,-0.082 -0.28125,-0.0586 -0.558594,-0.14062 -0.828126,-0.25 -0.265624,-0.10937 -0.523437,-0.24609 -0.765624,-0.40625 -0.238282,-0.16015 -0.464844,-0.34375 -0.667969,-0.54687 -0.207031,-0.20703 -0.390625,-0.42969 -0.550781,-0.66797 -0.164063,-0.24219 -0.300782,-0.49609 -0.410157,-0.76172 -0.113281,-0.26953 -0.195312,-0.54687 -0.253906,-0.82812 -0.05859,-0.28516 -0.08594,-0.57422 -0.08594,-0.86328 -0.0039,-0.28907 0.02734,-0.57813 0.08203,-0.85938 0.05469,-0.28516 0.136719,-0.5625 0.25,-0.83203 0.109375,-0.26563 0.246093,-0.52344 0.40625,-0.76172 0.160156,-0.24219 0.339843,-0.46484 0.546875,-0.67187 3.621094,-3.48829 6.96875,-7.22266 10.042968,-11.20313 3.070313,-3.98047 5.839844,-8.16406 8.296876,-12.55078 2.460937,-4.38672 4.585937,-8.92578 6.378906,-13.625 1.792968,-4.69922 3.230468,-9.50391 4.320312,-14.41406 0.214844,-1.28125 0.492188,-2.55078 0.835938,-3.8086 0.339844,-1.2539 0.742187,-2.49218 1.203125,-3.70703 0.464843,-1.21484 0.984375,-2.40625 1.5625,-3.57422 0.582031,-1.16406 1.214843,-2.29687 1.90625,-3.40234 0.691406,-1.10156 1.433593,-2.16797 2.230469,-3.19922 0.796874,-1.02734 1.640624,-2.01562 2.53125,-2.96484 0.894531,-0.94532 1.832031,-1.84766 2.8125,-2.70313 0.980468,-0.85156 2.003906,-1.65625 3.062506,-2.41406 1.0625,-0.75391 2.15625,-1.45313 3.28515,-2.10156 1.12891,-0.64453 2.28907,-1.23438 3.47266,-1.76953 1.1875,-0.53125 2.39844,-1.00782 3.63281,-1.42188 1.23438,-0.41406 2.48438,-0.76562 3.75391,-1.05859 1.26953,-0.28907 2.54687,-0.51953 3.83984,-0.6836 1.28907,-0.16406 2.58594,-0.26562 3.88672,-0.30468 1.30078,-0.0391 2.60156,-0.0156 3.89844,0.0742 1.29687,0.0899 2.58984,0.24219 3.87109,0.46094 1.28516,0.21485 2.55469,0.49219 3.8086,0.83594 1.25781,0.33984 2.49218,0.74219 3.71093,1.20312 1.21485,0.46485 2.40625,0.98438 3.57032,1.5625 1.16796,0.58204 2.30078,1.21485 3.40234,1.90625 1.10547,0.69141 2.17187,1.4336 3.19922,2.23047 1.03125,0.79688 2.01953,1.64063 2.96484,2.53125 0.94922,0.89453 1.84766,1.83203 2.70313,2.8125 0.85547,0.98047 1.66015,2.00391 2.41406,3.0625 0.75391,1.0625 1.45703,2.15625 2.10156,3.28516 0.64844,1.12891 1.23828,2.28516 1.77344,3.47266 0.53125,1.1875 1.00391,2.39843 1.41797,3.63281 0.41406,1.23437 0.76953,2.48437 1.05859,3.7539 0.29297,1.26954 0.51953,2.54688 0.6875,3.83985 0.16406,1.28906 0.26563,2.58594 0.30469,3.88672 0.0391,1.30078 0.0117,2.60156 -0.0781,3.89843 -0.0898,1.29688 -0.24218,2.58985 -0.45703,3.8711 -3.12109,19.53906 -3.60547,39.14062 -1.45312,58.80469 l 1.71484,13.65234 c 0.0352,0.28906 0.043,0.57812 0.0234,0.86719 -0.0195,0.28906 -0.0703,0.57422 -0.14453,0.85156 -0.0781,0.28125 -0.17969,0.55078 -0.3125,0.80859 -0.12891,0.26172 -0.28125,0.50391 -0.46094,0.73438 -0.17578,0.22656 -0.375,0.4375 -0.59375,0.625 -0.21875,0.1914 -0.45703,0.35937 -0.70703,0.5 -0.25391,0.14453 -0.51563,0.26172 -0.79297,0.35547 -0.27344,0.0898 -0.55469,0.15234 -0.84375,0.1914 -0.44922,0.0586 -0.89844,0.0469 -1.34766,-0.0351 z m 0,0"
             fill-opacity="1"
             fill-rule="nonzero"
             id="path117" />
        </g>
      </g>
    </g>
    <g
       clip-path="url(#679c53e4ed)"
       id="g123"
       transform="translate(6.5716243,-268)">
      <g
         clip-path="url(#541c53277c)"
         id="g122">
        <g
           clip-path="url(#d8e39fd83a)"
           id="g121">
          <path
             fill="#00d3f2"
             d="m 89.261719,475.78125 c -0.820313,-0.14453 -1.546875,-0.5 -2.167969,-1.05469 -0.621094,-0.55859 -1.054688,-1.23828 -1.289062,-2.04297 -0.238282,-0.80078 -0.246094,-1.60547 -0.02344,-2.41015 0.21875,-0.8086 0.632812,-1.4961 1.246094,-2.06641 6.398437,-5.64453 12.304687,-11.76562 17.718748,-18.36719 5.41016,-6.59765 10.25782,-13.58984 14.54297,-20.97265 4.28125,-7.37891 7.94532,-15.0586 10.98828,-23.03125 3.04297,-7.97266 5.42969,-16.14063 7.15235,-24.5 0.15625,-0.85547 0.23047,-1.71485 0.21484,-2.58594 -0.0117,-0.87109 -0.10937,-1.73047 -0.29297,-2.58203 -0.18359,-0.84766 -0.44531,-1.67578 -0.79297,-2.47266 -0.34375,-0.79687 -0.76562,-1.55469 -1.25781,-2.26953 -0.49609,-0.71875 -1.05469,-1.37891 -1.67969,-1.98437 -0.625,-0.60547 -1.30078,-1.14454 -2.03125,-1.61719 -0.73047,-0.46875 -1.5039,-0.86719 -2.3125,-1.1875 -0.80859,-0.32031 -1.64062,-0.5586 -2.49609,-0.71485 -0.85547,-0.15625 -1.71875,-0.22656 -2.58594,-0.21484 -0.87109,0.0156 -1.73047,0.11328 -2.58203,0.29688 -0.85156,0.18359 -1.67578,0.44921 -2.47265,0.79296 -0.80079,0.34766 -1.55469,0.76563 -2.27344,1.26172 -0.71485,0.4961 -1.375,1.05469 -1.98047,1.67969 -0.60547,0.625 -1.14063,1.30078 -1.61328,2.03516 -0.47266,0.73047 -0.86719,1.5 -1.1875,2.30859 -0.32031,0.80859 -0.5586,1.64063 -0.71485,2.49609 -1.4414,6.9375 -3.43359,13.71094 -5.97656,20.32032 -2.54297,6.60937 -5.60547,12.97265 -9.183594,19.08203 -3.582032,6.11328 -7.632813,11.89453 -12.15625,17.34765 -4.523438,5.45313 -9.457032,10.5 -14.800782,15.14844 -0.214844,0.19141 -0.445312,0.35938 -0.695312,0.50391 -0.246094,0.14453 -0.503906,0.26172 -0.777344,0.35547 -0.269531,0.0937 -0.546875,0.16406 -0.832031,0.20312 -0.285157,0.0391 -0.570313,0.0508 -0.855469,0.0352 -0.285156,-0.0156 -0.566406,-0.0586 -0.847656,-0.12891 -0.277344,-0.0703 -0.546875,-0.16797 -0.804688,-0.28906 -0.257812,-0.125 -0.503906,-0.26953 -0.734375,-0.44141 -0.230469,-0.17187 -0.441406,-0.36328 -0.636719,-0.57422 -0.191406,-0.21093 -0.363281,-0.4414 -0.511718,-0.68359 -0.148438,-0.24609 -0.273438,-0.50391 -0.371094,-0.77344 -0.09766,-0.26953 -0.167969,-0.54687 -0.214844,-0.82812 -0.04297,-0.28516 -0.0625,-0.57031 -0.05078,-0.85547 0.01172,-0.28516 0.05078,-0.57031 0.117187,-0.84766 0.06641,-0.28125 0.15625,-0.55078 0.277344,-0.8125 0.117188,-0.26172 0.257813,-0.50781 0.425782,-0.74218 0.167968,-0.23047 0.355468,-0.44532 0.5625,-0.64454 4.957031,-4.33203 9.535156,-9.02734 13.738281,-14.09375 4.203125,-5.0664 7.976562,-10.43359 11.316406,-16.10546 3.34375,-5.66797 6.210937,-11.56641 8.609375,-17.69922 2.394531,-6.12891 4.289061,-12.41016 5.679691,-18.84375 0.12109,-0.71094 0.28125,-1.41797 0.47265,-2.11328 0.19532,-0.69922 0.42188,-1.38282 0.6836,-2.0586 0.25781,-0.67187 0.55078,-1.33203 0.8789,-1.98047 0.32422,-0.64453 0.67969,-1.27343 1.06641,-1.88281 0.39063,-0.60937 0.80469,-1.19922 1.25,-1.76953 0.44531,-0.57031 0.91797,-1.11719 1.41797,-1.64063 0.49609,-0.52343 1.01953,-1.01953 1.56641,-1.49218 0.55078,-0.47266 1.11718,-0.91407 1.71093,-1.33203 0.58985,-0.41407 1.19922,-0.80079 1.83203,-1.15625 0.62891,-0.35547 1.27344,-0.67969 1.9336,-0.97266 0.66015,-0.29297 1.33594,-0.55469 2.02344,-0.78125 0.68359,-0.22656 1.38281,-0.41797 2.08593,-0.57422 0.70703,-0.16016 1.41797,-0.28125 2.13672,-0.37109 0.71485,-0.0859 1.4375,-0.14063 2.16016,-0.15625 0.72265,-0.0195 1.44531,0 2.16406,0.0547 0.72266,0.0547 1.4375,0.14063 2.15234,0.26563 0.71094,0.125 1.41407,0.28125 2.11328,0.47656 0.69532,0.19141 1.37891,0.41797 2.05469,0.67969 0.67578,0.26172 1.33594,0.55469 1.98047,0.87891 0.64453,0.32421 1.27344,0.68359 1.88281,1.07031 0.61328,0.38672 1.20313,0.80078 1.76953,1.24609 0.57032,0.44531 1.11719,0.91797 1.64063,1.41797 0.52344,0.5 1.02344,1.02344 1.49219,1.57031 0.47265,0.54688 0.91797,1.11719 1.33203,1.70703 0.41797,0.59375 0.80469,1.20313 1.16015,1.83204 0.35547,0.6289 0.67969,1.27343 0.97266,1.93359 0.29297,0.66406 0.55078,1.33594 0.77734,2.02344 0.22657,0.6875 0.41797,1.38281 0.57813,2.08984 0.15625,0.70313 0.28125,1.41406 0.36719,2.13281 0.0898,0.71875 0.14062,1.4375 0.16015,2.16016 0.0156,0.72266 -0.004,1.44531 -0.0547,2.16797 -0.0547,0.71875 -0.14454,1.4375 -0.26954,2.14844 -1.80468,8.83593 -4.30468,17.46875 -7.50781,25.89843 -3.19922,8.4336 -7.05859,16.55078 -11.57031,24.35938 -4.51172,7.80859 -9.625,15.20312 -15.33203,22.18359 -5.71094,6.98438 -11.941409,13.46094 -18.699221,19.4336 -0.503906,0.47265 -1.089844,0.80859 -1.75,1.0039 -0.664062,0.19922 -1.335938,0.23828 -2.019531,0.11719 z m 0,0"
             fill-opacity="1"
             fill-rule="nonzero"
             id="path120" />
        </g>
      </g>
    </g>
    <g
       clip-path="url(#0fbf7a0d1a)"
       id="g126"
       transform="translate(6.5716243,-268)">
      <g
         clip-path="url(#1a5df496a8)"
         id="g125">
        <g
           clip-path="url(#b5a32c8a0d)"
           id="g124">
          <path
             fill="#00d3f2"
             d="m 119.10547,400.38281 c -0.23047,-0.043 -0.46094,-0.10156 -0.68359,-0.17578 -0.27344,-0.0937 -0.53907,-0.21484 -0.78907,-0.36328 -0.25,-0.14844 -0.48047,-0.31641 -0.69922,-0.50781 -0.21484,-0.19532 -0.41015,-0.40625 -0.58593,-0.63672 -0.17578,-0.23438 -0.32422,-0.48047 -0.45313,-0.74219 -0.125,-0.26172 -0.22656,-0.53125 -0.29687,-0.8125 -0.0742,-0.28125 -0.11719,-0.56641 -0.13672,-0.85547 -0.0156,-0.28906 -0.004,-0.57812 0.0391,-0.86328 0.0391,-0.28906 0.10547,-0.57031 0.20313,-0.84375 1.92968,-5.29297 3.37109,-10.71484 4.32031,-16.26953 0.0391,-0.28906 0.10547,-0.56641 0.19922,-0.84375 0.0937,-0.27344 0.21093,-0.53516 0.35937,-0.78516 0.14453,-0.25 0.3125,-0.48437 0.50391,-0.70312 0.1914,-0.21485 0.40234,-0.41016 0.63281,-0.58594 0.22656,-0.17578 0.47266,-0.32812 0.73438,-0.45703 0.25781,-0.12891 0.52734,-0.23047 0.80859,-0.30469 0.27734,-0.0742 0.5625,-0.12109 0.85156,-0.14062 0.28906,-0.0156 0.57813,-0.008 0.86328,0.0312 0.29297,0.0273 0.57813,0.082 0.85938,0.16797 0.28125,0.0859 0.54687,0.19921 0.80469,0.33984 0.25781,0.14062 0.49609,0.30469 0.71875,0.49609 0.22265,0.19141 0.42187,0.40235 0.60156,0.63672 0.17578,0.23047 0.32812,0.48047 0.45703,0.74219 0.125,0.26562 0.22265,0.53906 0.29297,0.82422 0.0703,0.28515 0.10937,0.57422 0.11718,0.86719 0.0117,0.29296 -0.008,0.58203 -0.0586,0.87109 -1.00781,6.14453 -2.58203,12.14453 -4.71875,17.99219 -0.17187,0.5 -0.42187,0.95312 -0.7539,1.35937 -0.33204,0.41016 -0.72657,0.75 -1.17969,1.01563 -0.45313,0.26953 -0.9375,0.44922 -1.45703,0.54297 -0.51563,0.0937 -1.03516,0.0976 -1.55469,0.004 z m 0,0"
             fill-opacity="1"
             fill-rule="nonzero"
             id="path123" />
        </g>
      </g>
    </g>
    <g
       clip-path="url(#450d907ba0)"
       id="g129"
       transform="translate(6.5716243,-268)">
      <g
         clip-path="url(#51a19c811a)"
         id="g128">
        <g
           clip-path="url(#79610ad07d)"
           id="g127">
          <path
             fill="#00d3f2"
             d="m 75.007812,464.74219 c -0.410156,-0.0703 -0.800781,-0.19922 -1.175781,-0.38282 -0.371093,-0.18359 -0.710937,-0.41406 -1.019531,-0.69531 -0.308594,-0.27734 -0.570312,-0.59375 -0.789062,-0.94922 -0.21875,-0.35547 -0.382813,-0.73047 -0.496094,-1.13281 -0.109375,-0.39844 -0.164063,-0.80859 -0.160156,-1.22266 0,-0.41406 0.0625,-0.82421 0.179687,-1.22265 0.121094,-0.39844 0.292969,-0.77344 0.515625,-1.1211 0.226562,-0.35156 0.492188,-0.66406 0.804688,-0.9375 7.4375,-6.46484 14.175781,-13.58203 20.226562,-21.35937 6.050781,-7.77344 11.29297,-16.05859 15.73047,-24.85547 0.13281,-0.25391 0.28516,-0.49609 0.46484,-0.71875 0.17969,-0.22656 0.37891,-0.42969 0.59766,-0.61719 0.21875,-0.18359 0.45312,-0.34765 0.70312,-0.48828 0.25391,-0.13672 0.51563,-0.2539 0.78907,-0.33984 0.26953,-0.0899 0.55078,-0.15235 0.83593,-0.1875 0.28516,-0.0312 0.57032,-0.0391 0.85547,-0.0156 0.28516,0.0195 0.57032,0.0703 0.84375,0.14453 0.27735,0.0781 0.54297,0.17969 0.80078,0.3086 0.25782,0.1289 0.5,0.27734 0.72657,0.45312 0.22656,0.17578 0.43359,0.3711 0.625,0.58985 0.1875,0.21484 0.35547,0.44922 0.49609,0.69531 0.14453,0.25 0.26563,0.50781 0.35547,0.78125 0.0937,0.27344 0.16016,0.55078 0.19922,0.83594 0.0391,0.28125 0.0469,0.5664 0.0312,0.85547 -0.0156,0.28515 -0.0625,0.5664 -0.13281,0.84765 -0.0742,0.27735 -0.17188,0.54297 -0.29688,0.80469 -4.69141,9.30859 -10.23437,18.07422 -16.63281,26.30469 -6.402346,8.23047 -13.531252,15.76562 -21.39844,22.60547 -0.503906,0.4414 -1.078125,0.75 -1.722656,0.92968 -0.648438,0.17969 -1.296875,0.20703 -1.957032,0.0899 z m 0,0"
             fill-opacity="1"
             fill-rule="nonzero"
             id="path126" />
        </g>
      </g>
    </g>
    <g
       clip-path="url(#dd33dff2e2)"
       id="g132"
       transform="translate(6.5716243,-268)">
      <g
         clip-path="url(#ec88af0581)"
         id="g131">
        <g
           clip-path="url(#01c8ef2e6b)"
           id="g130">
          <path
             fill="#00d3f2"
             d="m 109.82031,479.44922 c -0.79297,-0.14063 -1.49609,-0.47266 -2.10937,-1 -0.60938,-0.52344 -1.04297,-1.17188 -1.30078,-1.9336 -0.25782,-0.76562 -0.30469,-1.54296 -0.13672,-2.33203 0.16797,-0.78906 0.52344,-1.48047 1.07031,-2.07031 10.21094,-11.59766 19.57031,-23.83984 28.08594,-36.73437 0.23828,-0.38282 0.53515,-0.72266 0.88672,-1.01172 0.35156,-0.29297 0.73828,-0.51953 1.16015,-0.6875 0.42188,-0.16797 0.86328,-0.26172 1.31641,-0.28907 0.45703,-0.0234 0.90234,0.0195 1.34375,0.13672 0.4414,0.10938 0.85937,0.27735 1.24609,0.51172 0.39063,0.23438 0.73828,0.52344 1.03906,0.86328 0.30079,0.33985 0.54297,0.71875 0.72657,1.13672 0.18359,0.41406 0.30078,0.84766 0.35156,1.30078 0,0 0.77344,6.98438 1.74609,13.57813 l 2.2461,17.58594 c 0.0352,0.28906 0.043,0.57812 0.0234,0.86718 -0.0195,0.28907 -0.0664,0.57422 -0.14453,0.85547 -0.0742,0.27735 -0.17578,0.54688 -0.30468,0.8086 -0.12891,0.25781 -0.28516,0.5039 -0.46094,0.73437 -0.17969,0.23047 -0.375,0.4375 -0.59375,0.62891 -0.21875,0.1914 -0.45313,0.35937 -0.70703,0.5039 -0.25,0.14453 -0.51563,0.26172 -0.78907,0.35547 -0.27734,0.0899 -0.55859,0.15625 -0.84375,0.19141 -0.28906,0.0391 -0.57812,0.0469 -0.86718,0.0273 -0.28907,-0.0195 -0.57422,-0.0664 -0.85547,-0.14453 -0.27735,-0.0742 -0.55078,-0.17969 -0.8086,-0.30859 -0.26171,-0.12891 -0.5039,-0.28125 -0.73437,-0.45703 -0.23047,-0.17969 -0.44141,-0.375 -0.62891,-0.59375 -0.1914,-0.21875 -0.35937,-0.45704 -0.5039,-0.70704 -0.14453,-0.2539 -0.26172,-0.51562 -0.35547,-0.78906 -0.0937,-0.27734 -0.15625,-0.55859 -0.19531,-0.84765 l -2.25391,-17.50782 c -0.11328,-0.72656 -0.22656,-1.46484 -0.32813,-2.19922 -6.85546,9.83594 -14.27734,19.23047 -22.25781,28.1836 -0.51562,0.55859 -1.13672,0.95703 -1.85547,1.19531 -0.72265,0.24219 -1.45703,0.28906 -2.20703,0.14844 z m 0,0"
             fill-opacity="1"
             fill-rule="nonzero"
             id="path129" />
        </g>
      </g>
    </g>
    <g
       transform="translate(229.57163,59)"
       id="g152">
      <g
         clip-path="url(#7393fece81)"
         id="g151">
        <g
           fill="#ffffff"
           fill-opacity="1"
           id="g135">
          <g
             transform="translate(1.648261,76.588518)"
             id="g134">
            <g
               id="g133">
              <path
                 d="m 70.910156,-56.757812 h -50.4375 c -8.378906,0 -16.597656,6.796874 -16.597656,15.253906 v 2.847656 c 0,9.089844 7.429688,15.175781 16.597656,15.175781 l 33.679688,0.08203 c 3.871094,0 5.847656,1.660157 5.847656,5.058594 v 2.925782 c 0,2.84375 -3.003906,5.214843 -5.847656,5.214843 h -50.4375 v 10.121094 h 50.4375 c 8.300781,0 16.519531,-6.640625 16.519531,-15.335937 v -2.925782 c 0,-8.933594 -7.429687,-15.179687 -16.519531,-15.179687 l -33.679688,-0.07813 c -3.871094,0 -5.847656,-1.660156 -5.847656,-5.058594 v -2.847656 c 0,-2.765625 3.003906,-5.136719 5.847656,-5.136719 h 50.4375 z m 0,0"
                 id="path132" />
            </g>
          </g>
        </g>
        <g
           fill="#ffffff"
           fill-opacity="1"
           id="g138">
          <g
             transform="translate(78.167223,76.588518)"
             id="g137">
            <g
               id="g136">
              <path
                 d="m 72.726562,-41.421875 c 0,-9.011719 -7.507812,-15.257813 -16.519531,-15.257813 H 3.476562 V -0.078125 H 14.152344 V -46.5625 h 42.054687 c 3.871094,0 5.847657,1.738281 5.847657,5.140625 v 3.082031 c 0,3.160156 -1.976563,4.742188 -5.847657,4.742188 H 17.46875 v 10.433594 h 38.738281 c 9.011719,0 16.519531,-6.085938 16.519531,-15.175782 z m 0,0"
                 id="path135" />
            </g>
          </g>
        </g>
        <g
           fill="#ffffff"
           fill-opacity="1"
           id="g141">
          <g
             transform="translate(156.58336,76.588518)"
             id="g140">
            <g
               id="g139">
              <path
                 d="m 72.726562,-41.503906 c 0,-8.457032 -8.296874,-15.253906 -16.519531,-15.253906 H 20.472656 c -8.378906,0 -16.597656,6.796874 -16.597656,15.253906 v 26.089844 c 0,9.011718 7.429688,15.335937 16.597656,15.335937 h 35.734375 c 8.933594,0 16.519531,-6.402344 16.519531,-15.335937 z m -10.671874,26.089844 c 0,3.398437 -1.976563,5.058593 -5.847657,5.058593 H 20.472656 c -3.871094,0 -5.847656,-1.660156 -5.847656,-5.058593 v -26.089844 c 0,-2.765625 3.003906,-5.136719 5.847656,-5.136719 h 35.734375 c 2.84375,0 5.847657,2.371094 5.847657,5.136719 z m 0,0"
                 id="path138" />
            </g>
          </g>
        </g>
        <g
           fill="#ffffff"
           fill-opacity="1"
           id="g144">
          <g
             transform="translate(235.63189,76.588518)"
             id="g143">
            <g
               id="g142">
              <path
                 d="M 69.804688,-56.757812 H 3.875 v 10.117187 h 27.507812 v 46.5625 h 10.59375 v -46.5625 h 27.828126 z m 0,0"
                 id="path141" />
            </g>
          </g>
        </g>
        <g
           fill="#ffffff"
           fill-opacity="1"
           id="g147">
          <g
             transform="translate(311.12325,76.588518)"
             id="g146">
            <g
               id="g145">
              <path
                 d="M 69.804688,-56.757812 H 3.875 v 10.117187 h 27.507812 v 46.5625 h 10.59375 v -46.5625 h 27.828126 z m 0,0"
                 id="path144" />
            </g>
          </g>
        </g>
        <g
           fill="#ffffff"
           fill-opacity="1"
           id="g150">
          <g
             transform="translate(386.61456,76.588518)"
             id="g149">
            <g
               id="g148">
              <path
                 d="m 72.726562,-18.5 c 0,-3.632812 -1.421874,-6.953125 -4.1875,-9.957031 2.765626,-2.925781 4.1875,-6.167969 4.1875,-9.882813 v -3.082031 c 0,-9.011719 -7.507812,-15.257813 -16.519531,-15.257813 H 3.476562 V -0.078125 H 14.152344 V -46.5625 h 42.054687 c 3.871094,0 5.847657,1.738281 5.847657,5.140625 v 3.082031 c 0,3.160156 -1.976563,4.742188 -5.847657,4.742188 H 17.46875 v 10.433594 h 38.738281 c 3.082031,0 5.847657,1.742187 5.847657,4.664062 v 18.421875 h 10.671874 z m 0,0"
                 id="path147" />
            </g>
          </g>
        </g>
      </g>
    </g>
  </g>
</svg>
